M48
; DRILL file {KiCad 8.0.9-8.0.9-0~ubuntu24.04.1} date 2026-08-15T17:53:17-0300
; FORMAT={-:-/ absolute / metric / decimal}
; #@! TF.CreationDate,2026-08-15T17:53:17-03:00
; #@! TF.GenerationSoftware,Kicad,Pcbnew,8.0.9-8.0.9-0~ubuntu24.04.1
; #@! TF.FileFunction,Plated,1,2,PTH
FMAT,2
METRIC
; #@! TA.AperFunction,Plated,PTH,ComponentDrill
T1C0.800
; #@! TA.AperFunction,Plated,PTH,ComponentDrill
T2C1.000
; #@! TA.AperFunction,Plated,PTH,ComponentDrill
T3C1.016
; #@! TA.AperFunction,Plated,PTH,ComponentDrill
T4C1.020
; #@! TA.AperFunction,Plated,PTH,ComponentDrill
T5C1.300
%
G90
G05
T1
X111.685Y-65.5
X112.185Y-81.0
X116.408Y-90.092
X116.765Y-65.5
X117.265Y-81.0
X120.0Y-86.5
X157.0Y-75.0
X162.08Y-75.0
X171.0Y-71.0
X173.5Y-71.0
T2
X93.146Y-65.656
X93.146Y-68.196
X93.146Y-70.736
X93.146Y-95.656
X93.146Y-98.196
X93.146Y-100.736
X93.5Y-40.92
X93.5Y-43.46
X93.5Y-46.0
X93.5Y-48.54
X111.88Y-121.0
X114.42Y-121.0
X116.96Y-121.0
X119.5Y-121.0
X122.04Y-121.0
X134.7Y-40.92
X134.7Y-43.46
X134.7Y-46.0
X134.7Y-48.54
X154.5Y-118.5
X155.5Y-70.0
X155.5Y-80.5
X157.04Y-118.5
X159.58Y-118.5
X162.12Y-118.5
X163.5Y-108.5
X164.66Y-118.5
X167.2Y-118.5
X168.0Y-108.5
X168.5Y-83.225
X168.5Y-85.765
X169.74Y-118.5
X172.28Y-118.5
X177.5Y-41.725
X177.5Y-44.265
T3
X147.5Y-38.92
X147.5Y-41.46
X147.5Y-44.0
X147.5Y-46.54
X147.5Y-49.08
X147.5Y-51.62
X147.5Y-54.16
X147.5Y-56.7
X170.36Y-38.92
X170.36Y-41.46
X170.36Y-44.0
X170.36Y-46.54
X170.36Y-49.08
X170.36Y-51.62
X170.36Y-54.16
X170.36Y-56.7
T4
X124.8Y-68.455
X124.8Y-70.995
X124.8Y-73.535
X124.8Y-76.075
X124.8Y-78.615
X124.8Y-81.155
X124.8Y-83.695
X124.8Y-86.235
X124.8Y-88.775
X124.8Y-91.315
X124.8Y-93.855
X124.8Y-96.395
X124.8Y-98.935
X124.8Y-101.475
X124.8Y-104.015
X150.2Y-68.455
X150.2Y-70.995
X150.2Y-73.535
X150.2Y-76.075
X150.2Y-78.615
X150.2Y-81.155
X150.2Y-83.695
X150.2Y-86.235
X150.2Y-88.775
X150.2Y-91.315
X150.2Y-93.855
X150.2Y-96.395
X150.2Y-98.935
X150.2Y-101.475
X150.2Y-104.015
T5
X95.305Y-112.5
X95.305Y-117.5
M30
