M48
; DRILL file {KiCad 8.0.9-8.0.9-0~ubuntu24.04.1} date 2026-06-29T16:03:33-0300
; FORMAT={-:-/ absolute / inch / decimal}
; #@! TF.CreationDate,2026-06-29T16:03:33-03:00
; #@! TF.GenerationSoftware,Kicad,Pcbnew,8.0.9-8.0.9-0~ubuntu24.04.1
; #@! TF.FileFunction,Plated,1,2,PTH
FMAT,2
INCH
; #@! TA.AperFunction,Plated,PTH,ComponentDrill
T1C0.0315
; #@! TA.AperFunction,Plated,PTH,ComponentDrill
T2C0.0394
; #@! TA.AperFunction,Plated,PTH,ComponentDrill
T3C0.0400
; #@! TA.AperFunction,Plated,PTH,ComponentDrill
T4C0.0402
; #@! TA.AperFunction,Plated,PTH,ComponentDrill
T5C0.0512
%
G90
G05
T1
X4.485Y-2.7953
X4.485Y-3.4055
X4.5615Y-3.8046
X4.685Y-2.7953
X4.685Y-3.4055
X4.703Y-3.6632
X6.4119Y-3.3912
X6.5534Y-3.2498
X6.9291Y-2.7756
X6.9291Y-2.874
T2
X3.7062Y-2.6907
X3.7062Y-2.7907
X3.7062Y-2.8907
X3.7062Y-3.7795
X3.7062Y-3.8795
X3.7062Y-3.9795
X3.7201Y-1.6246
X3.7201Y-1.7246
X3.7201Y-1.8246
X3.7201Y-1.9246
X3.9744Y-5.1565
X4.0744Y-5.1565
X4.1744Y-5.1565
X4.2744Y-5.1565
X4.3744Y-5.1565
X5.3422Y-1.6246
X5.3422Y-1.7246
X5.3422Y-1.8246
X5.3422Y-1.9246
X6.5457Y-4.9803
X6.5551Y-3.622
X6.6457Y-4.9803
X6.7457Y-4.9803
X6.8457Y-4.9803
X6.9457Y-4.9803
X7.0457Y-4.9803
X7.1457Y-4.7047
X7.1457Y-4.9803
X7.2047Y-3.5433
X7.2047Y-3.6433
X7.2835Y-1.623
X7.2835Y-1.723
T3
X5.928Y-1.511
X5.928Y-1.611
X5.928Y-1.711
X5.928Y-1.811
X5.928Y-1.911
X5.928Y-2.011
X5.928Y-2.111
X5.928Y-2.211
X6.828Y-1.511
X6.828Y-1.611
X6.828Y-1.711
X6.828Y-1.811
X6.828Y-1.911
X6.828Y-2.011
X6.828Y-2.111
X6.828Y-2.211
T4
X5.0118Y-2.8919
X5.0118Y-2.9919
X5.0118Y-3.0919
X5.0118Y-3.1919
X5.0118Y-3.2919
X5.0118Y-3.3919
X5.0118Y-3.4919
X5.0118Y-3.5919
X5.0118Y-3.6919
X5.0118Y-3.7919
X5.0118Y-3.8919
X5.0118Y-3.9919
X5.0118Y-4.0919
X5.0118Y-4.1919
X5.0118Y-4.2919
X6.0118Y-2.8919
X6.0118Y-2.9919
X6.0118Y-3.0919
X6.0118Y-3.1919
X6.0118Y-3.2919
X6.0118Y-3.3919
X6.0118Y-3.4919
X6.0118Y-3.5919
X6.0118Y-3.6919
X6.0118Y-3.7919
X6.0118Y-3.8919
X6.0118Y-3.9919
X6.0118Y-4.0919
X6.0118Y-4.1919
X6.0118Y-4.2919
T5
X3.8583Y-4.6457
X3.8583Y-4.8425
M30
