G04 #@! TF.GenerationSoftware,KiCad,Pcbnew,8.0.9-8.0.9-0~ubuntu24.04.1*
G04 #@! TF.CreationDate,2026-08-19T14:53:58-03:00*
G04 #@! TF.ProjectId,PCB,5043422e-6b69-4636-9164-5f7063625858,rev?*
G04 #@! TF.SameCoordinates,Original*
G04 #@! TF.FileFunction,Copper,L2,Bot*
G04 #@! TF.FilePolarity,Positive*
%FSLAX46Y46*%
G04 Gerber Fmt 4.6, Leading zero omitted, Abs format (unit mm)*
G04 Created by KiCad (PCBNEW 8.0.9-8.0.9-0~ubuntu24.04.1) date 2026-08-19 14:53:58*
%MOMM*%
%LPD*%
G01*
G04 APERTURE LIST*
G04 Aperture macros list*
%AMHorizOval*
0 Thick line with rounded ends*
0 $1 width*
0 $2 $3 position (X,Y) of the first rounded end (center of the circle)*
0 $4 $5 position (X,Y) of the second rounded end (center of the circle)*
0 Add line between two ends*
20,1,$1,$2,$3,$4,$5,0*
0 Add two circle primitives to create the rounded ends*
1,1,$1,$2,$3*
1,1,$1,$4,$5*%
G04 Aperture macros list end*
G04 #@! TA.AperFunction,ComponentPad*
%ADD10R,1.700000X1.700000*%
G04 #@! TD*
G04 #@! TA.AperFunction,ComponentPad*
%ADD11O,1.700000X1.700000*%
G04 #@! TD*
G04 #@! TA.AperFunction,ComponentPad*
%ADD12R,2.600000X2.600000*%
G04 #@! TD*
G04 #@! TA.AperFunction,ComponentPad*
%ADD13C,2.600000*%
G04 #@! TD*
G04 #@! TA.AperFunction,ComponentPad*
%ADD14C,1.600000*%
G04 #@! TD*
G04 #@! TA.AperFunction,ComponentPad*
%ADD15HorizOval,1.600000X0.000000X0.000000X0.000000X0.000000X0*%
G04 #@! TD*
G04 #@! TA.AperFunction,ComponentPad*
%ADD16R,1.524000X1.524000*%
G04 #@! TD*
G04 #@! TA.AperFunction,ComponentPad*
%ADD17O,3.048000X1.524000*%
G04 #@! TD*
G04 #@! TA.AperFunction,ComponentPad*
%ADD18O,1.600000X1.600000*%
G04 #@! TD*
G04 #@! TA.AperFunction,ComponentPad*
%ADD19R,2.000000X2.000000*%
G04 #@! TD*
G04 #@! TA.AperFunction,ComponentPad*
%ADD20C,2.000000*%
G04 #@! TD*
G04 #@! TA.AperFunction,ComponentPad*
%ADD21R,1.600000X1.600000*%
G04 #@! TD*
G04 #@! TA.AperFunction,Conductor*
%ADD22C,1.500000*%
G04 #@! TD*
G04 #@! TA.AperFunction,Conductor*
%ADD23C,1.000000*%
G04 #@! TD*
G04 APERTURE END LIST*
D10*
X154500000Y-118500000D03*
D11*
X157040000Y-118500000D03*
X159580000Y-118500000D03*
X162120000Y-118500000D03*
X164660000Y-118500000D03*
X167200000Y-118500000D03*
X169740000Y-118500000D03*
X172280000Y-118500000D03*
D12*
X95305000Y-117500000D03*
D13*
X95305000Y-112500000D03*
D10*
X168500000Y-83225000D03*
D11*
X168500000Y-85765000D03*
D10*
X134700000Y-40920000D03*
D11*
X134700000Y-43460000D03*
X134700000Y-46000000D03*
X134700000Y-48540000D03*
X93500000Y-48540000D03*
X93500000Y-46000000D03*
X93500000Y-43460000D03*
D10*
X93500000Y-40920000D03*
D14*
X116407898Y-90092102D03*
D15*
X120000000Y-86500000D03*
D10*
X168000000Y-108500000D03*
D16*
X147500000Y-38920000D03*
D17*
X147500000Y-41460000D03*
X147500000Y-44000000D03*
X147500000Y-46540000D03*
D16*
X147500000Y-49080000D03*
D17*
X147500000Y-51620000D03*
X147500000Y-54160000D03*
X147500000Y-56700000D03*
X170360000Y-56700000D03*
D16*
X170360000Y-54160000D03*
D17*
X170360000Y-51620000D03*
X170360000Y-49080000D03*
X170360000Y-46540000D03*
X170360000Y-44000000D03*
X170360000Y-41460000D03*
X170360000Y-38920000D03*
D10*
X155500000Y-70000000D03*
D14*
X157000000Y-75000000D03*
D18*
X162079999Y-75000000D03*
D14*
X112185000Y-81000000D03*
D18*
X117265000Y-81000000D03*
D10*
X163500000Y-108500000D03*
X93145800Y-95656300D03*
D11*
X93145800Y-98196300D03*
X93145800Y-100736300D03*
D10*
X93145800Y-65656300D03*
D11*
X93145800Y-68196300D03*
X93145800Y-70736300D03*
D10*
X111880000Y-121000000D03*
D11*
X114420000Y-121000000D03*
X116960000Y-121000000D03*
X119500000Y-121000000D03*
X122040000Y-121000000D03*
D19*
X150200000Y-104015000D03*
D20*
X150200000Y-101475000D03*
X150200000Y-98935000D03*
X150200000Y-96395000D03*
X150200000Y-93855000D03*
X150200000Y-91315000D03*
X150200000Y-88775000D03*
X150200000Y-86235000D03*
X150200000Y-83695000D03*
X150200000Y-81155000D03*
X150200000Y-78615000D03*
X150200000Y-76075000D03*
X150200000Y-73535000D03*
X150200000Y-70995000D03*
X150200000Y-68455000D03*
X124800000Y-68455000D03*
X124800000Y-70995000D03*
X124800000Y-73535000D03*
X124800000Y-76075000D03*
X124800000Y-78615000D03*
X124800000Y-81155000D03*
X124800000Y-83695000D03*
X124800000Y-86235000D03*
X124800000Y-88775000D03*
X124800000Y-91315000D03*
X124800000Y-93855000D03*
X124800000Y-96395000D03*
X124800000Y-98935000D03*
X124800000Y-101475000D03*
X124800000Y-104015000D03*
D21*
X171000000Y-71000000D03*
D14*
X173500000Y-71000000D03*
D10*
X177500000Y-41725000D03*
D11*
X177500000Y-44265000D03*
D14*
X111685000Y-65500000D03*
D18*
X116765000Y-65500000D03*
D10*
X155500000Y-80500000D03*
D22*
X170580000Y-56920000D02*
X170360000Y-56700000D01*
X91000000Y-120000000D02*
X91000000Y-97802100D01*
X93500000Y-48540000D02*
X91045800Y-50994200D01*
X91045800Y-67756300D02*
X91485800Y-68196300D01*
X111880000Y-121000000D02*
X92000000Y-121000000D01*
X172280000Y-72679138D02*
X171000000Y-71399138D01*
X91485800Y-98196300D02*
X91045800Y-97756300D01*
X172280000Y-120720000D02*
X170000000Y-123000000D01*
X91000000Y-97802100D02*
X91045800Y-97756300D01*
X116554209Y-111054209D02*
X111880000Y-115728419D01*
X91045800Y-68636300D02*
X91485800Y-68196300D01*
X171000000Y-71000000D02*
X171000000Y-57340000D01*
X92000000Y-121000000D02*
X91000000Y-120000000D01*
X123593419Y-104015000D02*
X117054209Y-110554209D01*
X91485800Y-68196300D02*
X93145800Y-68196300D01*
X124800000Y-104015000D02*
X123593419Y-104015000D01*
X172280000Y-118500000D02*
X172280000Y-72679138D01*
X128500000Y-123000000D02*
X116554209Y-111054209D01*
X171000000Y-71399138D02*
X171000000Y-71000000D01*
X93145800Y-98196300D02*
X91485800Y-98196300D01*
X170000000Y-123000000D02*
X128500000Y-123000000D01*
X117054209Y-110554209D02*
X116554209Y-111054209D01*
X172280000Y-118500000D02*
X172280000Y-120720000D01*
X111880000Y-115728419D02*
X111880000Y-121000000D01*
X91045800Y-50994200D02*
X91045800Y-67756300D01*
X171000000Y-57340000D02*
X170580000Y-56920000D01*
X91045800Y-97756300D02*
X91045800Y-68636300D01*
D23*
X162079999Y-75000000D02*
X162079999Y-76804999D01*
X162079999Y-76804999D02*
X168500000Y-83225000D01*
X152564000Y-37158000D02*
X172933000Y-37158000D01*
X172933000Y-37158000D02*
X177500000Y-41725000D01*
X147500000Y-41460000D02*
X148262000Y-41460000D01*
X148262000Y-41460000D02*
X152564000Y-37158000D01*
X95305000Y-112500000D02*
X116407898Y-91397102D01*
X116407898Y-91397102D02*
X116407898Y-90092102D01*
X134700000Y-52300000D02*
X130500000Y-56500000D01*
X130500000Y-94649213D02*
X126214213Y-98935000D01*
X130500000Y-56500000D02*
X130500000Y-94649213D01*
X126214213Y-98935000D02*
X124800000Y-98935000D01*
X134700000Y-48540000D02*
X134700000Y-52300000D01*
X134700000Y-46000000D02*
X133497919Y-46000000D01*
X127520000Y-51977919D02*
X127520000Y-90480000D01*
X126685000Y-91315000D02*
X124800000Y-91315000D01*
X133497919Y-46000000D02*
X127520000Y-51977919D01*
X127520000Y-90480000D02*
X126685000Y-91315000D01*
X134700000Y-46000000D02*
X134700000Y-43460000D01*
X124011572Y-93855000D02*
X124800000Y-93855000D01*
X132850000Y-40920000D02*
X114500000Y-59270000D01*
X134700000Y-40920000D02*
X132850000Y-40920000D01*
X114500000Y-84343428D02*
X124011572Y-93855000D01*
X114500000Y-59270000D02*
X114500000Y-84343428D01*
X151614213Y-83695000D02*
X150200000Y-83695000D01*
X154500000Y-86580787D02*
X151614213Y-83695000D01*
X154500000Y-118500000D02*
X154500000Y-86580787D01*
X153569213Y-66500000D02*
X151614213Y-68455000D01*
X151614213Y-68455000D02*
X150200000Y-68455000D01*
X159500000Y-66500000D02*
X153569213Y-66500000D01*
X159580000Y-115883704D02*
X159500000Y-115803704D01*
X159580000Y-118500000D02*
X159580000Y-115883704D01*
X159500000Y-115803704D02*
X159500000Y-66500000D01*
X157000000Y-86540787D02*
X151614213Y-81155000D01*
X151614213Y-81155000D02*
X150200000Y-81155000D01*
X157000000Y-115763704D02*
X157000000Y-86540787D01*
X157040000Y-115803704D02*
X157000000Y-115763704D01*
X157040000Y-118500000D02*
X157040000Y-115803704D01*
X157000000Y-75000000D02*
X155535000Y-73535000D01*
X155535000Y-73535000D02*
X150200000Y-73535000D01*
X152000000Y-119700000D02*
X152500000Y-119200000D01*
X152500000Y-119200000D02*
X152500000Y-87120787D01*
X162120000Y-118500000D02*
X162120000Y-121130000D01*
X152000000Y-121250000D02*
X152000000Y-119700000D01*
X162000000Y-121250000D02*
X152000000Y-121250000D01*
X151614213Y-86235000D02*
X150200000Y-86235000D01*
X162120000Y-121130000D02*
X162000000Y-121250000D01*
X152500000Y-87120787D02*
X151614213Y-86235000D01*
X107802100Y-81000000D02*
X93145800Y-95656300D01*
X112185000Y-81000000D02*
X107802100Y-81000000D01*
X170360000Y-46540000D02*
X165083019Y-46540000D01*
X149275000Y-88775000D02*
X150200000Y-88775000D01*
X147530000Y-64093019D02*
X147530000Y-87030000D01*
X165083019Y-46540000D02*
X147530000Y-64093019D01*
X147530000Y-87030000D02*
X149275000Y-88775000D01*
X167200000Y-118500000D02*
X167200000Y-116800000D01*
X168000000Y-116000000D02*
X168000000Y-108500000D01*
X167200000Y-116800000D02*
X168000000Y-116000000D01*
X148785787Y-91315000D02*
X150200000Y-91315000D01*
X142500000Y-66500000D02*
X142500000Y-85029213D01*
X165000000Y-44000000D02*
X142500000Y-66500000D01*
X170360000Y-44000000D02*
X165000000Y-44000000D01*
X142500000Y-85029213D02*
X148785787Y-91315000D01*
X124535000Y-86500000D02*
X124800000Y-86235000D01*
X120000000Y-86500000D02*
X124535000Y-86500000D01*
X164660000Y-109660000D02*
X163500000Y-108500000D01*
X164660000Y-118500000D02*
X164660000Y-109660000D01*
X150200000Y-78615000D02*
X153615000Y-78615000D01*
X153615000Y-78615000D02*
X155500000Y-80500000D01*
X124300000Y-84195000D02*
X120460000Y-84195000D01*
X124800000Y-83695000D02*
X124300000Y-84195000D01*
X120460000Y-84195000D02*
X117265000Y-81000000D01*
X124800000Y-81155000D02*
X122885787Y-81155000D01*
X116765000Y-75034213D02*
X116765000Y-65500000D01*
X122885787Y-81155000D02*
X116765000Y-75034213D01*
X154505000Y-70995000D02*
X155500000Y-70000000D01*
X150200000Y-70995000D02*
X154505000Y-70995000D01*
G04 #@! TA.AperFunction,Conductor*
G36*
X178442539Y-35520185D02*
G01*
X178488294Y-35572989D01*
X178499500Y-35624500D01*
X178499500Y-40250500D01*
X178479815Y-40317539D01*
X178427011Y-40363294D01*
X178375500Y-40374500D01*
X177615783Y-40374500D01*
X177548744Y-40354815D01*
X177528102Y-40338181D01*
X173717209Y-36527289D01*
X173717206Y-36527285D01*
X173717206Y-36527286D01*
X173710139Y-36520219D01*
X173710139Y-36520218D01*
X173570782Y-36380861D01*
X173570781Y-36380860D01*
X173570780Y-36380859D01*
X173406920Y-36271371D01*
X173406911Y-36271366D01*
X173334315Y-36241296D01*
X173278165Y-36218038D01*
X173224836Y-36195949D01*
X173224832Y-36195948D01*
X173224828Y-36195946D01*
X173128188Y-36176724D01*
X173031544Y-36157500D01*
X173031541Y-36157500D01*
X152465459Y-36157500D01*
X152465455Y-36157500D01*
X152368812Y-36176724D01*
X152272167Y-36195947D01*
X152272161Y-36195949D01*
X152218834Y-36218037D01*
X152218834Y-36218038D01*
X152175918Y-36235814D01*
X152090084Y-36271368D01*
X152090083Y-36271368D01*
X151967045Y-36353579D01*
X151967046Y-36353580D01*
X151926218Y-36380859D01*
X151926215Y-36380862D01*
X148974180Y-39332898D01*
X148912857Y-39366383D01*
X148843165Y-39361399D01*
X148787232Y-39319527D01*
X148762815Y-39254063D01*
X148762499Y-39245217D01*
X148762499Y-38110129D01*
X148762498Y-38110123D01*
X148762497Y-38110116D01*
X148756091Y-38050517D01*
X148705796Y-37915669D01*
X148705795Y-37915668D01*
X148705793Y-37915664D01*
X148619547Y-37800455D01*
X148619544Y-37800452D01*
X148504335Y-37714206D01*
X148504328Y-37714202D01*
X148369482Y-37663908D01*
X148369483Y-37663908D01*
X148309883Y-37657501D01*
X148309881Y-37657500D01*
X148309873Y-37657500D01*
X148309864Y-37657500D01*
X146690129Y-37657500D01*
X146690123Y-37657501D01*
X146630516Y-37663908D01*
X146495671Y-37714202D01*
X146495664Y-37714206D01*
X146380455Y-37800452D01*
X146380452Y-37800455D01*
X146294206Y-37915664D01*
X146294202Y-37915671D01*
X146243908Y-38050517D01*
X146237501Y-38110116D01*
X146237501Y-38110123D01*
X146237500Y-38110135D01*
X146237500Y-39729870D01*
X146237501Y-39729876D01*
X146243908Y-39789483D01*
X146294202Y-39924328D01*
X146294206Y-39924335D01*
X146380452Y-40039544D01*
X146380453Y-40039544D01*
X146380454Y-40039546D01*
X146383858Y-40042094D01*
X146386406Y-40045498D01*
X146386725Y-40045817D01*
X146386679Y-40045862D01*
X146425729Y-40098029D01*
X146430712Y-40167720D01*
X146397226Y-40229043D01*
X146347864Y-40259291D01*
X146253370Y-40289993D01*
X146253367Y-40289994D01*
X146076305Y-40380213D01*
X145915533Y-40497021D01*
X145775021Y-40637533D01*
X145658213Y-40798305D01*
X145567994Y-40975367D01*
X145567993Y-40975370D01*
X145506587Y-41164362D01*
X145475500Y-41360639D01*
X145475500Y-41559360D01*
X145506587Y-41755637D01*
X145567993Y-41944629D01*
X145567994Y-41944632D01*
X145649371Y-42104341D01*
X145658213Y-42121694D01*
X145775019Y-42282464D01*
X145915536Y-42422981D01*
X146076306Y-42539787D01*
X146194832Y-42600179D01*
X146232780Y-42619515D01*
X146283576Y-42667490D01*
X146300371Y-42735311D01*
X146277833Y-42801446D01*
X146232780Y-42840485D01*
X146076305Y-42920213D01*
X145915533Y-43037021D01*
X145775021Y-43177533D01*
X145658213Y-43338305D01*
X145567994Y-43515367D01*
X145567993Y-43515370D01*
X145506587Y-43704362D01*
X145475500Y-43900639D01*
X145475500Y-44099360D01*
X145506587Y-44295637D01*
X145567993Y-44484629D01*
X145567994Y-44484632D01*
X145644120Y-44634035D01*
X145658213Y-44661694D01*
X145775019Y-44822464D01*
X145915536Y-44962981D01*
X146076306Y-45079787D01*
X146142218Y-45113371D01*
X146232780Y-45159515D01*
X146283576Y-45207490D01*
X146300371Y-45275311D01*
X146277833Y-45341446D01*
X146232780Y-45380485D01*
X146076305Y-45460213D01*
X145915533Y-45577021D01*
X145775021Y-45717533D01*
X145658213Y-45878305D01*
X145567994Y-46055367D01*
X145567993Y-46055370D01*
X145506587Y-46244362D01*
X145475500Y-46440639D01*
X145475500Y-46639360D01*
X145506587Y-46835637D01*
X145567993Y-47024629D01*
X145567994Y-47024632D01*
X145644120Y-47174035D01*
X145658213Y-47201694D01*
X145775019Y-47362464D01*
X145915536Y-47502981D01*
X146076306Y-47619787D01*
X146163149Y-47664035D01*
X146253367Y-47710005D01*
X146253373Y-47710007D01*
X146347863Y-47740708D01*
X146405539Y-47780145D01*
X146432738Y-47844503D01*
X146420824Y-47913349D01*
X146383864Y-47957900D01*
X146380457Y-47960450D01*
X146380452Y-47960455D01*
X146294206Y-48075664D01*
X146294202Y-48075671D01*
X146243908Y-48210517D01*
X146237501Y-48270116D01*
X146237501Y-48270123D01*
X146237500Y-48270135D01*
X146237500Y-49889870D01*
X146237501Y-49889876D01*
X146243908Y-49949483D01*
X146294202Y-50084328D01*
X146294206Y-50084335D01*
X146380452Y-50199544D01*
X146380453Y-50199544D01*
X146380454Y-50199546D01*
X146383854Y-50202091D01*
X146383858Y-50202094D01*
X146386406Y-50205498D01*
X146386725Y-50205817D01*
X146386679Y-50205862D01*
X146425729Y-50258029D01*
X146430712Y-50327720D01*
X146397226Y-50389043D01*
X146347864Y-50419291D01*
X146253370Y-50449993D01*
X146253367Y-50449994D01*
X146076305Y-50540213D01*
X145915533Y-50657021D01*
X145775021Y-50797533D01*
X145658213Y-50958305D01*
X145567994Y-51135367D01*
X145567993Y-51135370D01*
X145506587Y-51324362D01*
X145475500Y-51520639D01*
X145475500Y-51719360D01*
X145506587Y-51915637D01*
X145567993Y-52104629D01*
X145567994Y-52104632D01*
X145658213Y-52281694D01*
X145775019Y-52442464D01*
X145915536Y-52582981D01*
X146076306Y-52699787D01*
X146194832Y-52760179D01*
X146232780Y-52779515D01*
X146283576Y-52827490D01*
X146300371Y-52895311D01*
X146277833Y-52961446D01*
X146232780Y-53000485D01*
X146076305Y-53080213D01*
X145915533Y-53197021D01*
X145775021Y-53337533D01*
X145658213Y-53498305D01*
X145567994Y-53675367D01*
X145567993Y-53675370D01*
X145506587Y-53864362D01*
X145475500Y-54060639D01*
X145475500Y-54259360D01*
X145506587Y-54455637D01*
X145567993Y-54644629D01*
X145567994Y-54644632D01*
X145658213Y-54821694D01*
X145775019Y-54982464D01*
X145915536Y-55122981D01*
X146076306Y-55239787D01*
X146158963Y-55281903D01*
X146232780Y-55319515D01*
X146283576Y-55367490D01*
X146300371Y-55435311D01*
X146277833Y-55501446D01*
X146232780Y-55540485D01*
X146076305Y-55620213D01*
X145915533Y-55737021D01*
X145775021Y-55877533D01*
X145658213Y-56038305D01*
X145567994Y-56215367D01*
X145567993Y-56215370D01*
X145506587Y-56404362D01*
X145475500Y-56600639D01*
X145475500Y-56799360D01*
X145506587Y-56995637D01*
X145567993Y-57184629D01*
X145567994Y-57184632D01*
X145624667Y-57295857D01*
X145658213Y-57361694D01*
X145775019Y-57522464D01*
X145915536Y-57662981D01*
X146076306Y-57779787D01*
X146163149Y-57824035D01*
X146253367Y-57870005D01*
X146253370Y-57870006D01*
X146347866Y-57900709D01*
X146442364Y-57931413D01*
X146638639Y-57962500D01*
X146638640Y-57962500D01*
X148361360Y-57962500D01*
X148361361Y-57962500D01*
X148557636Y-57931413D01*
X148746632Y-57870005D01*
X148923694Y-57779787D01*
X149084464Y-57662981D01*
X149224981Y-57522464D01*
X149341787Y-57361694D01*
X149432005Y-57184632D01*
X149493413Y-56995636D01*
X149524500Y-56799361D01*
X149524500Y-56600639D01*
X149493413Y-56404364D01*
X149432005Y-56215368D01*
X149432005Y-56215367D01*
X149341786Y-56038305D01*
X149332913Y-56026092D01*
X149224981Y-55877536D01*
X149084464Y-55737019D01*
X148923694Y-55620213D01*
X148767218Y-55540484D01*
X148716423Y-55492510D01*
X148699628Y-55424689D01*
X148722165Y-55358554D01*
X148767218Y-55319515D01*
X148923694Y-55239787D01*
X149084464Y-55122981D01*
X149224981Y-54982464D01*
X149341787Y-54821694D01*
X149432005Y-54644632D01*
X149493413Y-54455636D01*
X149524500Y-54259361D01*
X149524500Y-54060639D01*
X149493413Y-53864364D01*
X149432005Y-53675368D01*
X149432005Y-53675367D01*
X149341786Y-53498305D01*
X149224981Y-53337536D01*
X149084464Y-53197019D01*
X148923694Y-53080213D01*
X148767218Y-53000484D01*
X148716423Y-52952510D01*
X148699628Y-52884689D01*
X148722165Y-52818554D01*
X148767218Y-52779515D01*
X148923694Y-52699787D01*
X149084464Y-52582981D01*
X149224981Y-52442464D01*
X149341787Y-52281694D01*
X149432005Y-52104632D01*
X149493413Y-51915636D01*
X149524500Y-51719361D01*
X149524500Y-51520639D01*
X149493413Y-51324364D01*
X149453259Y-51200781D01*
X149432006Y-51135370D01*
X149432005Y-51135367D01*
X149341786Y-50958305D01*
X149296357Y-50895777D01*
X149224981Y-50797536D01*
X149084464Y-50657019D01*
X148923694Y-50540213D01*
X148872590Y-50514174D01*
X148746632Y-50449994D01*
X148746629Y-50449993D01*
X148652135Y-50419291D01*
X148594460Y-50379854D01*
X148567261Y-50315495D01*
X148579175Y-50246649D01*
X148616142Y-50202093D01*
X148619546Y-50199546D01*
X148705796Y-50084331D01*
X148756091Y-49949483D01*
X148762500Y-49889873D01*
X148762499Y-48270128D01*
X148756091Y-48210517D01*
X148721219Y-48117021D01*
X148705797Y-48075671D01*
X148705793Y-48075664D01*
X148619547Y-47960456D01*
X148619548Y-47960456D01*
X148619546Y-47960454D01*
X148616138Y-47957902D01*
X148613588Y-47954496D01*
X148613275Y-47954183D01*
X148613320Y-47954137D01*
X148574270Y-47901969D01*
X148569288Y-47832277D01*
X148602775Y-47770955D01*
X148652134Y-47740708D01*
X148746632Y-47710005D01*
X148923694Y-47619787D01*
X149084464Y-47502981D01*
X149224981Y-47362464D01*
X149341787Y-47201694D01*
X149432005Y-47024632D01*
X149493413Y-46835636D01*
X149524500Y-46639361D01*
X149524500Y-46440639D01*
X149493413Y-46244364D01*
X149432005Y-46055368D01*
X149432005Y-46055367D01*
X149341786Y-45878305D01*
X149224981Y-45717536D01*
X149084464Y-45577019D01*
X148923694Y-45460213D01*
X148767218Y-45380484D01*
X148716423Y-45332510D01*
X148699628Y-45264689D01*
X148722165Y-45198554D01*
X148767218Y-45159515D01*
X148923694Y-45079787D01*
X149084464Y-44962981D01*
X149224981Y-44822464D01*
X149341787Y-44661694D01*
X149432005Y-44484632D01*
X149493413Y-44295636D01*
X149524500Y-44099361D01*
X149524500Y-43900639D01*
X149493413Y-43704364D01*
X149432005Y-43515368D01*
X149432005Y-43515367D01*
X149353972Y-43362221D01*
X149341787Y-43338306D01*
X149224981Y-43177536D01*
X149084464Y-43037019D01*
X148923694Y-42920213D01*
X148767218Y-42840484D01*
X148716423Y-42792510D01*
X148699628Y-42724689D01*
X148722165Y-42658554D01*
X148767218Y-42619515D01*
X148923694Y-42539787D01*
X149084464Y-42422981D01*
X149224981Y-42282464D01*
X149341787Y-42121694D01*
X149432005Y-41944632D01*
X149493413Y-41755636D01*
X149508212Y-41662194D01*
X149538139Y-41599064D01*
X149542985Y-41593933D01*
X152942102Y-38194819D01*
X153003425Y-38161334D01*
X153029783Y-38158500D01*
X168366717Y-38158500D01*
X168433756Y-38178185D01*
X168479511Y-38230989D01*
X168489455Y-38300147D01*
X168477201Y-38338795D01*
X168427999Y-38435357D01*
X168427993Y-38435370D01*
X168366587Y-38624362D01*
X168335500Y-38820639D01*
X168335500Y-39019360D01*
X168366587Y-39215637D01*
X168427993Y-39404629D01*
X168427994Y-39404632D01*
X168499302Y-39544579D01*
X168518213Y-39581694D01*
X168635019Y-39742464D01*
X168775536Y-39882981D01*
X168936306Y-39999787D01*
X169026645Y-40045817D01*
X169092780Y-40079515D01*
X169143576Y-40127490D01*
X169160371Y-40195311D01*
X169137833Y-40261446D01*
X169092780Y-40300485D01*
X168936305Y-40380213D01*
X168775533Y-40497021D01*
X168635021Y-40637533D01*
X168518213Y-40798305D01*
X168427994Y-40975367D01*
X168427993Y-40975370D01*
X168366587Y-41164362D01*
X168335500Y-41360639D01*
X168335500Y-41559360D01*
X168366587Y-41755637D01*
X168427993Y-41944629D01*
X168427994Y-41944632D01*
X168509371Y-42104341D01*
X168518213Y-42121694D01*
X168635019Y-42282464D01*
X168775536Y-42422981D01*
X168936306Y-42539787D01*
X169054832Y-42600179D01*
X169092780Y-42619515D01*
X169143576Y-42667490D01*
X169160371Y-42735311D01*
X169137833Y-42801446D01*
X169092780Y-42840485D01*
X168936305Y-42920213D01*
X168887900Y-42955381D01*
X168859771Y-42975818D01*
X168793967Y-42999298D01*
X168786887Y-42999500D01*
X164901455Y-42999500D01*
X164804812Y-43018724D01*
X164708167Y-43037947D01*
X164708161Y-43037949D01*
X164654834Y-43060037D01*
X164654834Y-43060038D01*
X164617506Y-43075500D01*
X164526089Y-43113366D01*
X164526079Y-43113371D01*
X164362219Y-43222859D01*
X164313214Y-43271865D01*
X164222861Y-43362218D01*
X164222858Y-43362221D01*
X141862221Y-65722858D01*
X141862218Y-65722861D01*
X141792538Y-65792540D01*
X141722859Y-65862219D01*
X141613371Y-66026079D01*
X141613364Y-66026092D01*
X141537950Y-66208160D01*
X141537947Y-66208170D01*
X141499500Y-66401456D01*
X141499500Y-85127757D01*
X141537947Y-85321041D01*
X141537949Y-85321049D01*
X141557990Y-85369432D01*
X141557990Y-85369433D01*
X141613364Y-85503120D01*
X141613371Y-85503133D01*
X141722860Y-85666994D01*
X141722863Y-85666998D01*
X141866537Y-85810672D01*
X141866559Y-85810692D01*
X148005522Y-91949655D01*
X148005551Y-91949686D01*
X148148001Y-92092136D01*
X148148005Y-92092139D01*
X148311866Y-92201628D01*
X148311879Y-92201635D01*
X148440620Y-92254961D01*
X148493946Y-92277049D01*
X148493951Y-92277051D01*
X148527549Y-92283734D01*
X148567473Y-92291675D01*
X148687243Y-92315500D01*
X148687246Y-92315500D01*
X148687247Y-92315500D01*
X148884327Y-92315500D01*
X149027145Y-92315500D01*
X149094184Y-92335185D01*
X149118374Y-92355517D01*
X149180199Y-92422676D01*
X149180256Y-92422738D01*
X149263008Y-92487147D01*
X149303821Y-92543857D01*
X149307496Y-92613630D01*
X149272864Y-92674313D01*
X149263014Y-92682848D01*
X149204400Y-92728469D01*
X149180257Y-92747261D01*
X149011833Y-92930217D01*
X148875826Y-93138393D01*
X148775936Y-93366118D01*
X148714892Y-93607175D01*
X148714890Y-93607187D01*
X148694357Y-93854994D01*
X148694357Y-93855005D01*
X148714890Y-94102812D01*
X148714892Y-94102824D01*
X148775936Y-94343881D01*
X148875826Y-94571606D01*
X149011833Y-94779782D01*
X149011836Y-94779785D01*
X149180256Y-94962738D01*
X149263008Y-95027147D01*
X149303821Y-95083857D01*
X149307496Y-95153630D01*
X149272864Y-95214313D01*
X149263014Y-95222848D01*
X149204400Y-95268469D01*
X149180257Y-95287261D01*
X149011833Y-95470217D01*
X148875826Y-95678393D01*
X148775936Y-95906118D01*
X148714892Y-96147175D01*
X148714890Y-96147187D01*
X148694357Y-96394994D01*
X148694357Y-96395005D01*
X148714890Y-96642812D01*
X148714892Y-96642824D01*
X148775936Y-96883881D01*
X148875826Y-97111606D01*
X149011833Y-97319782D01*
X149044245Y-97354991D01*
X149180256Y-97502738D01*
X149263008Y-97567147D01*
X149303821Y-97623857D01*
X149307496Y-97693630D01*
X149272864Y-97754313D01*
X149263014Y-97762848D01*
X149230656Y-97788034D01*
X149180257Y-97827261D01*
X149011833Y-98010217D01*
X148875826Y-98218393D01*
X148775936Y-98446118D01*
X148714892Y-98687175D01*
X148714890Y-98687187D01*
X148694357Y-98934994D01*
X148694357Y-98935005D01*
X148714890Y-99182812D01*
X148714892Y-99182824D01*
X148775936Y-99423881D01*
X148875826Y-99651606D01*
X149011833Y-99859782D01*
X149011836Y-99859785D01*
X149180256Y-100042738D01*
X149257502Y-100102861D01*
X149283745Y-100123287D01*
X149324558Y-100179997D01*
X149331344Y-100228823D01*
X149329943Y-100251389D01*
X150062425Y-100983871D01*
X150003147Y-100999755D01*
X149886853Y-101066898D01*
X149791898Y-101161853D01*
X149724755Y-101278147D01*
X149708871Y-101337425D01*
X148976563Y-100605117D01*
X148876267Y-100758633D01*
X148876265Y-100758637D01*
X148776412Y-100986282D01*
X148715387Y-101227261D01*
X148715385Y-101227270D01*
X148694859Y-101474994D01*
X148694859Y-101475000D01*
X148715385Y-101722729D01*
X148715387Y-101722738D01*
X148776412Y-101963717D01*
X148876267Y-102191367D01*
X149007182Y-102391748D01*
X149027369Y-102458637D01*
X149008189Y-102525823D01*
X148962806Y-102568398D01*
X148957667Y-102571204D01*
X148842455Y-102657452D01*
X148842452Y-102657455D01*
X148756206Y-102772664D01*
X148756202Y-102772671D01*
X148705908Y-102907517D01*
X148699501Y-102967116D01*
X148699500Y-102967135D01*
X148699500Y-105062870D01*
X148699501Y-105062876D01*
X148705908Y-105122483D01*
X148756202Y-105257328D01*
X148756206Y-105257335D01*
X148842452Y-105372544D01*
X148842455Y-105372547D01*
X148957664Y-105458793D01*
X148957671Y-105458797D01*
X149092517Y-105509091D01*
X149092516Y-105509091D01*
X149099444Y-105509835D01*
X149152127Y-105515500D01*
X151247872Y-105515499D01*
X151307483Y-105509091D01*
X151332165Y-105499884D01*
X151401856Y-105494899D01*
X151463180Y-105528384D01*
X151496666Y-105589706D01*
X151499500Y-105616066D01*
X151499500Y-110989487D01*
X151479815Y-111056526D01*
X151427011Y-111102281D01*
X151357853Y-111112225D01*
X151294297Y-111083200D01*
X151268114Y-111051490D01*
X151238611Y-111000388D01*
X151238607Y-111000383D01*
X151238605Y-111000379D01*
X151098918Y-110818338D01*
X151098911Y-110818330D01*
X150936670Y-110656089D01*
X150936661Y-110656081D01*
X150754617Y-110516392D01*
X150555890Y-110401657D01*
X150555876Y-110401650D01*
X150343887Y-110313842D01*
X150122238Y-110254452D01*
X150084215Y-110249446D01*
X149894741Y-110224500D01*
X149894734Y-110224500D01*
X149665266Y-110224500D01*
X149665258Y-110224500D01*
X149448715Y-110253009D01*
X149437762Y-110254452D01*
X149344076Y-110279554D01*
X149216112Y-110313842D01*
X149004123Y-110401650D01*
X149004109Y-110401657D01*
X148805382Y-110516392D01*
X148623338Y-110656081D01*
X148461081Y-110818338D01*
X148321392Y-111000382D01*
X148206657Y-111199109D01*
X148206650Y-111199123D01*
X148118842Y-111411112D01*
X148059453Y-111632759D01*
X148059451Y-111632770D01*
X148029500Y-111860258D01*
X148029500Y-112089741D01*
X148048085Y-112230897D01*
X148059452Y-112317238D01*
X148118842Y-112538887D01*
X148206650Y-112750876D01*
X148206656Y-112750888D01*
X148291886Y-112898512D01*
X148321392Y-112949617D01*
X148461081Y-113131661D01*
X148461089Y-113131670D01*
X148623330Y-113293911D01*
X148623338Y-113293918D01*
X148805382Y-113433607D01*
X148805385Y-113433608D01*
X148805388Y-113433611D01*
X149004112Y-113548344D01*
X149004117Y-113548346D01*
X149004123Y-113548349D01*
X149095480Y-113586190D01*
X149216113Y-113636158D01*
X149437762Y-113695548D01*
X149665266Y-113725500D01*
X149665273Y-113725500D01*
X149894727Y-113725500D01*
X149894734Y-113725500D01*
X150122238Y-113695548D01*
X150343887Y-113636158D01*
X150555888Y-113548344D01*
X150754612Y-113433611D01*
X150936661Y-113293919D01*
X150936665Y-113293914D01*
X150936670Y-113293911D01*
X151098911Y-113131670D01*
X151098914Y-113131665D01*
X151098919Y-113131661D01*
X151238611Y-112949612D01*
X151268114Y-112898510D01*
X151318680Y-112850296D01*
X151387287Y-112837073D01*
X151452152Y-112863041D01*
X151492680Y-112919956D01*
X151499500Y-112960512D01*
X151499500Y-118734217D01*
X151479815Y-118801256D01*
X151463181Y-118821898D01*
X151384980Y-118900099D01*
X151362221Y-118922858D01*
X151362218Y-118922861D01*
X151321424Y-118963655D01*
X151222859Y-119062219D01*
X151113371Y-119226080D01*
X151113364Y-119226093D01*
X151076686Y-119314645D01*
X151076686Y-119314646D01*
X151037949Y-119408162D01*
X151032730Y-119434400D01*
X151021306Y-119491835D01*
X150999500Y-119601456D01*
X150999500Y-119601459D01*
X150999500Y-121151459D01*
X150999500Y-121348541D01*
X150999500Y-121348543D01*
X150999499Y-121348543D01*
X151037947Y-121541829D01*
X151037949Y-121541834D01*
X151052949Y-121578049D01*
X151060416Y-121647518D01*
X151029141Y-121709997D01*
X150969051Y-121745649D01*
X150938387Y-121749500D01*
X129069336Y-121749500D01*
X129002297Y-121729815D01*
X128981655Y-121713181D01*
X119128732Y-111860258D01*
X123519500Y-111860258D01*
X123519500Y-112089741D01*
X123538085Y-112230897D01*
X123549452Y-112317238D01*
X123608842Y-112538887D01*
X123696650Y-112750876D01*
X123696656Y-112750888D01*
X123781886Y-112898512D01*
X123811392Y-112949617D01*
X123951081Y-113131661D01*
X123951089Y-113131670D01*
X124113330Y-113293911D01*
X124113338Y-113293918D01*
X124295382Y-113433607D01*
X124295385Y-113433608D01*
X124295388Y-113433611D01*
X124494112Y-113548344D01*
X124494117Y-113548346D01*
X124494123Y-113548349D01*
X124585480Y-113586190D01*
X124706113Y-113636158D01*
X124927762Y-113695548D01*
X125155266Y-113725500D01*
X125155273Y-113725500D01*
X125384727Y-113725500D01*
X125384734Y-113725500D01*
X125612238Y-113695548D01*
X125833887Y-113636158D01*
X126045888Y-113548344D01*
X126244612Y-113433611D01*
X126426661Y-113293919D01*
X126426665Y-113293914D01*
X126426670Y-113293911D01*
X126588911Y-113131670D01*
X126588914Y-113131665D01*
X126588919Y-113131661D01*
X126728611Y-112949612D01*
X126843344Y-112750888D01*
X126931158Y-112538887D01*
X126990548Y-112317238D01*
X127020500Y-112089734D01*
X127020500Y-111860266D01*
X126990548Y-111632762D01*
X126931158Y-111411113D01*
X126843344Y-111199112D01*
X126728611Y-111000388D01*
X126728608Y-111000385D01*
X126728607Y-111000382D01*
X126588918Y-110818338D01*
X126588911Y-110818330D01*
X126426670Y-110656089D01*
X126426661Y-110656081D01*
X126244617Y-110516392D01*
X126045890Y-110401657D01*
X126045876Y-110401650D01*
X125833887Y-110313842D01*
X125612238Y-110254452D01*
X125574215Y-110249446D01*
X125384741Y-110224500D01*
X125384734Y-110224500D01*
X125155266Y-110224500D01*
X125155258Y-110224500D01*
X124938715Y-110253009D01*
X124927762Y-110254452D01*
X124834076Y-110279554D01*
X124706112Y-110313842D01*
X124494123Y-110401650D01*
X124494109Y-110401657D01*
X124295382Y-110516392D01*
X124113338Y-110656081D01*
X123951081Y-110818338D01*
X123811392Y-111000382D01*
X123696657Y-111199109D01*
X123696650Y-111199123D01*
X123608842Y-111411112D01*
X123549453Y-111632759D01*
X123549451Y-111632770D01*
X123519500Y-111860258D01*
X119128732Y-111860258D01*
X118410364Y-111141890D01*
X118376879Y-111080567D01*
X118381863Y-111010875D01*
X118410364Y-110966528D01*
X120992676Y-108384216D01*
X123992171Y-105384720D01*
X124053492Y-105351237D01*
X124123184Y-105356221D01*
X124138867Y-105363348D01*
X124155866Y-105372547D01*
X124195190Y-105393828D01*
X124430386Y-105474571D01*
X124675665Y-105515500D01*
X124924335Y-105515500D01*
X125169614Y-105474571D01*
X125404810Y-105393828D01*
X125623509Y-105275474D01*
X125819744Y-105122738D01*
X125988164Y-104939785D01*
X126124173Y-104731607D01*
X126224063Y-104503881D01*
X126285108Y-104262821D01*
X126305643Y-104015000D01*
X126285108Y-103767179D01*
X126224063Y-103526119D01*
X126124173Y-103298393D01*
X125988166Y-103090217D01*
X125961427Y-103061171D01*
X125819744Y-102907262D01*
X125754032Y-102856116D01*
X125716254Y-102826712D01*
X125675441Y-102770002D01*
X125668655Y-102721176D01*
X125670055Y-102698608D01*
X124937574Y-101966128D01*
X124996853Y-101950245D01*
X125113147Y-101883102D01*
X125208102Y-101788147D01*
X125275245Y-101671853D01*
X125291128Y-101612575D01*
X126023435Y-102344882D01*
X126123733Y-102191364D01*
X126223587Y-101963717D01*
X126284612Y-101722738D01*
X126284614Y-101722729D01*
X126305141Y-101475000D01*
X126305141Y-101474994D01*
X126284614Y-101227270D01*
X126284612Y-101227261D01*
X126223587Y-100986282D01*
X126123732Y-100758632D01*
X126023435Y-100605116D01*
X125291128Y-101337424D01*
X125275245Y-101278147D01*
X125208102Y-101161853D01*
X125113147Y-101066898D01*
X124996853Y-100999755D01*
X124937574Y-100983871D01*
X125670055Y-100251389D01*
X125668654Y-100228825D01*
X125684146Y-100160694D01*
X125716249Y-100123290D01*
X125819744Y-100042738D01*
X125844194Y-100016177D01*
X125881626Y-99975517D01*
X125941513Y-99939526D01*
X125972855Y-99935500D01*
X126312756Y-99935500D01*
X126409388Y-99916278D01*
X126457706Y-99906667D01*
X126506049Y-99897051D01*
X126559378Y-99874961D01*
X126688127Y-99821632D01*
X126851995Y-99712139D01*
X126991352Y-99572782D01*
X126991353Y-99572779D01*
X126998419Y-99565714D01*
X126998422Y-99565710D01*
X131137778Y-95426354D01*
X131137782Y-95426352D01*
X131277139Y-95286995D01*
X131386632Y-95123127D01*
X131462051Y-94941048D01*
X131494129Y-94779782D01*
X131500500Y-94747756D01*
X131500500Y-56965781D01*
X131520185Y-56898742D01*
X131536814Y-56878105D01*
X135337778Y-53077141D01*
X135337782Y-53077139D01*
X135477139Y-52937782D01*
X135586632Y-52773914D01*
X135662051Y-52591835D01*
X135700500Y-52398541D01*
X135700500Y-49500758D01*
X135720185Y-49433719D01*
X135736819Y-49413077D01*
X135738495Y-49411401D01*
X135874035Y-49217830D01*
X135973903Y-49003663D01*
X136035063Y-48775408D01*
X136055659Y-48540000D01*
X136035063Y-48304592D01*
X135973903Y-48076337D01*
X135874035Y-47862171D01*
X135864524Y-47848587D01*
X135738494Y-47668597D01*
X135571402Y-47501506D01*
X135571396Y-47501501D01*
X135385842Y-47371575D01*
X135342217Y-47316998D01*
X135335023Y-47247500D01*
X135366546Y-47185145D01*
X135385842Y-47168425D01*
X135459266Y-47117013D01*
X135571401Y-47038495D01*
X135738495Y-46871401D01*
X135874035Y-46677830D01*
X135973903Y-46463663D01*
X136035063Y-46235408D01*
X136055659Y-46000000D01*
X136035063Y-45764592D01*
X135974750Y-45539499D01*
X135973905Y-45536344D01*
X135973904Y-45536343D01*
X135973903Y-45536337D01*
X135874035Y-45322171D01*
X135864524Y-45308587D01*
X135738494Y-45128597D01*
X135736819Y-45126922D01*
X135736315Y-45126000D01*
X135735014Y-45124449D01*
X135735325Y-45124187D01*
X135703334Y-45065599D01*
X135700500Y-45039241D01*
X135700500Y-44420758D01*
X135720185Y-44353719D01*
X135736819Y-44333077D01*
X135738495Y-44331401D01*
X135874035Y-44137830D01*
X135973903Y-43923663D01*
X136035063Y-43695408D01*
X136055659Y-43460000D01*
X136035063Y-43224592D01*
X135974751Y-42999500D01*
X135973905Y-42996344D01*
X135973904Y-42996343D01*
X135973903Y-42996337D01*
X135874035Y-42782171D01*
X135864523Y-42768587D01*
X135738496Y-42588600D01*
X135689682Y-42539786D01*
X135616567Y-42466671D01*
X135583084Y-42405351D01*
X135588068Y-42335659D01*
X135629939Y-42279725D01*
X135660915Y-42262810D01*
X135792331Y-42213796D01*
X135907546Y-42127546D01*
X135993796Y-42012331D01*
X136044091Y-41877483D01*
X136050500Y-41817873D01*
X136050499Y-40022128D01*
X136044091Y-39962517D01*
X136042387Y-39957949D01*
X135993797Y-39827671D01*
X135993793Y-39827664D01*
X135907547Y-39712455D01*
X135907544Y-39712452D01*
X135792335Y-39626206D01*
X135792328Y-39626202D01*
X135657482Y-39575908D01*
X135657483Y-39575908D01*
X135597883Y-39569501D01*
X135597881Y-39569500D01*
X135597873Y-39569500D01*
X135597864Y-39569500D01*
X133802129Y-39569500D01*
X133802123Y-39569501D01*
X133742516Y-39575908D01*
X133607671Y-39626202D01*
X133607664Y-39626206D01*
X133492455Y-39712452D01*
X133492452Y-39712455D01*
X133406206Y-39827664D01*
X133406204Y-39827668D01*
X133406204Y-39827669D01*
X133402039Y-39838834D01*
X133360171Y-39894766D01*
X133294707Y-39919184D01*
X133285859Y-39919500D01*
X132751455Y-39919500D01*
X132654812Y-39938724D01*
X132558167Y-39957947D01*
X132558161Y-39957949D01*
X132504834Y-39980037D01*
X132504834Y-39980038D01*
X132459315Y-39998892D01*
X132376089Y-40033366D01*
X132376079Y-40033371D01*
X132212219Y-40142859D01*
X132172580Y-40182499D01*
X132072861Y-40282218D01*
X132072858Y-40282221D01*
X113862221Y-58492858D01*
X113862218Y-58492861D01*
X113792538Y-58562540D01*
X113722859Y-58632219D01*
X113613371Y-58796079D01*
X113613364Y-58796092D01*
X113537950Y-58978160D01*
X113537947Y-58978170D01*
X113499500Y-59171456D01*
X113499500Y-80216670D01*
X113479815Y-80283709D01*
X113427011Y-80329464D01*
X113357853Y-80339408D01*
X113294297Y-80310383D01*
X113273925Y-80287793D01*
X113185045Y-80160858D01*
X113024141Y-79999954D01*
X112837734Y-79869432D01*
X112837732Y-79869431D01*
X112631497Y-79773261D01*
X112631488Y-79773258D01*
X112411697Y-79714366D01*
X112411693Y-79714365D01*
X112411692Y-79714365D01*
X112411691Y-79714364D01*
X112411686Y-79714364D01*
X112185002Y-79694532D01*
X112184998Y-79694532D01*
X111958313Y-79714364D01*
X111958302Y-79714366D01*
X111738511Y-79773258D01*
X111738502Y-79773261D01*
X111532267Y-79869431D01*
X111532265Y-79869432D01*
X111429595Y-79941322D01*
X111382480Y-79974313D01*
X111378535Y-79977075D01*
X111312329Y-79999402D01*
X111307412Y-79999500D01*
X107703555Y-79999500D01*
X107606912Y-80018724D01*
X107510270Y-80037947D01*
X107510262Y-80037949D01*
X107487780Y-80047262D01*
X107328188Y-80113366D01*
X107328179Y-80113371D01*
X107164319Y-80222859D01*
X107118815Y-80268364D01*
X107024961Y-80362218D01*
X93117698Y-94269481D01*
X93056375Y-94302966D01*
X93030017Y-94305800D01*
X92420300Y-94305800D01*
X92353261Y-94286115D01*
X92307506Y-94233311D01*
X92296300Y-94181800D01*
X92296300Y-72024372D01*
X92315985Y-71957333D01*
X92368789Y-71911578D01*
X92437947Y-71901634D01*
X92472705Y-71911990D01*
X92682307Y-72009730D01*
X92682316Y-72009733D01*
X92895800Y-72066934D01*
X92895800Y-71169312D01*
X92952807Y-71202225D01*
X93079974Y-71236300D01*
X93211626Y-71236300D01*
X93338793Y-71202225D01*
X93395800Y-71169312D01*
X93395800Y-72066933D01*
X93609283Y-72009733D01*
X93609292Y-72009729D01*
X93823378Y-71909900D01*
X94016882Y-71774405D01*
X94183905Y-71607382D01*
X94319400Y-71413878D01*
X94419229Y-71199792D01*
X94419232Y-71199786D01*
X94476436Y-70986300D01*
X93578812Y-70986300D01*
X93611725Y-70929293D01*
X93645800Y-70802126D01*
X93645800Y-70670474D01*
X93611725Y-70543307D01*
X93578812Y-70486300D01*
X94476436Y-70486300D01*
X94476435Y-70486299D01*
X94419232Y-70272813D01*
X94419229Y-70272807D01*
X94319400Y-70058722D01*
X94319399Y-70058720D01*
X94183913Y-69865226D01*
X94183908Y-69865220D01*
X94016878Y-69698190D01*
X93831205Y-69568179D01*
X93787580Y-69513602D01*
X93780388Y-69444104D01*
X93811910Y-69381749D01*
X93831206Y-69365030D01*
X93864622Y-69341632D01*
X94017201Y-69234795D01*
X94184295Y-69067701D01*
X94319835Y-68874130D01*
X94419703Y-68659963D01*
X94480863Y-68431708D01*
X94501459Y-68196300D01*
X94480863Y-67960892D01*
X94419703Y-67732637D01*
X94319835Y-67518471D01*
X94195932Y-67341519D01*
X94184296Y-67324900D01*
X94167430Y-67308034D01*
X94062367Y-67202971D01*
X94028884Y-67141651D01*
X94033868Y-67071959D01*
X94075739Y-67016025D01*
X94106715Y-66999110D01*
X94238131Y-66950096D01*
X94353346Y-66863846D01*
X94439596Y-66748631D01*
X94489891Y-66613783D01*
X94496300Y-66554173D01*
X94496299Y-65499998D01*
X110379532Y-65499998D01*
X110379532Y-65500001D01*
X110399364Y-65726686D01*
X110399366Y-65726697D01*
X110458258Y-65946488D01*
X110458261Y-65946497D01*
X110554431Y-66152732D01*
X110554432Y-66152734D01*
X110684954Y-66339141D01*
X110845858Y-66500045D01*
X110845861Y-66500047D01*
X111032266Y-66630568D01*
X111238504Y-66726739D01*
X111458308Y-66785635D01*
X111620230Y-66799801D01*
X111684998Y-66805468D01*
X111685000Y-66805468D01*
X111685002Y-66805468D01*
X111741673Y-66800509D01*
X111911692Y-66785635D01*
X112131496Y-66726739D01*
X112337734Y-66630568D01*
X112524139Y-66500047D01*
X112685047Y-66339139D01*
X112815568Y-66152734D01*
X112911739Y-65946496D01*
X112970635Y-65726692D01*
X112990468Y-65500000D01*
X112970635Y-65273308D01*
X112911739Y-65053504D01*
X112815568Y-64847266D01*
X112685047Y-64660861D01*
X112685045Y-64660858D01*
X112524141Y-64499954D01*
X112337734Y-64369432D01*
X112337732Y-64369431D01*
X112131497Y-64273261D01*
X112131488Y-64273258D01*
X111911697Y-64214366D01*
X111911693Y-64214365D01*
X111911692Y-64214365D01*
X111911691Y-64214364D01*
X111911686Y-64214364D01*
X111685002Y-64194532D01*
X111684998Y-64194532D01*
X111458313Y-64214364D01*
X111458302Y-64214366D01*
X111238511Y-64273258D01*
X111238502Y-64273261D01*
X111032267Y-64369431D01*
X111032265Y-64369432D01*
X110845858Y-64499954D01*
X110684954Y-64660858D01*
X110554432Y-64847265D01*
X110554431Y-64847267D01*
X110458261Y-65053502D01*
X110458258Y-65053511D01*
X110399366Y-65273302D01*
X110399364Y-65273313D01*
X110379532Y-65499998D01*
X94496299Y-65499998D01*
X94496299Y-64758428D01*
X94489891Y-64698817D01*
X94475734Y-64660861D01*
X94439597Y-64563971D01*
X94439593Y-64563964D01*
X94353347Y-64448755D01*
X94353344Y-64448752D01*
X94238135Y-64362506D01*
X94238128Y-64362502D01*
X94103282Y-64312208D01*
X94103283Y-64312208D01*
X94043683Y-64305801D01*
X94043681Y-64305800D01*
X94043673Y-64305800D01*
X94043665Y-64305800D01*
X92420300Y-64305800D01*
X92353261Y-64286115D01*
X92307506Y-64233311D01*
X92296300Y-64181800D01*
X92296300Y-51563535D01*
X92315985Y-51496496D01*
X92332614Y-51475859D01*
X94006118Y-49802354D01*
X94041384Y-49777660D01*
X94177830Y-49714035D01*
X94371401Y-49578495D01*
X94538495Y-49411401D01*
X94674035Y-49217830D01*
X94773903Y-49003663D01*
X94835063Y-48775408D01*
X94855659Y-48540000D01*
X94835063Y-48304592D01*
X94773903Y-48076337D01*
X94674035Y-47862171D01*
X94664524Y-47848587D01*
X94538494Y-47668597D01*
X94371402Y-47501506D01*
X94371396Y-47501501D01*
X94185842Y-47371575D01*
X94142217Y-47316998D01*
X94135023Y-47247500D01*
X94166546Y-47185145D01*
X94185842Y-47168425D01*
X94259266Y-47117013D01*
X94371401Y-47038495D01*
X94538495Y-46871401D01*
X94674035Y-46677830D01*
X94773903Y-46463663D01*
X94835063Y-46235408D01*
X94855659Y-46000000D01*
X94835063Y-45764592D01*
X94774750Y-45539499D01*
X94773905Y-45536344D01*
X94773904Y-45536343D01*
X94773903Y-45536337D01*
X94674035Y-45322171D01*
X94664524Y-45308587D01*
X94538494Y-45128597D01*
X94371402Y-44961506D01*
X94371396Y-44961501D01*
X94185842Y-44831575D01*
X94142217Y-44776998D01*
X94135023Y-44707500D01*
X94166546Y-44645145D01*
X94185842Y-44628425D01*
X94347829Y-44515000D01*
X94371401Y-44498495D01*
X94538495Y-44331401D01*
X94674035Y-44137830D01*
X94773903Y-43923663D01*
X94835063Y-43695408D01*
X94855659Y-43460000D01*
X94835063Y-43224592D01*
X94774751Y-42999500D01*
X94773905Y-42996344D01*
X94773904Y-42996343D01*
X94773903Y-42996337D01*
X94674035Y-42782171D01*
X94664523Y-42768587D01*
X94538496Y-42588600D01*
X94489682Y-42539786D01*
X94416179Y-42466283D01*
X94382696Y-42404963D01*
X94387680Y-42335271D01*
X94429551Y-42279337D01*
X94460529Y-42262422D01*
X94592086Y-42213354D01*
X94592093Y-42213350D01*
X94707187Y-42127190D01*
X94707190Y-42127187D01*
X94793350Y-42012093D01*
X94793354Y-42012086D01*
X94843596Y-41877379D01*
X94843598Y-41877372D01*
X94849999Y-41817844D01*
X94850000Y-41817827D01*
X94850000Y-41170000D01*
X93933012Y-41170000D01*
X93965925Y-41112993D01*
X94000000Y-40985826D01*
X94000000Y-40854174D01*
X93965925Y-40727007D01*
X93933012Y-40670000D01*
X94850000Y-40670000D01*
X94850000Y-40022172D01*
X94849999Y-40022155D01*
X94843598Y-39962627D01*
X94843596Y-39962620D01*
X94793354Y-39827913D01*
X94793350Y-39827906D01*
X94707190Y-39712812D01*
X94707187Y-39712809D01*
X94592093Y-39626649D01*
X94592086Y-39626645D01*
X94457379Y-39576403D01*
X94457372Y-39576401D01*
X94397844Y-39570000D01*
X93750000Y-39570000D01*
X93750000Y-40486988D01*
X93692993Y-40454075D01*
X93565826Y-40420000D01*
X93434174Y-40420000D01*
X93307007Y-40454075D01*
X93250000Y-40486988D01*
X93250000Y-39570000D01*
X92602155Y-39570000D01*
X92542627Y-39576401D01*
X92542620Y-39576403D01*
X92407913Y-39626645D01*
X92407906Y-39626649D01*
X92292812Y-39712809D01*
X92292809Y-39712812D01*
X92206649Y-39827906D01*
X92206645Y-39827913D01*
X92156403Y-39962620D01*
X92156401Y-39962627D01*
X92150000Y-40022155D01*
X92150000Y-40670000D01*
X93066988Y-40670000D01*
X93034075Y-40727007D01*
X93000000Y-40854174D01*
X93000000Y-40985826D01*
X93034075Y-41112993D01*
X93066988Y-41170000D01*
X92150000Y-41170000D01*
X92150000Y-41817844D01*
X92156401Y-41877372D01*
X92156403Y-41877379D01*
X92206645Y-42012086D01*
X92206649Y-42012093D01*
X92292809Y-42127187D01*
X92292812Y-42127190D01*
X92407906Y-42213350D01*
X92407913Y-42213354D01*
X92539470Y-42262421D01*
X92595403Y-42304292D01*
X92619821Y-42369756D01*
X92604970Y-42438029D01*
X92583819Y-42466284D01*
X92461503Y-42588600D01*
X92325965Y-42782169D01*
X92325964Y-42782171D01*
X92226098Y-42996335D01*
X92226094Y-42996344D01*
X92164938Y-43224586D01*
X92164936Y-43224596D01*
X92144341Y-43459999D01*
X92144341Y-43460000D01*
X92164936Y-43695403D01*
X92164938Y-43695413D01*
X92226094Y-43923655D01*
X92226096Y-43923659D01*
X92226097Y-43923663D01*
X92277868Y-44034685D01*
X92325965Y-44137830D01*
X92325967Y-44137834D01*
X92415010Y-44265000D01*
X92461102Y-44330826D01*
X92461501Y-44331395D01*
X92461506Y-44331402D01*
X92628597Y-44498493D01*
X92628603Y-44498498D01*
X92814158Y-44628425D01*
X92857783Y-44683002D01*
X92864977Y-44752500D01*
X92833454Y-44814855D01*
X92814158Y-44831575D01*
X92628597Y-44961505D01*
X92461505Y-45128597D01*
X92325965Y-45322169D01*
X92325964Y-45322171D01*
X92226098Y-45536335D01*
X92226094Y-45536344D01*
X92164938Y-45764586D01*
X92164936Y-45764596D01*
X92144341Y-45999999D01*
X92144341Y-46000000D01*
X92164936Y-46235403D01*
X92164938Y-46235413D01*
X92226094Y-46463655D01*
X92226096Y-46463659D01*
X92226097Y-46463663D01*
X92308026Y-46639360D01*
X92325965Y-46677830D01*
X92325967Y-46677834D01*
X92461501Y-46871395D01*
X92461506Y-46871402D01*
X92628597Y-47038493D01*
X92628603Y-47038498D01*
X92814158Y-47168425D01*
X92857783Y-47223002D01*
X92864977Y-47292500D01*
X92833454Y-47354855D01*
X92814158Y-47371575D01*
X92628597Y-47501505D01*
X92461505Y-47668597D01*
X92325965Y-47862169D01*
X92325961Y-47862176D01*
X92262340Y-47998609D01*
X92237640Y-48033884D01*
X90091974Y-50179551D01*
X90091972Y-50179554D01*
X90072891Y-50205817D01*
X89976276Y-50338794D01*
X89886913Y-50514178D01*
X89855293Y-50611499D01*
X89855293Y-50611501D01*
X89826090Y-50701373D01*
X89795300Y-50895777D01*
X89795300Y-67854722D01*
X89826091Y-68049129D01*
X89861459Y-68157983D01*
X89863454Y-68227824D01*
X89861459Y-68234617D01*
X89826091Y-68343470D01*
X89795300Y-68537877D01*
X89795300Y-97443440D01*
X89789231Y-97481759D01*
X89780290Y-97509273D01*
X89749500Y-97703677D01*
X89749500Y-120098422D01*
X89780290Y-120292826D01*
X89841117Y-120480030D01*
X89902195Y-120599901D01*
X89930476Y-120655405D01*
X90046172Y-120814646D01*
X90046174Y-120814648D01*
X91185348Y-121953823D01*
X91185351Y-121953825D01*
X91185355Y-121953829D01*
X91196669Y-121962049D01*
X91196671Y-121962051D01*
X91196672Y-121962051D01*
X91344595Y-122069524D01*
X91427455Y-122111743D01*
X91519970Y-122158882D01*
X91519972Y-122158882D01*
X91519975Y-122158884D01*
X91566602Y-122174034D01*
X91707173Y-122219709D01*
X91901578Y-122250500D01*
X91901583Y-122250500D01*
X91901584Y-122250500D01*
X92098417Y-122250500D01*
X110688561Y-122250500D01*
X110755600Y-122270185D01*
X110762872Y-122275233D01*
X110787668Y-122293795D01*
X110787671Y-122293797D01*
X110922517Y-122344091D01*
X110922516Y-122344091D01*
X110929444Y-122344835D01*
X110982127Y-122350500D01*
X112777872Y-122350499D01*
X112837483Y-122344091D01*
X112972331Y-122293796D01*
X113087546Y-122207546D01*
X113173796Y-122092331D01*
X113222810Y-121960916D01*
X113264681Y-121904984D01*
X113330145Y-121880566D01*
X113398418Y-121895417D01*
X113426673Y-121916569D01*
X113548599Y-122038495D01*
X113645384Y-122106265D01*
X113742165Y-122174032D01*
X113742167Y-122174033D01*
X113742170Y-122174035D01*
X113956337Y-122273903D01*
X113956343Y-122273904D01*
X113956344Y-122273905D01*
X114011285Y-122288626D01*
X114184592Y-122335063D01*
X114361034Y-122350500D01*
X114419999Y-122355659D01*
X114420000Y-122355659D01*
X114420001Y-122355659D01*
X114478966Y-122350500D01*
X114655408Y-122335063D01*
X114883663Y-122273903D01*
X115097830Y-122174035D01*
X115291401Y-122038495D01*
X115458495Y-121871401D01*
X115588425Y-121685842D01*
X115643002Y-121642217D01*
X115712500Y-121635023D01*
X115774855Y-121666546D01*
X115791575Y-121685842D01*
X115921281Y-121871082D01*
X115921505Y-121871401D01*
X116088599Y-122038495D01*
X116185384Y-122106265D01*
X116282165Y-122174032D01*
X116282167Y-122174033D01*
X116282170Y-122174035D01*
X116496337Y-122273903D01*
X116496343Y-122273904D01*
X116496344Y-122273905D01*
X116551285Y-122288626D01*
X116724592Y-122335063D01*
X116901034Y-122350500D01*
X116959999Y-122355659D01*
X116960000Y-122355659D01*
X116960001Y-122355659D01*
X117018966Y-122350500D01*
X117195408Y-122335063D01*
X117423663Y-122273903D01*
X117637830Y-122174035D01*
X117831401Y-122038495D01*
X117998495Y-121871401D01*
X118128425Y-121685842D01*
X118183002Y-121642217D01*
X118252500Y-121635023D01*
X118314855Y-121666546D01*
X118331575Y-121685842D01*
X118461281Y-121871082D01*
X118461505Y-121871401D01*
X118628599Y-122038495D01*
X118725384Y-122106265D01*
X118822165Y-122174032D01*
X118822167Y-122174033D01*
X118822170Y-122174035D01*
X119036337Y-122273903D01*
X119036343Y-122273904D01*
X119036344Y-122273905D01*
X119091285Y-122288626D01*
X119264592Y-122335063D01*
X119441034Y-122350500D01*
X119499999Y-122355659D01*
X119500000Y-122355659D01*
X119500001Y-122355659D01*
X119558966Y-122350500D01*
X119735408Y-122335063D01*
X119963663Y-122273903D01*
X120177830Y-122174035D01*
X120371401Y-122038495D01*
X120538495Y-121871401D01*
X120668730Y-121685405D01*
X120723307Y-121641781D01*
X120792805Y-121634587D01*
X120855160Y-121666110D01*
X120871879Y-121685405D01*
X121001890Y-121871078D01*
X121168917Y-122038105D01*
X121362421Y-122173600D01*
X121576507Y-122273429D01*
X121576516Y-122273433D01*
X121790000Y-122330634D01*
X121790000Y-121433012D01*
X121847007Y-121465925D01*
X121974174Y-121500000D01*
X122105826Y-121500000D01*
X122232993Y-121465925D01*
X122290000Y-121433012D01*
X122290000Y-122330633D01*
X122503483Y-122273433D01*
X122503492Y-122273429D01*
X122717578Y-122173600D01*
X122911082Y-122038105D01*
X123078105Y-121871082D01*
X123213600Y-121677578D01*
X123313429Y-121463492D01*
X123313432Y-121463486D01*
X123370636Y-121250000D01*
X122473012Y-121250000D01*
X122505925Y-121192993D01*
X122540000Y-121065826D01*
X122540000Y-120934174D01*
X122505925Y-120807007D01*
X122473012Y-120750000D01*
X123370636Y-120750000D01*
X123370635Y-120749999D01*
X123313432Y-120536513D01*
X123313429Y-120536507D01*
X123213600Y-120322422D01*
X123213599Y-120322420D01*
X123078113Y-120128926D01*
X123078108Y-120128920D01*
X122911082Y-119961894D01*
X122717578Y-119826399D01*
X122503492Y-119726570D01*
X122503486Y-119726567D01*
X122290000Y-119669364D01*
X122290000Y-120566988D01*
X122232993Y-120534075D01*
X122105826Y-120500000D01*
X121974174Y-120500000D01*
X121847007Y-120534075D01*
X121790000Y-120566988D01*
X121790000Y-119669364D01*
X121789999Y-119669364D01*
X121576513Y-119726567D01*
X121576507Y-119726570D01*
X121362422Y-119826399D01*
X121362420Y-119826400D01*
X121168926Y-119961886D01*
X121168920Y-119961891D01*
X121001891Y-120128920D01*
X121001890Y-120128922D01*
X120871880Y-120314595D01*
X120817303Y-120358219D01*
X120747804Y-120365412D01*
X120685450Y-120333890D01*
X120668730Y-120314594D01*
X120538494Y-120128597D01*
X120371402Y-119961506D01*
X120371395Y-119961501D01*
X120177834Y-119825967D01*
X120177830Y-119825965D01*
X120177828Y-119825964D01*
X119963663Y-119726097D01*
X119963659Y-119726096D01*
X119963655Y-119726094D01*
X119735413Y-119664938D01*
X119735403Y-119664936D01*
X119500001Y-119644341D01*
X119499999Y-119644341D01*
X119264596Y-119664936D01*
X119264586Y-119664938D01*
X119036344Y-119726094D01*
X119036335Y-119726098D01*
X118822171Y-119825964D01*
X118822169Y-119825965D01*
X118628597Y-119961505D01*
X118461505Y-120128597D01*
X118331575Y-120314158D01*
X118276998Y-120357783D01*
X118207500Y-120364977D01*
X118145145Y-120333454D01*
X118128425Y-120314158D01*
X117998494Y-120128597D01*
X117831402Y-119961506D01*
X117831395Y-119961501D01*
X117637834Y-119825967D01*
X117637830Y-119825965D01*
X117637828Y-119825964D01*
X117423663Y-119726097D01*
X117423659Y-119726096D01*
X117423655Y-119726094D01*
X117195413Y-119664938D01*
X117195403Y-119664936D01*
X116960001Y-119644341D01*
X116959999Y-119644341D01*
X116724596Y-119664936D01*
X116724586Y-119664938D01*
X116496344Y-119726094D01*
X116496335Y-119726098D01*
X116282171Y-119825964D01*
X116282169Y-119825965D01*
X116088597Y-119961505D01*
X115921505Y-120128597D01*
X115791575Y-120314158D01*
X115736998Y-120357783D01*
X115667500Y-120364977D01*
X115605145Y-120333454D01*
X115588425Y-120314158D01*
X115458494Y-120128597D01*
X115291402Y-119961506D01*
X115291395Y-119961501D01*
X115097834Y-119825967D01*
X115097830Y-119825965D01*
X115097828Y-119825964D01*
X114883663Y-119726097D01*
X114883659Y-119726096D01*
X114883655Y-119726094D01*
X114655413Y-119664938D01*
X114655403Y-119664936D01*
X114420001Y-119644341D01*
X114419999Y-119644341D01*
X114184596Y-119664936D01*
X114184586Y-119664938D01*
X113956344Y-119726094D01*
X113956335Y-119726098D01*
X113742171Y-119825964D01*
X113742169Y-119825965D01*
X113548600Y-119961503D01*
X113426673Y-120083430D01*
X113365350Y-120116914D01*
X113295658Y-120111930D01*
X113239725Y-120070058D01*
X113222810Y-120039081D01*
X113173797Y-119907671D01*
X113173795Y-119907668D01*
X113155233Y-119882872D01*
X113130816Y-119817408D01*
X113130500Y-119808561D01*
X113130500Y-116297754D01*
X113150185Y-116230715D01*
X113166819Y-116210073D01*
X116466528Y-112910364D01*
X116527851Y-112876879D01*
X116597543Y-112881863D01*
X116641890Y-112910364D01*
X127685355Y-123953829D01*
X127844595Y-124069524D01*
X127927454Y-124111742D01*
X128019969Y-124158882D01*
X128019971Y-124158882D01*
X128019974Y-124158884D01*
X128120318Y-124191487D01*
X128207173Y-124219709D01*
X128401578Y-124250500D01*
X128401583Y-124250500D01*
X170098422Y-124250500D01*
X170292826Y-124219709D01*
X170480026Y-124158884D01*
X170655405Y-124069524D01*
X170814646Y-123953828D01*
X173233828Y-121534646D01*
X173349524Y-121375405D01*
X173438884Y-121200026D01*
X173499709Y-121012826D01*
X173508366Y-120958165D01*
X173530500Y-120818417D01*
X173530500Y-119041340D01*
X173542117Y-118988936D01*
X173553903Y-118963663D01*
X173615063Y-118735408D01*
X173635659Y-118500000D01*
X173615063Y-118264592D01*
X173553903Y-118036337D01*
X173542118Y-118011063D01*
X173530500Y-117958659D01*
X173530500Y-72580717D01*
X173521596Y-72524502D01*
X173521596Y-72524501D01*
X173507807Y-72437439D01*
X173516762Y-72368145D01*
X173561758Y-72314693D01*
X173619474Y-72294513D01*
X173726599Y-72285141D01*
X173726610Y-72285139D01*
X173946317Y-72226269D01*
X173946331Y-72226264D01*
X174152478Y-72130136D01*
X174225471Y-72079024D01*
X173546446Y-71400000D01*
X173552661Y-71400000D01*
X173654394Y-71372741D01*
X173745606Y-71320080D01*
X173820080Y-71245606D01*
X173872741Y-71154394D01*
X173900000Y-71052661D01*
X173900000Y-71046447D01*
X174579024Y-71725471D01*
X174630136Y-71652478D01*
X174726264Y-71446331D01*
X174726269Y-71446317D01*
X174785139Y-71226610D01*
X174785141Y-71226599D01*
X174804966Y-71000002D01*
X174804966Y-70999997D01*
X174785141Y-70773400D01*
X174785139Y-70773389D01*
X174726269Y-70553682D01*
X174726264Y-70553668D01*
X174630136Y-70347521D01*
X174630132Y-70347513D01*
X174579025Y-70274526D01*
X173900000Y-70953551D01*
X173900000Y-70947339D01*
X173872741Y-70845606D01*
X173820080Y-70754394D01*
X173745606Y-70679920D01*
X173654394Y-70627259D01*
X173552661Y-70600000D01*
X173546445Y-70600000D01*
X174225472Y-69920974D01*
X174152478Y-69869863D01*
X173946331Y-69773735D01*
X173946317Y-69773730D01*
X173726610Y-69714860D01*
X173726599Y-69714858D01*
X173500002Y-69695034D01*
X173499998Y-69695034D01*
X173273400Y-69714858D01*
X173273389Y-69714860D01*
X173053682Y-69773730D01*
X173053673Y-69773734D01*
X172847516Y-69869866D01*
X172847512Y-69869868D01*
X172774526Y-69920973D01*
X172774526Y-69920974D01*
X173453553Y-70600000D01*
X173447339Y-70600000D01*
X173345606Y-70627259D01*
X173254394Y-70679920D01*
X173179920Y-70754394D01*
X173127259Y-70845606D01*
X173100000Y-70947339D01*
X173100000Y-70953553D01*
X172415799Y-70269351D01*
X172366805Y-70259505D01*
X172316622Y-70210889D01*
X172301981Y-70155366D01*
X172300900Y-70155423D01*
X172300854Y-70155429D01*
X172300853Y-70155426D01*
X172300676Y-70155436D01*
X172300499Y-70152135D01*
X172300499Y-70152128D01*
X172294091Y-70092517D01*
X172281486Y-70058722D01*
X172258318Y-69996604D01*
X172250500Y-69953271D01*
X172250500Y-57295857D01*
X172264015Y-57239564D01*
X172292005Y-57184632D01*
X172353413Y-56995636D01*
X172384500Y-56799361D01*
X172384500Y-56600639D01*
X172353413Y-56404364D01*
X172292005Y-56215368D01*
X172292005Y-56215367D01*
X172201786Y-56038305D01*
X172192913Y-56026092D01*
X172084981Y-55877536D01*
X171944464Y-55737019D01*
X171783694Y-55620213D01*
X171606632Y-55529994D01*
X171606629Y-55529993D01*
X171511554Y-55499102D01*
X171453878Y-55459665D01*
X171426680Y-55395306D01*
X171438595Y-55326460D01*
X171475562Y-55281903D01*
X171479191Y-55279185D01*
X171565350Y-55164093D01*
X171565354Y-55164086D01*
X171615596Y-55029379D01*
X171615598Y-55029372D01*
X171621999Y-54969844D01*
X171622000Y-54969827D01*
X171622000Y-54410000D01*
X170802251Y-54410000D01*
X170833381Y-54356081D01*
X170868000Y-54226880D01*
X170868000Y-54093120D01*
X170833381Y-53963919D01*
X170802251Y-53910000D01*
X171622000Y-53910000D01*
X171622000Y-53350172D01*
X171621999Y-53350155D01*
X171615598Y-53290627D01*
X171615596Y-53290620D01*
X171565354Y-53155913D01*
X171565350Y-53155906D01*
X171479190Y-53040812D01*
X171479188Y-53040810D01*
X171475556Y-53038091D01*
X171433688Y-52982156D01*
X171428707Y-52912464D01*
X171462195Y-52851142D01*
X171511555Y-52820897D01*
X171606626Y-52790007D01*
X171606632Y-52790005D01*
X171783694Y-52699787D01*
X171944464Y-52582981D01*
X172084981Y-52442464D01*
X172201787Y-52281694D01*
X172292005Y-52104632D01*
X172353413Y-51915636D01*
X172384500Y-51719361D01*
X172384500Y-51520639D01*
X172353413Y-51324364D01*
X172313259Y-51200781D01*
X172292006Y-51135370D01*
X172292005Y-51135367D01*
X172201786Y-50958305D01*
X172156357Y-50895777D01*
X172084981Y-50797536D01*
X171944464Y-50657019D01*
X171783694Y-50540213D01*
X171627218Y-50460484D01*
X171576423Y-50412510D01*
X171559628Y-50344689D01*
X171582165Y-50278554D01*
X171627218Y-50239515D01*
X171783694Y-50159787D01*
X171944464Y-50042981D01*
X172084981Y-49902464D01*
X172201787Y-49741694D01*
X172292005Y-49564632D01*
X172353413Y-49375636D01*
X172384500Y-49179361D01*
X172384500Y-48980639D01*
X172353413Y-48784364D01*
X172292005Y-48595368D01*
X172292005Y-48595367D01*
X172201786Y-48418305D01*
X172084981Y-48257536D01*
X171944464Y-48117019D01*
X171783694Y-48000213D01*
X171627218Y-47920484D01*
X171576423Y-47872510D01*
X171559628Y-47804689D01*
X171582165Y-47738554D01*
X171627218Y-47699515D01*
X171783694Y-47619787D01*
X171944464Y-47502981D01*
X172084981Y-47362464D01*
X172201787Y-47201694D01*
X172292005Y-47024632D01*
X172353413Y-46835636D01*
X172384500Y-46639361D01*
X172384500Y-46440639D01*
X172353413Y-46244364D01*
X172292005Y-46055368D01*
X172292005Y-46055367D01*
X172201786Y-45878305D01*
X172084981Y-45717536D01*
X171944464Y-45577019D01*
X171783694Y-45460213D01*
X171627218Y-45380484D01*
X171576423Y-45332510D01*
X171559628Y-45264689D01*
X171582165Y-45198554D01*
X171627218Y-45159515D01*
X171783694Y-45079787D01*
X171944464Y-44962981D01*
X172084981Y-44822464D01*
X172201787Y-44661694D01*
X172292005Y-44484632D01*
X172353413Y-44295636D01*
X172384500Y-44099361D01*
X172384500Y-43900639D01*
X172353413Y-43704364D01*
X172292005Y-43515368D01*
X172292005Y-43515367D01*
X172213972Y-43362221D01*
X172201787Y-43338306D01*
X172084981Y-43177536D01*
X171944464Y-43037019D01*
X171783694Y-42920213D01*
X171627218Y-42840484D01*
X171576423Y-42792510D01*
X171559628Y-42724689D01*
X171582165Y-42658554D01*
X171627218Y-42619515D01*
X171783694Y-42539787D01*
X171944464Y-42422981D01*
X172084981Y-42282464D01*
X172201787Y-42121694D01*
X172292005Y-41944632D01*
X172353413Y-41755636D01*
X172384500Y-41559361D01*
X172384500Y-41360639D01*
X172353413Y-41164364D01*
X172292005Y-40975368D01*
X172292005Y-40975367D01*
X172201786Y-40798305D01*
X172108567Y-40670000D01*
X172084981Y-40637536D01*
X171944464Y-40497019D01*
X171783694Y-40380213D01*
X171627218Y-40300484D01*
X171576423Y-40252510D01*
X171559628Y-40184689D01*
X171582165Y-40118554D01*
X171627218Y-40079515D01*
X171783694Y-39999787D01*
X171944464Y-39882981D01*
X172084981Y-39742464D01*
X172201787Y-39581694D01*
X172292005Y-39404632D01*
X172353413Y-39215636D01*
X172384500Y-39019361D01*
X172384500Y-38820639D01*
X172353413Y-38624364D01*
X172292005Y-38435368D01*
X172292000Y-38435357D01*
X172242799Y-38338795D01*
X172229902Y-38270126D01*
X172256178Y-38205386D01*
X172313284Y-38165128D01*
X172353283Y-38158500D01*
X172467218Y-38158500D01*
X172534257Y-38178185D01*
X172554899Y-38194819D01*
X176113181Y-41753102D01*
X176146666Y-41814425D01*
X176149500Y-41840783D01*
X176149500Y-42622870D01*
X176149501Y-42622876D01*
X176155908Y-42682483D01*
X176206202Y-42817328D01*
X176206206Y-42817335D01*
X176292452Y-42932544D01*
X176292455Y-42932547D01*
X176407664Y-43018793D01*
X176407671Y-43018797D01*
X176459021Y-43037949D01*
X176539598Y-43068002D01*
X176595531Y-43109873D01*
X176619949Y-43175337D01*
X176605098Y-43243610D01*
X176583947Y-43271865D01*
X176461886Y-43393926D01*
X176326400Y-43587420D01*
X176326399Y-43587422D01*
X176226570Y-43801507D01*
X176226567Y-43801513D01*
X176169364Y-44014999D01*
X176169364Y-44015000D01*
X177066988Y-44015000D01*
X177034075Y-44072007D01*
X177000000Y-44199174D01*
X177000000Y-44330826D01*
X177034075Y-44457993D01*
X177066988Y-44515000D01*
X176169364Y-44515000D01*
X176226567Y-44728486D01*
X176226570Y-44728492D01*
X176326399Y-44942578D01*
X176461894Y-45136082D01*
X176628917Y-45303105D01*
X176822421Y-45438600D01*
X177036507Y-45538429D01*
X177036516Y-45538433D01*
X177250000Y-45595634D01*
X177250000Y-44698012D01*
X177307007Y-44730925D01*
X177434174Y-44765000D01*
X177565826Y-44765000D01*
X177692993Y-44730925D01*
X177750000Y-44698012D01*
X177750000Y-45595633D01*
X177963483Y-45538433D01*
X177963492Y-45538429D01*
X178177579Y-45438599D01*
X178177585Y-45438595D01*
X178304376Y-45349815D01*
X178370582Y-45327487D01*
X178438349Y-45344497D01*
X178486163Y-45395444D01*
X178499500Y-45451389D01*
X178499500Y-124375500D01*
X178479815Y-124442539D01*
X178427011Y-124488294D01*
X178375500Y-124499500D01*
X89624500Y-124499500D01*
X89557461Y-124479815D01*
X89511706Y-124427011D01*
X89500500Y-124375500D01*
X89500500Y-35624500D01*
X89520185Y-35557461D01*
X89572989Y-35511706D01*
X89624500Y-35500500D01*
X178375500Y-35500500D01*
X178442539Y-35520185D01*
G37*
G04 #@! TD.AperFunction*
G04 #@! TA.AperFunction,Conductor*
G36*
X169990000Y-119830633D02*
G01*
X170203483Y-119773433D01*
X170203492Y-119773429D01*
X170417578Y-119673600D01*
X170611082Y-119538105D01*
X170778107Y-119371080D01*
X170803925Y-119334209D01*
X170858501Y-119290584D01*
X170928000Y-119283390D01*
X170990355Y-119314912D01*
X171025769Y-119375142D01*
X171029500Y-119405332D01*
X171029500Y-120150664D01*
X171009815Y-120217703D01*
X170993181Y-120238345D01*
X169518345Y-121713181D01*
X169457022Y-121746666D01*
X169430664Y-121749500D01*
X163131908Y-121749500D01*
X163064869Y-121729815D01*
X163019114Y-121677011D01*
X163009170Y-121607853D01*
X163017347Y-121578047D01*
X163049675Y-121500000D01*
X163082052Y-121421835D01*
X163120500Y-121228540D01*
X163120500Y-121031459D01*
X163120500Y-119460758D01*
X163140185Y-119393719D01*
X163156819Y-119373077D01*
X163158495Y-119371401D01*
X163288425Y-119185842D01*
X163343002Y-119142217D01*
X163412500Y-119135023D01*
X163474855Y-119166546D01*
X163491575Y-119185842D01*
X163621278Y-119371078D01*
X163621505Y-119371401D01*
X163788599Y-119538495D01*
X163878517Y-119601456D01*
X163982165Y-119674032D01*
X163982167Y-119674033D01*
X163982170Y-119674035D01*
X164196337Y-119773903D01*
X164424592Y-119835063D01*
X164601034Y-119850500D01*
X164659999Y-119855659D01*
X164660000Y-119855659D01*
X164660001Y-119855659D01*
X164718966Y-119850500D01*
X164895408Y-119835063D01*
X165123663Y-119773903D01*
X165337830Y-119674035D01*
X165531401Y-119538495D01*
X165698495Y-119371401D01*
X165828425Y-119185842D01*
X165883002Y-119142217D01*
X165952500Y-119135023D01*
X166014855Y-119166546D01*
X166031575Y-119185842D01*
X166161278Y-119371078D01*
X166161505Y-119371401D01*
X166328599Y-119538495D01*
X166418517Y-119601456D01*
X166522165Y-119674032D01*
X166522167Y-119674033D01*
X166522170Y-119674035D01*
X166736337Y-119773903D01*
X166964592Y-119835063D01*
X167141034Y-119850500D01*
X167199999Y-119855659D01*
X167200000Y-119855659D01*
X167200001Y-119855659D01*
X167258966Y-119850500D01*
X167435408Y-119835063D01*
X167663663Y-119773903D01*
X167877830Y-119674035D01*
X168071401Y-119538495D01*
X168238495Y-119371401D01*
X168368730Y-119185405D01*
X168423307Y-119141781D01*
X168492805Y-119134587D01*
X168555160Y-119166110D01*
X168571879Y-119185405D01*
X168701890Y-119371078D01*
X168868917Y-119538105D01*
X169062421Y-119673600D01*
X169276507Y-119773429D01*
X169276516Y-119773433D01*
X169490000Y-119830634D01*
X169490000Y-118933012D01*
X169547007Y-118965925D01*
X169674174Y-119000000D01*
X169805826Y-119000000D01*
X169932993Y-118965925D01*
X169990000Y-118933012D01*
X169990000Y-119830633D01*
G37*
G04 #@! TD.AperFunction*
G04 #@! TA.AperFunction,Conductor*
G36*
X113460354Y-81692909D02*
G01*
X113495769Y-81753139D01*
X113499500Y-81783329D01*
X113499500Y-84441972D01*
X113537947Y-84635261D01*
X113537949Y-84635265D01*
X113544513Y-84651112D01*
X113554547Y-84675337D01*
X113560038Y-84688592D01*
X113613366Y-84817339D01*
X113613371Y-84817348D01*
X113722860Y-84981209D01*
X113722863Y-84981213D01*
X113866537Y-85124887D01*
X113866559Y-85124907D01*
X123231307Y-94489655D01*
X123231336Y-94489686D01*
X123373789Y-94632139D01*
X123537652Y-94741628D01*
X123537658Y-94741632D01*
X123537660Y-94741633D01*
X123537664Y-94741635D01*
X123575523Y-94757316D01*
X123619300Y-94787893D01*
X123780256Y-94962738D01*
X123863008Y-95027147D01*
X123903821Y-95083857D01*
X123907496Y-95153630D01*
X123872864Y-95214313D01*
X123863014Y-95222848D01*
X123804400Y-95268469D01*
X123780257Y-95287261D01*
X123611833Y-95470217D01*
X123475826Y-95678393D01*
X123375936Y-95906118D01*
X123314892Y-96147175D01*
X123314890Y-96147187D01*
X123294357Y-96394994D01*
X123294357Y-96395005D01*
X123314890Y-96642812D01*
X123314892Y-96642824D01*
X123375936Y-96883881D01*
X123475826Y-97111606D01*
X123611833Y-97319782D01*
X123644245Y-97354991D01*
X123780256Y-97502738D01*
X123863008Y-97567147D01*
X123903821Y-97623857D01*
X123907496Y-97693630D01*
X123872864Y-97754313D01*
X123863014Y-97762848D01*
X123830656Y-97788034D01*
X123780257Y-97827261D01*
X123611833Y-98010217D01*
X123475826Y-98218393D01*
X123375936Y-98446118D01*
X123314892Y-98687175D01*
X123314890Y-98687187D01*
X123294357Y-98934994D01*
X123294357Y-98935005D01*
X123314890Y-99182812D01*
X123314892Y-99182824D01*
X123375936Y-99423881D01*
X123475826Y-99651606D01*
X123611833Y-99859782D01*
X123611836Y-99859785D01*
X123780256Y-100042738D01*
X123857502Y-100102861D01*
X123883745Y-100123287D01*
X123924558Y-100179997D01*
X123931344Y-100228823D01*
X123929943Y-100251389D01*
X124662425Y-100983871D01*
X124603147Y-100999755D01*
X124486853Y-101066898D01*
X124391898Y-101161853D01*
X124324755Y-101278147D01*
X124308871Y-101337425D01*
X123576563Y-100605117D01*
X123476267Y-100758633D01*
X123476265Y-100758637D01*
X123376412Y-100986282D01*
X123315387Y-101227261D01*
X123315385Y-101227270D01*
X123294859Y-101474994D01*
X123294859Y-101475000D01*
X123315385Y-101722729D01*
X123315387Y-101722738D01*
X123376412Y-101963717D01*
X123476267Y-102191367D01*
X123576562Y-102344881D01*
X124308871Y-101612573D01*
X124324755Y-101671853D01*
X124391898Y-101788147D01*
X124486853Y-101883102D01*
X124603147Y-101950245D01*
X124662425Y-101966128D01*
X123900372Y-102728181D01*
X123839049Y-102761666D01*
X123812691Y-102764500D01*
X123494997Y-102764500D01*
X123300592Y-102795290D01*
X123113388Y-102856117D01*
X122938013Y-102945476D01*
X122847161Y-103011484D01*
X122778774Y-103061171D01*
X122778772Y-103061173D01*
X122778771Y-103061173D01*
X116239566Y-109600377D01*
X116239563Y-109600380D01*
X115739563Y-110100381D01*
X110926174Y-114913770D01*
X110926172Y-114913773D01*
X110876485Y-114982160D01*
X110810476Y-115073013D01*
X110721115Y-115248392D01*
X110721114Y-115248395D01*
X110684132Y-115362218D01*
X110660290Y-115435595D01*
X110660290Y-115435596D01*
X110629500Y-115629996D01*
X110629500Y-119625500D01*
X110609815Y-119692539D01*
X110557011Y-119738294D01*
X110505500Y-119749500D01*
X92569336Y-119749500D01*
X92502297Y-119729815D01*
X92481655Y-119713181D01*
X92286819Y-119518345D01*
X92253334Y-119457022D01*
X92250500Y-119430664D01*
X92250500Y-116152155D01*
X93505000Y-116152155D01*
X93505000Y-117250000D01*
X94704999Y-117250000D01*
X94679979Y-117310402D01*
X94655000Y-117435981D01*
X94655000Y-117564019D01*
X94679979Y-117689598D01*
X94704999Y-117750000D01*
X93505000Y-117750000D01*
X93505000Y-118847844D01*
X93511401Y-118907372D01*
X93511403Y-118907379D01*
X93561645Y-119042086D01*
X93561649Y-119042093D01*
X93647809Y-119157187D01*
X93647812Y-119157190D01*
X93762906Y-119243350D01*
X93762913Y-119243354D01*
X93897620Y-119293596D01*
X93897627Y-119293598D01*
X93957155Y-119299999D01*
X93957172Y-119300000D01*
X95055000Y-119300000D01*
X95055000Y-118100001D01*
X95115402Y-118125021D01*
X95240981Y-118150000D01*
X95369019Y-118150000D01*
X95494598Y-118125021D01*
X95555000Y-118100001D01*
X95555000Y-119300000D01*
X96652828Y-119300000D01*
X96652844Y-119299999D01*
X96712372Y-119293598D01*
X96712379Y-119293596D01*
X96847086Y-119243354D01*
X96847093Y-119243350D01*
X96962187Y-119157190D01*
X96962190Y-119157187D01*
X97048350Y-119042093D01*
X97048354Y-119042086D01*
X97098596Y-118907379D01*
X97098598Y-118907372D01*
X97104999Y-118847844D01*
X97105000Y-118847827D01*
X97105000Y-117750000D01*
X95905001Y-117750000D01*
X95930021Y-117689598D01*
X95955000Y-117564019D01*
X95955000Y-117435981D01*
X95930021Y-117310402D01*
X95905001Y-117250000D01*
X97105000Y-117250000D01*
X97105000Y-116152172D01*
X97104999Y-116152155D01*
X97098598Y-116092627D01*
X97098596Y-116092620D01*
X97048354Y-115957913D01*
X97048350Y-115957906D01*
X96962190Y-115842812D01*
X96962187Y-115842809D01*
X96847093Y-115756649D01*
X96847086Y-115756645D01*
X96712379Y-115706403D01*
X96712372Y-115706401D01*
X96652844Y-115700000D01*
X95555000Y-115700000D01*
X95555000Y-116899998D01*
X95494598Y-116874979D01*
X95369019Y-116850000D01*
X95240981Y-116850000D01*
X95115402Y-116874979D01*
X95055000Y-116899998D01*
X95055000Y-115700000D01*
X93957155Y-115700000D01*
X93897627Y-115706401D01*
X93897620Y-115706403D01*
X93762913Y-115756645D01*
X93762906Y-115756649D01*
X93647812Y-115842809D01*
X93647809Y-115842812D01*
X93561649Y-115957906D01*
X93561645Y-115957913D01*
X93511403Y-116092620D01*
X93511401Y-116092627D01*
X93505000Y-116152155D01*
X92250500Y-116152155D01*
X92250500Y-112499995D01*
X93499451Y-112499995D01*
X93499451Y-112500004D01*
X93519616Y-112769101D01*
X93579664Y-113032188D01*
X93579666Y-113032195D01*
X93678257Y-113283398D01*
X93813185Y-113517102D01*
X93949080Y-113687509D01*
X93981442Y-113728089D01*
X94168183Y-113901358D01*
X94179259Y-113911635D01*
X94402226Y-114063651D01*
X94645359Y-114180738D01*
X94903228Y-114260280D01*
X94903229Y-114260280D01*
X94903232Y-114260281D01*
X95170063Y-114300499D01*
X95170068Y-114300499D01*
X95170071Y-114300500D01*
X95170072Y-114300500D01*
X95439928Y-114300500D01*
X95439929Y-114300500D01*
X95439936Y-114300499D01*
X95706767Y-114260281D01*
X95706768Y-114260280D01*
X95706772Y-114260280D01*
X95964641Y-114180738D01*
X96207775Y-114063651D01*
X96430741Y-113911635D01*
X96628561Y-113728085D01*
X96796815Y-113517102D01*
X96931743Y-113283398D01*
X97030334Y-113032195D01*
X97090383Y-112769103D01*
X97110549Y-112500000D01*
X97097146Y-112321149D01*
X97090384Y-112230906D01*
X97090383Y-112230899D01*
X97086797Y-112215188D01*
X97091068Y-112145449D01*
X97120004Y-112099914D01*
X117185038Y-92034883D01*
X117294530Y-91871016D01*
X117369950Y-91688937D01*
X117408399Y-91495642D01*
X117408399Y-91298561D01*
X117408399Y-91293451D01*
X117408398Y-91293425D01*
X117408398Y-90969690D01*
X117428083Y-90902651D01*
X117430823Y-90898567D01*
X117446626Y-90875998D01*
X117538466Y-90744836D01*
X117634637Y-90538598D01*
X117693533Y-90318794D01*
X117713366Y-90092102D01*
X117693533Y-89865410D01*
X117634637Y-89645606D01*
X117538466Y-89439368D01*
X117407945Y-89252963D01*
X117407943Y-89252960D01*
X117247039Y-89092056D01*
X117060632Y-88961534D01*
X117060630Y-88961533D01*
X116854395Y-88865363D01*
X116854386Y-88865360D01*
X116634595Y-88806468D01*
X116634591Y-88806467D01*
X116634590Y-88806467D01*
X116634589Y-88806466D01*
X116634584Y-88806466D01*
X116407900Y-88786634D01*
X116407896Y-88786634D01*
X116181211Y-88806466D01*
X116181200Y-88806468D01*
X115961409Y-88865360D01*
X115961400Y-88865363D01*
X115755165Y-88961533D01*
X115755163Y-88961534D01*
X115568756Y-89092056D01*
X115407852Y-89252960D01*
X115277330Y-89439367D01*
X115277329Y-89439369D01*
X115181159Y-89645604D01*
X115181156Y-89645613D01*
X115122264Y-89865404D01*
X115122262Y-89865415D01*
X115102430Y-90092100D01*
X115102430Y-90092103D01*
X115122262Y-90318788D01*
X115122264Y-90318799D01*
X115181156Y-90538590D01*
X115181159Y-90538599D01*
X115209042Y-90598393D01*
X115277330Y-90744836D01*
X115334244Y-90826119D01*
X115369170Y-90875998D01*
X115391497Y-90942204D01*
X115374487Y-91009972D01*
X115355276Y-91034802D01*
X95702011Y-110688066D01*
X95640688Y-110721551D01*
X95595849Y-110723000D01*
X95439936Y-110699500D01*
X95439929Y-110699500D01*
X95170071Y-110699500D01*
X95170063Y-110699500D01*
X94903232Y-110739718D01*
X94903226Y-110739720D01*
X94645358Y-110819262D01*
X94402230Y-110936346D01*
X94179258Y-111088365D01*
X93981442Y-111271910D01*
X93813185Y-111482898D01*
X93678258Y-111716599D01*
X93678256Y-111716603D01*
X93579666Y-111967804D01*
X93579664Y-111967811D01*
X93519616Y-112230898D01*
X93499451Y-112499995D01*
X92250500Y-112499995D01*
X92250500Y-101995651D01*
X92270185Y-101928612D01*
X92322989Y-101882857D01*
X92392147Y-101872913D01*
X92445626Y-101894078D01*
X92468218Y-101909898D01*
X92468220Y-101909899D01*
X92682307Y-102009729D01*
X92682316Y-102009733D01*
X92895800Y-102066934D01*
X92895800Y-101169312D01*
X92952807Y-101202225D01*
X93079974Y-101236300D01*
X93211626Y-101236300D01*
X93338793Y-101202225D01*
X93395800Y-101169312D01*
X93395800Y-102066933D01*
X93609283Y-102009733D01*
X93609292Y-102009729D01*
X93823378Y-101909900D01*
X94016882Y-101774405D01*
X94183905Y-101607382D01*
X94319400Y-101413878D01*
X94419229Y-101199792D01*
X94419232Y-101199786D01*
X94476436Y-100986300D01*
X93578812Y-100986300D01*
X93611725Y-100929293D01*
X93645800Y-100802126D01*
X93645800Y-100670474D01*
X93611725Y-100543307D01*
X93578812Y-100486300D01*
X94476436Y-100486300D01*
X94476435Y-100486299D01*
X94419232Y-100272813D01*
X94419229Y-100272807D01*
X94319400Y-100058722D01*
X94319399Y-100058720D01*
X94183913Y-99865226D01*
X94183908Y-99865220D01*
X94016878Y-99698190D01*
X93831205Y-99568179D01*
X93787580Y-99513602D01*
X93780388Y-99444104D01*
X93811910Y-99381749D01*
X93831206Y-99365030D01*
X94017201Y-99234795D01*
X94184295Y-99067701D01*
X94319835Y-98874130D01*
X94419703Y-98659963D01*
X94480863Y-98431708D01*
X94501459Y-98196300D01*
X94480863Y-97960892D01*
X94419703Y-97732637D01*
X94319835Y-97518471D01*
X94318543Y-97516626D01*
X94184296Y-97324900D01*
X94179178Y-97319782D01*
X94062367Y-97202971D01*
X94028884Y-97141651D01*
X94033868Y-97071959D01*
X94075739Y-97016025D01*
X94106715Y-96999110D01*
X94238131Y-96950096D01*
X94353346Y-96863846D01*
X94439596Y-96748631D01*
X94489891Y-96613783D01*
X94496300Y-96554173D01*
X94496299Y-95772080D01*
X94515983Y-95705042D01*
X94532613Y-95684405D01*
X108180201Y-82036819D01*
X108241524Y-82003334D01*
X108267882Y-82000500D01*
X111307412Y-82000500D01*
X111374451Y-82020185D01*
X111378523Y-82022917D01*
X111532266Y-82130568D01*
X111738504Y-82226739D01*
X111958308Y-82285635D01*
X112120230Y-82299801D01*
X112184998Y-82305468D01*
X112185000Y-82305468D01*
X112185002Y-82305468D01*
X112241673Y-82300509D01*
X112411692Y-82285635D01*
X112631496Y-82226739D01*
X112837734Y-82130568D01*
X113024139Y-82000047D01*
X113185047Y-81839139D01*
X113273927Y-81712203D01*
X113328501Y-81668581D01*
X113397999Y-81661387D01*
X113460354Y-81692909D01*
G37*
G04 #@! TD.AperFunction*
G04 #@! TA.AperFunction,Conductor*
G36*
X168853926Y-47560185D02*
G01*
X168859763Y-47564175D01*
X168936306Y-47619787D01*
X169032101Y-47668597D01*
X169092780Y-47699515D01*
X169143576Y-47747490D01*
X169160371Y-47815311D01*
X169137833Y-47881446D01*
X169092780Y-47920485D01*
X168936305Y-48000213D01*
X168775533Y-48117021D01*
X168635021Y-48257533D01*
X168518213Y-48418305D01*
X168427994Y-48595367D01*
X168427993Y-48595370D01*
X168366587Y-48784362D01*
X168335500Y-48980639D01*
X168335500Y-49179360D01*
X168366587Y-49375637D01*
X168427993Y-49564629D01*
X168427994Y-49564632D01*
X168504118Y-49714031D01*
X168518213Y-49741694D01*
X168635019Y-49902464D01*
X168775536Y-50042981D01*
X168936306Y-50159787D01*
X169026645Y-50205817D01*
X169092780Y-50239515D01*
X169143576Y-50287490D01*
X169160371Y-50355311D01*
X169137833Y-50421446D01*
X169092780Y-50460485D01*
X168936305Y-50540213D01*
X168775533Y-50657021D01*
X168635021Y-50797533D01*
X168518213Y-50958305D01*
X168427994Y-51135367D01*
X168427993Y-51135370D01*
X168366587Y-51324362D01*
X168335500Y-51520639D01*
X168335500Y-51719360D01*
X168366587Y-51915637D01*
X168427993Y-52104629D01*
X168427994Y-52104632D01*
X168518213Y-52281694D01*
X168635019Y-52442464D01*
X168775536Y-52582981D01*
X168936306Y-52699787D01*
X169023149Y-52744035D01*
X169113367Y-52790005D01*
X169113373Y-52790007D01*
X169208444Y-52820897D01*
X169266120Y-52860334D01*
X169293319Y-52924692D01*
X169281405Y-52993539D01*
X169244447Y-53038088D01*
X169240813Y-53040808D01*
X169240809Y-53040812D01*
X169154649Y-53155906D01*
X169154645Y-53155913D01*
X169104403Y-53290620D01*
X169104401Y-53290627D01*
X169098000Y-53350155D01*
X169098000Y-53910000D01*
X169917749Y-53910000D01*
X169886619Y-53963919D01*
X169852000Y-54093120D01*
X169852000Y-54226880D01*
X169886619Y-54356081D01*
X169917749Y-54410000D01*
X169098000Y-54410000D01*
X169098000Y-54969844D01*
X169104401Y-55029372D01*
X169104403Y-55029379D01*
X169154645Y-55164086D01*
X169154649Y-55164093D01*
X169240809Y-55279187D01*
X169240812Y-55279190D01*
X169244441Y-55281907D01*
X169286310Y-55337842D01*
X169291292Y-55407534D01*
X169257805Y-55468855D01*
X169208445Y-55499102D01*
X169113370Y-55529993D01*
X169113367Y-55529994D01*
X168936305Y-55620213D01*
X168775533Y-55737021D01*
X168635021Y-55877533D01*
X168518213Y-56038305D01*
X168427994Y-56215367D01*
X168427993Y-56215370D01*
X168366587Y-56404362D01*
X168335500Y-56600639D01*
X168335500Y-56799360D01*
X168366587Y-56995637D01*
X168427993Y-57184629D01*
X168427994Y-57184632D01*
X168484667Y-57295857D01*
X168518213Y-57361694D01*
X168635019Y-57522464D01*
X168775536Y-57662981D01*
X168936306Y-57779787D01*
X169023149Y-57824035D01*
X169113367Y-57870005D01*
X169113370Y-57870006D01*
X169207866Y-57900709D01*
X169302364Y-57931413D01*
X169498639Y-57962500D01*
X169625500Y-57962500D01*
X169692539Y-57982185D01*
X169738294Y-58034989D01*
X169749500Y-58086500D01*
X169749500Y-69953271D01*
X169741682Y-69996604D01*
X169705908Y-70092517D01*
X169699501Y-70152116D01*
X169699501Y-70152123D01*
X169699500Y-70152135D01*
X169699500Y-71847870D01*
X169699501Y-71847876D01*
X169705908Y-71907483D01*
X169756202Y-72042328D01*
X169756206Y-72042335D01*
X169842452Y-72157544D01*
X169842455Y-72157547D01*
X169957664Y-72243793D01*
X169957671Y-72243797D01*
X169988979Y-72255474D01*
X170092517Y-72294091D01*
X170092525Y-72294091D01*
X170100061Y-72295873D01*
X170099412Y-72298617D01*
X170151621Y-72320238D01*
X170161502Y-72329114D01*
X170993181Y-73160793D01*
X171026666Y-73222116D01*
X171029500Y-73248474D01*
X171029500Y-117594666D01*
X171009815Y-117661705D01*
X170957011Y-117707460D01*
X170887853Y-117717404D01*
X170824297Y-117688379D01*
X170803925Y-117665790D01*
X170778109Y-117628921D01*
X170611082Y-117461894D01*
X170417578Y-117326399D01*
X170203492Y-117226570D01*
X170203486Y-117226567D01*
X169990000Y-117169364D01*
X169990000Y-118066988D01*
X169932993Y-118034075D01*
X169805826Y-118000000D01*
X169674174Y-118000000D01*
X169547007Y-118034075D01*
X169490000Y-118066988D01*
X169490000Y-117169364D01*
X169489999Y-117169364D01*
X169276513Y-117226567D01*
X169276507Y-117226570D01*
X169062422Y-117326399D01*
X169062420Y-117326400D01*
X168868926Y-117461886D01*
X168868920Y-117461891D01*
X168701891Y-117628920D01*
X168701890Y-117628922D01*
X168571880Y-117814595D01*
X168517303Y-117858219D01*
X168447804Y-117865412D01*
X168385450Y-117833890D01*
X168368730Y-117814594D01*
X168238494Y-117628597D01*
X168236819Y-117626922D01*
X168236315Y-117626000D01*
X168235014Y-117624449D01*
X168235325Y-117624187D01*
X168203334Y-117565599D01*
X168200500Y-117539241D01*
X168200500Y-117265781D01*
X168220185Y-117198742D01*
X168236815Y-117178104D01*
X168637778Y-116777141D01*
X168637782Y-116777139D01*
X168777139Y-116637782D01*
X168886632Y-116473914D01*
X168962051Y-116291835D01*
X168962051Y-116291832D01*
X168962053Y-116291828D01*
X168978639Y-116208445D01*
X168978639Y-116208443D01*
X168985184Y-116175541D01*
X168985184Y-116175540D01*
X169000500Y-116098541D01*
X169000500Y-109914141D01*
X169020185Y-109847102D01*
X169072989Y-109801347D01*
X169081149Y-109797966D01*
X169092331Y-109793796D01*
X169207546Y-109707546D01*
X169293796Y-109592331D01*
X169344091Y-109457483D01*
X169350500Y-109397873D01*
X169350499Y-107602128D01*
X169344091Y-107542517D01*
X169293796Y-107407669D01*
X169293795Y-107407668D01*
X169293793Y-107407664D01*
X169207547Y-107292455D01*
X169207544Y-107292452D01*
X169092335Y-107206206D01*
X169092328Y-107206202D01*
X168957482Y-107155908D01*
X168957483Y-107155908D01*
X168897883Y-107149501D01*
X168897881Y-107149500D01*
X168897873Y-107149500D01*
X168897864Y-107149500D01*
X167102129Y-107149500D01*
X167102123Y-107149501D01*
X167042516Y-107155908D01*
X166907671Y-107206202D01*
X166907664Y-107206206D01*
X166792455Y-107292452D01*
X166792452Y-107292455D01*
X166706206Y-107407664D01*
X166706202Y-107407671D01*
X166655908Y-107542517D01*
X166649501Y-107602116D01*
X166649501Y-107602123D01*
X166649500Y-107602135D01*
X166649500Y-109397870D01*
X166649501Y-109397876D01*
X166655908Y-109457483D01*
X166706202Y-109592328D01*
X166706206Y-109592335D01*
X166792452Y-109707544D01*
X166792455Y-109707547D01*
X166907665Y-109793794D01*
X166907667Y-109793794D01*
X166907669Y-109793796D01*
X166918830Y-109797958D01*
X166974764Y-109839826D01*
X166999184Y-109905289D01*
X166999500Y-109914141D01*
X166999500Y-115534217D01*
X166979815Y-115601256D01*
X166963181Y-115621898D01*
X166742270Y-115842809D01*
X166562221Y-116022858D01*
X166562218Y-116022861D01*
X166525796Y-116059283D01*
X166422859Y-116162219D01*
X166313371Y-116326079D01*
X166313364Y-116326092D01*
X166237950Y-116508160D01*
X166237947Y-116508170D01*
X166199500Y-116701456D01*
X166199500Y-117539241D01*
X166179815Y-117606280D01*
X166163181Y-117626922D01*
X166161505Y-117628597D01*
X166031575Y-117814158D01*
X165976998Y-117857783D01*
X165907500Y-117864977D01*
X165845145Y-117833454D01*
X165828425Y-117814158D01*
X165698494Y-117628597D01*
X165696819Y-117626922D01*
X165696315Y-117626000D01*
X165695014Y-117624449D01*
X165695325Y-117624187D01*
X165663334Y-117565599D01*
X165660500Y-117539241D01*
X165660500Y-109561458D01*
X165660499Y-109561455D01*
X165627454Y-109395324D01*
X165622052Y-109368170D01*
X165622051Y-109368165D01*
X165584347Y-109277139D01*
X165546633Y-109186089D01*
X165546632Y-109186086D01*
X165437139Y-109022218D01*
X165297782Y-108882861D01*
X165297781Y-108882860D01*
X164886818Y-108471897D01*
X164853333Y-108410574D01*
X164850499Y-108384216D01*
X164850499Y-107602129D01*
X164850498Y-107602123D01*
X164850497Y-107602116D01*
X164844091Y-107542517D01*
X164793796Y-107407669D01*
X164793795Y-107407668D01*
X164793793Y-107407664D01*
X164707547Y-107292455D01*
X164707544Y-107292452D01*
X164592335Y-107206206D01*
X164592328Y-107206202D01*
X164457482Y-107155908D01*
X164457483Y-107155908D01*
X164397883Y-107149501D01*
X164397881Y-107149500D01*
X164397873Y-107149500D01*
X164397864Y-107149500D01*
X162602129Y-107149500D01*
X162602123Y-107149501D01*
X162542516Y-107155908D01*
X162407671Y-107206202D01*
X162407664Y-107206206D01*
X162292455Y-107292452D01*
X162292452Y-107292455D01*
X162206206Y-107407664D01*
X162206202Y-107407671D01*
X162155908Y-107542517D01*
X162149501Y-107602116D01*
X162149501Y-107602123D01*
X162149500Y-107602135D01*
X162149500Y-109397870D01*
X162149501Y-109397876D01*
X162155908Y-109457483D01*
X162206202Y-109592328D01*
X162206206Y-109592335D01*
X162292452Y-109707544D01*
X162292455Y-109707547D01*
X162407664Y-109793793D01*
X162407671Y-109793797D01*
X162542517Y-109844091D01*
X162542516Y-109844091D01*
X162549444Y-109844835D01*
X162602127Y-109850500D01*
X163384216Y-109850499D01*
X163451255Y-109870183D01*
X163471892Y-109886813D01*
X163623182Y-110038102D01*
X163656666Y-110099424D01*
X163659500Y-110125782D01*
X163659500Y-117539241D01*
X163639815Y-117606280D01*
X163623181Y-117626922D01*
X163621505Y-117628597D01*
X163491575Y-117814158D01*
X163436998Y-117857783D01*
X163367500Y-117864977D01*
X163305145Y-117833454D01*
X163288425Y-117814158D01*
X163158494Y-117628597D01*
X162991402Y-117461506D01*
X162991395Y-117461501D01*
X162797834Y-117325967D01*
X162797830Y-117325965D01*
X162764455Y-117310402D01*
X162583663Y-117226097D01*
X162583659Y-117226096D01*
X162583655Y-117226094D01*
X162355413Y-117164938D01*
X162355403Y-117164936D01*
X162120001Y-117144341D01*
X162119999Y-117144341D01*
X161884596Y-117164936D01*
X161884586Y-117164938D01*
X161656344Y-117226094D01*
X161656335Y-117226098D01*
X161442171Y-117325964D01*
X161442169Y-117325965D01*
X161248597Y-117461505D01*
X161081505Y-117628597D01*
X160951575Y-117814158D01*
X160896998Y-117857783D01*
X160827500Y-117864977D01*
X160765145Y-117833454D01*
X160748425Y-117814158D01*
X160618494Y-117628597D01*
X160616819Y-117626922D01*
X160616315Y-117626000D01*
X160615014Y-117624449D01*
X160615325Y-117624187D01*
X160583334Y-117565599D01*
X160580500Y-117539241D01*
X160580500Y-115785161D01*
X160564833Y-115706401D01*
X160556630Y-115665164D01*
X160542051Y-115591868D01*
X160517233Y-115531953D01*
X160509939Y-115514343D01*
X160500500Y-115466890D01*
X160500500Y-74999998D01*
X160774531Y-74999998D01*
X160774531Y-75000001D01*
X160794363Y-75226686D01*
X160794365Y-75226697D01*
X160853257Y-75446488D01*
X160853260Y-75446497D01*
X160920635Y-75590981D01*
X160949431Y-75652734D01*
X161044441Y-75788424D01*
X161057074Y-75806465D01*
X161079401Y-75872671D01*
X161079499Y-75877588D01*
X161079499Y-76903543D01*
X161115692Y-77085497D01*
X161117947Y-77096833D01*
X161117948Y-77096837D01*
X161193363Y-77278906D01*
X161193370Y-77278919D01*
X161302858Y-77442779D01*
X161302859Y-77442780D01*
X161302860Y-77442781D01*
X161442217Y-77582138D01*
X161442218Y-77582138D01*
X161449285Y-77589205D01*
X161449284Y-77589205D01*
X161449288Y-77589208D01*
X167113181Y-83253102D01*
X167146666Y-83314425D01*
X167149500Y-83340783D01*
X167149500Y-84122870D01*
X167149501Y-84122876D01*
X167155908Y-84182483D01*
X167206202Y-84317328D01*
X167206206Y-84317335D01*
X167292452Y-84432544D01*
X167292455Y-84432547D01*
X167407664Y-84518793D01*
X167407671Y-84518797D01*
X167407674Y-84518798D01*
X167539598Y-84568002D01*
X167595531Y-84609873D01*
X167619949Y-84675337D01*
X167605098Y-84743610D01*
X167583947Y-84771865D01*
X167461886Y-84893926D01*
X167326400Y-85087420D01*
X167326399Y-85087422D01*
X167226570Y-85301507D01*
X167226567Y-85301513D01*
X167169364Y-85514999D01*
X167169364Y-85515000D01*
X168066988Y-85515000D01*
X168034075Y-85572007D01*
X168000000Y-85699174D01*
X168000000Y-85830826D01*
X168034075Y-85957993D01*
X168066988Y-86015000D01*
X167169364Y-86015000D01*
X167226567Y-86228486D01*
X167226570Y-86228492D01*
X167326399Y-86442578D01*
X167461894Y-86636082D01*
X167628917Y-86803105D01*
X167822421Y-86938600D01*
X168036507Y-87038429D01*
X168036516Y-87038433D01*
X168250000Y-87095634D01*
X168250000Y-86198012D01*
X168307007Y-86230925D01*
X168434174Y-86265000D01*
X168565826Y-86265000D01*
X168692993Y-86230925D01*
X168750000Y-86198012D01*
X168750000Y-87095633D01*
X168963483Y-87038433D01*
X168963492Y-87038429D01*
X169177578Y-86938600D01*
X169371082Y-86803105D01*
X169538105Y-86636082D01*
X169673600Y-86442578D01*
X169773429Y-86228492D01*
X169773432Y-86228486D01*
X169830636Y-86015000D01*
X168933012Y-86015000D01*
X168965925Y-85957993D01*
X169000000Y-85830826D01*
X169000000Y-85699174D01*
X168965925Y-85572007D01*
X168933012Y-85515000D01*
X169830636Y-85515000D01*
X169830635Y-85514999D01*
X169773432Y-85301513D01*
X169773429Y-85301507D01*
X169673600Y-85087422D01*
X169673599Y-85087420D01*
X169538113Y-84893926D01*
X169538108Y-84893920D01*
X169416053Y-84771865D01*
X169382568Y-84710542D01*
X169387552Y-84640850D01*
X169429424Y-84584917D01*
X169460400Y-84568002D01*
X169592331Y-84518796D01*
X169707546Y-84432546D01*
X169793796Y-84317331D01*
X169844091Y-84182483D01*
X169850500Y-84122873D01*
X169850499Y-82327128D01*
X169844091Y-82267517D01*
X169842308Y-82262737D01*
X169793796Y-82132669D01*
X169793793Y-82132664D01*
X169707547Y-82017455D01*
X169707544Y-82017452D01*
X169592335Y-81931206D01*
X169592328Y-81931202D01*
X169457482Y-81880908D01*
X169457483Y-81880908D01*
X169397883Y-81874501D01*
X169397881Y-81874500D01*
X169397873Y-81874500D01*
X169397865Y-81874500D01*
X168615783Y-81874500D01*
X168548744Y-81854815D01*
X168528102Y-81838181D01*
X163116818Y-76426897D01*
X163083333Y-76365574D01*
X163080499Y-76339216D01*
X163080499Y-75877588D01*
X163100184Y-75810549D01*
X163102924Y-75806465D01*
X163112410Y-75792918D01*
X163210567Y-75652734D01*
X163306738Y-75446496D01*
X163365634Y-75226692D01*
X163385467Y-75000000D01*
X163365634Y-74773308D01*
X163312636Y-74575517D01*
X163306740Y-74553511D01*
X163306737Y-74553502D01*
X163300220Y-74539526D01*
X163210567Y-74347266D01*
X163080046Y-74160861D01*
X163080044Y-74160858D01*
X162919140Y-73999954D01*
X162732733Y-73869432D01*
X162732731Y-73869431D01*
X162526496Y-73773261D01*
X162526487Y-73773258D01*
X162306696Y-73714366D01*
X162306692Y-73714365D01*
X162306691Y-73714365D01*
X162306690Y-73714364D01*
X162306685Y-73714364D01*
X162080001Y-73694532D01*
X162079997Y-73694532D01*
X161853312Y-73714364D01*
X161853301Y-73714366D01*
X161633510Y-73773258D01*
X161633501Y-73773261D01*
X161427266Y-73869431D01*
X161427264Y-73869432D01*
X161240857Y-73999954D01*
X161079953Y-74160858D01*
X160949431Y-74347265D01*
X160949430Y-74347267D01*
X160853260Y-74553502D01*
X160853257Y-74553511D01*
X160794365Y-74773302D01*
X160794363Y-74773313D01*
X160774531Y-74999998D01*
X160500500Y-74999998D01*
X160500500Y-66401456D01*
X160462052Y-66208170D01*
X160462051Y-66208169D01*
X160462051Y-66208165D01*
X160462049Y-66208160D01*
X160386635Y-66026092D01*
X160386628Y-66026079D01*
X160277139Y-65862218D01*
X160277136Y-65862214D01*
X160137784Y-65722862D01*
X160137781Y-65722860D01*
X159973920Y-65613371D01*
X159973907Y-65613364D01*
X159791839Y-65537950D01*
X159791829Y-65537947D01*
X159598543Y-65499500D01*
X159598541Y-65499500D01*
X153673888Y-65499500D01*
X153673868Y-65499499D01*
X153667754Y-65499499D01*
X153470673Y-65499499D01*
X153470670Y-65499499D01*
X153277385Y-65537946D01*
X153277377Y-65537948D01*
X153095301Y-65613366D01*
X153095292Y-65613371D01*
X152931432Y-65722859D01*
X151346257Y-67308034D01*
X151284934Y-67341519D01*
X151215242Y-67336535D01*
X151182414Y-67318207D01*
X151023506Y-67194524D01*
X150804811Y-67076172D01*
X150804802Y-67076169D01*
X150569616Y-66995429D01*
X150324335Y-66954500D01*
X150284292Y-66954500D01*
X150217253Y-66934815D01*
X150171498Y-66882011D01*
X150161554Y-66812853D01*
X150190579Y-66749297D01*
X150249357Y-66711523D01*
X150252164Y-66710734D01*
X150343887Y-66686158D01*
X150555888Y-66598344D01*
X150754612Y-66483611D01*
X150936661Y-66343919D01*
X150936665Y-66343914D01*
X150936670Y-66343911D01*
X151098911Y-66181670D01*
X151098914Y-66181665D01*
X151098919Y-66181661D01*
X151238611Y-65999612D01*
X151353344Y-65800888D01*
X151441158Y-65588887D01*
X151500548Y-65367238D01*
X151530500Y-65139734D01*
X151530500Y-64910266D01*
X151500548Y-64682762D01*
X151441158Y-64461113D01*
X151379479Y-64312208D01*
X151353349Y-64249123D01*
X151353346Y-64249117D01*
X151353344Y-64249112D01*
X151238611Y-64050388D01*
X151238608Y-64050385D01*
X151238607Y-64050382D01*
X151098918Y-63868338D01*
X151098911Y-63868330D01*
X150936670Y-63706089D01*
X150936661Y-63706081D01*
X150754617Y-63566392D01*
X150555890Y-63451657D01*
X150555876Y-63451650D01*
X150343887Y-63363842D01*
X150122238Y-63304452D01*
X150028007Y-63292046D01*
X149964111Y-63263779D01*
X149925640Y-63205455D01*
X149924809Y-63135590D01*
X149956510Y-63081428D01*
X165461121Y-47576819D01*
X165522444Y-47543334D01*
X165548802Y-47540500D01*
X168786887Y-47540500D01*
X168853926Y-47560185D01*
G37*
G04 #@! TD.AperFunction*
G04 #@! TA.AperFunction,Conductor*
G36*
X155136257Y-74555185D02*
G01*
X155156899Y-74571819D01*
X155673111Y-75088031D01*
X155706596Y-75149354D01*
X155708958Y-75164902D01*
X155714364Y-75226688D01*
X155714366Y-75226697D01*
X155773258Y-75446488D01*
X155773261Y-75446497D01*
X155869431Y-75652732D01*
X155869432Y-75652734D01*
X155999954Y-75839141D01*
X156160858Y-76000045D01*
X156160861Y-76000047D01*
X156347266Y-76130568D01*
X156553504Y-76226739D01*
X156773308Y-76285635D01*
X156935230Y-76299801D01*
X156999998Y-76305468D01*
X157000000Y-76305468D01*
X157000002Y-76305468D01*
X157056673Y-76300509D01*
X157226692Y-76285635D01*
X157446496Y-76226739D01*
X157652734Y-76130568D01*
X157839139Y-76000047D01*
X158000047Y-75839139D01*
X158130568Y-75652734D01*
X158226739Y-75446496D01*
X158255725Y-75338317D01*
X158292090Y-75278657D01*
X158354936Y-75248128D01*
X158424312Y-75256422D01*
X158478190Y-75300908D01*
X158499465Y-75367459D01*
X158499500Y-75370411D01*
X158499500Y-115902248D01*
X158529992Y-116055540D01*
X158537947Y-116095533D01*
X158537948Y-116095537D01*
X158570061Y-116173064D01*
X158579500Y-116220517D01*
X158579500Y-117539241D01*
X158559815Y-117606280D01*
X158543181Y-117626922D01*
X158541505Y-117628597D01*
X158411575Y-117814158D01*
X158356998Y-117857783D01*
X158287500Y-117864977D01*
X158225145Y-117833454D01*
X158208425Y-117814158D01*
X158078494Y-117628597D01*
X158076819Y-117626922D01*
X158076315Y-117626000D01*
X158075014Y-117624449D01*
X158075325Y-117624187D01*
X158043334Y-117565599D01*
X158040500Y-117539241D01*
X158040500Y-115908379D01*
X158040501Y-115908358D01*
X158040501Y-115705161D01*
X158040500Y-115705159D01*
X158002883Y-115516044D01*
X158000500Y-115491853D01*
X158000500Y-86442245D01*
X158000499Y-86442242D01*
X157970008Y-86288951D01*
X157962052Y-86248957D01*
X157962050Y-86248948D01*
X157939961Y-86195620D01*
X157886635Y-86066879D01*
X157886628Y-86066866D01*
X157777139Y-85903005D01*
X157777136Y-85903001D01*
X157634686Y-85760551D01*
X157634655Y-85760522D01*
X152395692Y-80521559D01*
X152395672Y-80521537D01*
X152251998Y-80377863D01*
X152251994Y-80377860D01*
X152088133Y-80268371D01*
X152088120Y-80268364D01*
X151927869Y-80201987D01*
X151906050Y-80192949D01*
X151906042Y-80192947D01*
X151809401Y-80173724D01*
X151712757Y-80154500D01*
X151712754Y-80154500D01*
X151372855Y-80154500D01*
X151305816Y-80134815D01*
X151281626Y-80114483D01*
X151219744Y-80047262D01*
X151183078Y-80018724D01*
X151136991Y-79982852D01*
X151096179Y-79926143D01*
X151092504Y-79856370D01*
X151127136Y-79795687D01*
X151136985Y-79787151D01*
X151219744Y-79722738D01*
X151245709Y-79694532D01*
X151281626Y-79655517D01*
X151341513Y-79619526D01*
X151372855Y-79615500D01*
X153149218Y-79615500D01*
X153216257Y-79635185D01*
X153236899Y-79651819D01*
X154113181Y-80528102D01*
X154146666Y-80589425D01*
X154149500Y-80615783D01*
X154149500Y-81397870D01*
X154149501Y-81397876D01*
X154155908Y-81457483D01*
X154206202Y-81592328D01*
X154206206Y-81592335D01*
X154292452Y-81707544D01*
X154292455Y-81707547D01*
X154407664Y-81793793D01*
X154407671Y-81793797D01*
X154542517Y-81844091D01*
X154542516Y-81844091D01*
X154549444Y-81844835D01*
X154602127Y-81850500D01*
X156397872Y-81850499D01*
X156457483Y-81844091D01*
X156592331Y-81793796D01*
X156707546Y-81707546D01*
X156793796Y-81592331D01*
X156844091Y-81457483D01*
X156850500Y-81397873D01*
X156850499Y-79602128D01*
X156844091Y-79542517D01*
X156793796Y-79407669D01*
X156793795Y-79407668D01*
X156793793Y-79407664D01*
X156707547Y-79292455D01*
X156707544Y-79292452D01*
X156592335Y-79206206D01*
X156592328Y-79206202D01*
X156457482Y-79155908D01*
X156457483Y-79155908D01*
X156397883Y-79149501D01*
X156397881Y-79149500D01*
X156397873Y-79149500D01*
X156397865Y-79149500D01*
X155615783Y-79149500D01*
X155548744Y-79129815D01*
X155528102Y-79113181D01*
X154399209Y-77984289D01*
X154399206Y-77984285D01*
X154399206Y-77984286D01*
X154392139Y-77977219D01*
X154392139Y-77977218D01*
X154252782Y-77837861D01*
X154252781Y-77837860D01*
X154252780Y-77837859D01*
X154088920Y-77728371D01*
X154088911Y-77728366D01*
X153996805Y-77690215D01*
X153960165Y-77675038D01*
X153906836Y-77652949D01*
X153906832Y-77652948D01*
X153906828Y-77652946D01*
X153810188Y-77633724D01*
X153713544Y-77614500D01*
X153713541Y-77614500D01*
X151372855Y-77614500D01*
X151305816Y-77594815D01*
X151281626Y-77574483D01*
X151219747Y-77507265D01*
X151219744Y-77507262D01*
X151219743Y-77507261D01*
X151136991Y-77442852D01*
X151096179Y-77386143D01*
X151092504Y-77316370D01*
X151127136Y-77255687D01*
X151136985Y-77247151D01*
X151219744Y-77182738D01*
X151388164Y-76999785D01*
X151524173Y-76791607D01*
X151624063Y-76563881D01*
X151685108Y-76322821D01*
X151686546Y-76305468D01*
X151705643Y-76075005D01*
X151705643Y-76074994D01*
X151685109Y-75827187D01*
X151685107Y-75827175D01*
X151624063Y-75586118D01*
X151524173Y-75358393D01*
X151388166Y-75150217D01*
X151366557Y-75126744D01*
X151219744Y-74967262D01*
X151136991Y-74902852D01*
X151096179Y-74846143D01*
X151092504Y-74776370D01*
X151127136Y-74715687D01*
X151136985Y-74707151D01*
X151219744Y-74642738D01*
X151263884Y-74594789D01*
X151281626Y-74575517D01*
X151341513Y-74539526D01*
X151372855Y-74535500D01*
X155069218Y-74535500D01*
X155136257Y-74555185D01*
G37*
G04 #@! TD.AperFunction*
G04 #@! TA.AperFunction,Conductor*
G36*
X133912945Y-47102406D02*
G01*
X133940734Y-47117013D01*
X134014158Y-47168425D01*
X134057783Y-47223002D01*
X134064977Y-47292500D01*
X134033454Y-47354855D01*
X134014158Y-47371575D01*
X133828597Y-47501505D01*
X133661505Y-47668597D01*
X133525965Y-47862169D01*
X133525964Y-47862171D01*
X133462342Y-47998609D01*
X133426409Y-48075669D01*
X133426098Y-48076335D01*
X133426094Y-48076344D01*
X133364938Y-48304586D01*
X133364936Y-48304596D01*
X133344341Y-48539999D01*
X133344341Y-48540000D01*
X133364936Y-48775403D01*
X133364938Y-48775413D01*
X133426094Y-49003655D01*
X133426096Y-49003659D01*
X133426097Y-49003663D01*
X133508026Y-49179360D01*
X133525965Y-49217830D01*
X133525967Y-49217834D01*
X133661501Y-49411395D01*
X133661506Y-49411402D01*
X133663181Y-49413077D01*
X133663682Y-49413995D01*
X133664982Y-49415544D01*
X133664670Y-49415805D01*
X133696666Y-49474400D01*
X133699500Y-49500758D01*
X133699500Y-51834217D01*
X133679815Y-51901256D01*
X133663181Y-51921898D01*
X131736999Y-53848080D01*
X129862221Y-55722858D01*
X129862218Y-55722861D01*
X129792538Y-55792540D01*
X129722859Y-55862219D01*
X129613371Y-56026079D01*
X129613364Y-56026092D01*
X129537950Y-56208160D01*
X129537947Y-56208170D01*
X129499500Y-56401456D01*
X129499500Y-94183430D01*
X129479815Y-94250469D01*
X129463181Y-94271111D01*
X125946257Y-97788034D01*
X125884934Y-97821519D01*
X125815242Y-97816535D01*
X125782414Y-97798207D01*
X125769344Y-97788034D01*
X125736991Y-97762852D01*
X125696179Y-97706144D01*
X125692504Y-97636371D01*
X125727135Y-97575687D01*
X125736985Y-97567151D01*
X125819744Y-97502738D01*
X125988164Y-97319785D01*
X126124173Y-97111607D01*
X126224063Y-96883881D01*
X126285108Y-96642821D01*
X126287514Y-96613783D01*
X126305643Y-96395005D01*
X126305643Y-96394994D01*
X126285109Y-96147187D01*
X126285107Y-96147175D01*
X126224063Y-95906118D01*
X126124173Y-95678393D01*
X125988166Y-95470217D01*
X125947785Y-95426352D01*
X125819744Y-95287262D01*
X125736991Y-95222852D01*
X125696179Y-95166143D01*
X125692504Y-95096370D01*
X125727136Y-95035687D01*
X125736985Y-95027151D01*
X125819744Y-94962738D01*
X125988164Y-94779785D01*
X126124173Y-94571607D01*
X126224063Y-94343881D01*
X126285108Y-94102821D01*
X126305643Y-93855000D01*
X126285108Y-93607179D01*
X126224063Y-93366119D01*
X126124173Y-93138393D01*
X126099500Y-93100628D01*
X125988166Y-92930217D01*
X125966557Y-92906744D01*
X125819744Y-92747262D01*
X125736991Y-92682852D01*
X125696179Y-92626143D01*
X125692504Y-92556370D01*
X125727136Y-92495687D01*
X125736985Y-92487151D01*
X125819744Y-92422738D01*
X125844194Y-92396177D01*
X125881626Y-92355517D01*
X125941513Y-92319526D01*
X125972855Y-92315500D01*
X126783543Y-92315500D01*
X126890005Y-92294322D01*
X126943238Y-92283734D01*
X126976836Y-92277051D01*
X127030165Y-92254961D01*
X127158914Y-92201632D01*
X127322782Y-92092139D01*
X127462139Y-91952782D01*
X127462139Y-91952780D01*
X127472347Y-91942573D01*
X127472348Y-91942570D01*
X128297139Y-91117782D01*
X128318498Y-91085814D01*
X128360360Y-91023166D01*
X128360360Y-91023165D01*
X128369175Y-91009972D01*
X128406632Y-90953914D01*
X128406635Y-90953907D01*
X128459566Y-90826120D01*
X128459566Y-90826119D01*
X128459566Y-90826118D01*
X128482051Y-90771836D01*
X128520500Y-90578541D01*
X128520500Y-90381460D01*
X128520500Y-52443700D01*
X128540185Y-52376661D01*
X128556814Y-52356024D01*
X133781932Y-47130905D01*
X133843253Y-47097422D01*
X133912945Y-47102406D01*
G37*
G04 #@! TD.AperFunction*
G04 #@! TA.AperFunction,Conductor*
G36*
X146448834Y-64068599D02*
G01*
X146504767Y-64110471D01*
X146529184Y-64175935D01*
X146529500Y-64184781D01*
X146529500Y-87128541D01*
X146529500Y-87128543D01*
X146529499Y-87128543D01*
X146567947Y-87321829D01*
X146567950Y-87321839D01*
X146584234Y-87361152D01*
X146591703Y-87430622D01*
X146560427Y-87493101D01*
X146500338Y-87528752D01*
X146430513Y-87526258D01*
X146381992Y-87496285D01*
X143536819Y-84651112D01*
X143503334Y-84589789D01*
X143500500Y-84563431D01*
X143500500Y-66965781D01*
X143520185Y-66898742D01*
X143536814Y-66878105D01*
X146317819Y-64097099D01*
X146379142Y-64063615D01*
X146448834Y-64068599D01*
G37*
G04 #@! TD.AperFunction*
G04 #@! TA.AperFunction,Conductor*
G36*
X133337581Y-41949852D02*
G01*
X133393514Y-41991724D01*
X133403082Y-42006613D01*
X133406205Y-42012334D01*
X133492452Y-42127544D01*
X133492455Y-42127547D01*
X133607664Y-42213793D01*
X133607671Y-42213797D01*
X133739081Y-42262810D01*
X133795015Y-42304681D01*
X133819432Y-42370145D01*
X133804580Y-42438418D01*
X133783430Y-42466673D01*
X133661503Y-42588600D01*
X133525965Y-42782169D01*
X133525964Y-42782171D01*
X133426098Y-42996335D01*
X133426094Y-42996344D01*
X133364938Y-43224586D01*
X133364936Y-43224596D01*
X133344341Y-43459999D01*
X133344341Y-43460000D01*
X133364936Y-43695403D01*
X133364938Y-43695413D01*
X133426094Y-43923655D01*
X133426096Y-43923659D01*
X133426097Y-43923663D01*
X133477868Y-44034685D01*
X133525965Y-44137830D01*
X133525967Y-44137834D01*
X133615010Y-44265000D01*
X133661102Y-44330826D01*
X133661501Y-44331395D01*
X133661506Y-44331402D01*
X133663181Y-44333077D01*
X133663682Y-44333995D01*
X133664982Y-44335544D01*
X133664670Y-44335805D01*
X133696666Y-44394400D01*
X133699500Y-44420758D01*
X133699500Y-44875500D01*
X133679815Y-44942539D01*
X133627011Y-44988294D01*
X133575500Y-44999500D01*
X133399374Y-44999500D01*
X133302731Y-45018724D01*
X133206086Y-45037947D01*
X133206080Y-45037949D01*
X133152753Y-45060037D01*
X133152753Y-45060038D01*
X133139328Y-45065599D01*
X133024008Y-45113366D01*
X133023998Y-45113371D01*
X132860138Y-45222859D01*
X132820498Y-45262500D01*
X132720780Y-45362218D01*
X132720777Y-45362221D01*
X126882221Y-51200777D01*
X126882218Y-51200780D01*
X126812538Y-51270459D01*
X126742859Y-51340138D01*
X126633371Y-51503998D01*
X126633364Y-51504011D01*
X126557950Y-51686079D01*
X126557947Y-51686089D01*
X126519500Y-51879375D01*
X126519500Y-63525871D01*
X126499815Y-63592910D01*
X126447011Y-63638665D01*
X126377853Y-63648609D01*
X126320014Y-63624247D01*
X126244612Y-63566389D01*
X126045888Y-63451656D01*
X126045876Y-63451650D01*
X125833887Y-63363842D01*
X125612238Y-63304452D01*
X125574215Y-63299446D01*
X125384741Y-63274500D01*
X125384734Y-63274500D01*
X125155266Y-63274500D01*
X125155258Y-63274500D01*
X124938715Y-63303009D01*
X124927762Y-63304452D01*
X124834076Y-63329554D01*
X124706112Y-63363842D01*
X124494123Y-63451650D01*
X124494109Y-63451657D01*
X124295382Y-63566392D01*
X124113338Y-63706081D01*
X123951081Y-63868338D01*
X123811392Y-64050382D01*
X123696657Y-64249109D01*
X123696650Y-64249123D01*
X123608842Y-64461112D01*
X123549453Y-64682759D01*
X123549451Y-64682770D01*
X123519500Y-64910258D01*
X123519500Y-65139741D01*
X123537086Y-65273313D01*
X123549452Y-65367238D01*
X123595193Y-65537946D01*
X123608842Y-65588887D01*
X123696650Y-65800876D01*
X123696657Y-65800890D01*
X123811392Y-65999617D01*
X123951081Y-66181661D01*
X123951089Y-66181670D01*
X124113330Y-66343911D01*
X124113338Y-66343918D01*
X124295382Y-66483607D01*
X124295385Y-66483608D01*
X124295388Y-66483611D01*
X124494112Y-66598344D01*
X124494117Y-66598346D01*
X124494123Y-66598349D01*
X124571905Y-66630567D01*
X124706113Y-66686158D01*
X124797802Y-66710725D01*
X124857462Y-66747090D01*
X124887991Y-66809937D01*
X124879696Y-66879312D01*
X124835211Y-66933190D01*
X124768659Y-66954465D01*
X124765708Y-66954500D01*
X124675665Y-66954500D01*
X124430383Y-66995429D01*
X124195197Y-67076169D01*
X124195188Y-67076172D01*
X123976493Y-67194524D01*
X123780257Y-67347261D01*
X123611833Y-67530217D01*
X123475826Y-67738393D01*
X123375936Y-67966118D01*
X123314892Y-68207175D01*
X123314890Y-68207187D01*
X123294357Y-68454994D01*
X123294357Y-68455005D01*
X123314890Y-68702812D01*
X123314892Y-68702824D01*
X123375936Y-68943881D01*
X123475826Y-69171606D01*
X123611833Y-69379782D01*
X123611836Y-69379785D01*
X123780256Y-69562738D01*
X123863008Y-69627147D01*
X123903821Y-69683857D01*
X123907496Y-69753630D01*
X123872864Y-69814313D01*
X123863014Y-69822848D01*
X123808576Y-69865220D01*
X123780257Y-69887261D01*
X123611833Y-70070217D01*
X123475826Y-70278393D01*
X123375936Y-70506118D01*
X123314892Y-70747175D01*
X123314890Y-70747187D01*
X123294357Y-70994994D01*
X123294357Y-70995005D01*
X123314890Y-71242806D01*
X123314892Y-71242824D01*
X123375936Y-71483881D01*
X123475826Y-71711606D01*
X123611833Y-71919782D01*
X123611836Y-71919785D01*
X123780256Y-72102738D01*
X123863008Y-72167147D01*
X123903821Y-72223857D01*
X123907496Y-72293630D01*
X123872864Y-72354313D01*
X123863014Y-72362848D01*
X123832870Y-72386311D01*
X123780257Y-72427261D01*
X123611833Y-72610217D01*
X123475826Y-72818393D01*
X123375936Y-73046118D01*
X123314892Y-73287175D01*
X123314890Y-73287187D01*
X123294357Y-73534994D01*
X123294357Y-73535005D01*
X123314890Y-73782812D01*
X123314892Y-73782824D01*
X123375936Y-74023881D01*
X123475826Y-74251606D01*
X123611833Y-74459782D01*
X123611836Y-74459785D01*
X123780256Y-74642738D01*
X123863008Y-74707147D01*
X123903821Y-74763857D01*
X123907496Y-74833630D01*
X123872864Y-74894313D01*
X123863014Y-74902848D01*
X123820842Y-74935673D01*
X123780257Y-74967261D01*
X123611833Y-75150217D01*
X123475826Y-75358393D01*
X123375936Y-75586118D01*
X123314892Y-75827175D01*
X123314890Y-75827187D01*
X123294357Y-76074994D01*
X123294357Y-76075005D01*
X123314890Y-76322812D01*
X123314892Y-76322824D01*
X123375936Y-76563881D01*
X123475826Y-76791606D01*
X123611833Y-76999782D01*
X123611836Y-76999785D01*
X123780256Y-77182738D01*
X123863008Y-77247147D01*
X123903821Y-77303857D01*
X123907496Y-77373630D01*
X123872864Y-77434313D01*
X123863014Y-77442848D01*
X123804400Y-77488469D01*
X123780257Y-77507261D01*
X123611833Y-77690217D01*
X123475826Y-77898393D01*
X123375936Y-78126118D01*
X123314892Y-78367175D01*
X123314890Y-78367187D01*
X123294357Y-78614994D01*
X123294357Y-78615005D01*
X123314890Y-78862812D01*
X123314892Y-78862824D01*
X123375936Y-79103881D01*
X123475826Y-79331606D01*
X123611833Y-79539782D01*
X123611836Y-79539785D01*
X123780256Y-79722738D01*
X123863008Y-79787147D01*
X123903821Y-79843857D01*
X123907496Y-79913630D01*
X123872864Y-79974313D01*
X123863014Y-79982848D01*
X123816922Y-80018724D01*
X123780256Y-80047262D01*
X123718374Y-80114483D01*
X123658487Y-80150474D01*
X123627145Y-80154500D01*
X123351569Y-80154500D01*
X123284530Y-80134815D01*
X123263888Y-80118181D01*
X117801819Y-74656112D01*
X117768334Y-74594789D01*
X117765500Y-74568431D01*
X117765500Y-66377588D01*
X117785185Y-66310549D01*
X117787917Y-66306476D01*
X117895568Y-66152734D01*
X117991739Y-65946496D01*
X118050635Y-65726692D01*
X118070468Y-65500000D01*
X118050635Y-65273308D01*
X117991739Y-65053504D01*
X117895568Y-64847266D01*
X117765047Y-64660861D01*
X117765045Y-64660858D01*
X117604141Y-64499954D01*
X117417734Y-64369432D01*
X117417732Y-64369431D01*
X117211497Y-64273261D01*
X117211488Y-64273258D01*
X116991697Y-64214366D01*
X116991693Y-64214365D01*
X116991692Y-64214365D01*
X116991691Y-64214364D01*
X116991686Y-64214364D01*
X116765002Y-64194532D01*
X116764998Y-64194532D01*
X116538313Y-64214364D01*
X116538302Y-64214366D01*
X116318511Y-64273258D01*
X116318502Y-64273261D01*
X116112267Y-64369431D01*
X116112265Y-64369432D01*
X115925858Y-64499954D01*
X115764953Y-64660859D01*
X115726075Y-64716384D01*
X115671498Y-64760009D01*
X115602000Y-64767203D01*
X115539645Y-64735680D01*
X115504231Y-64675450D01*
X115500500Y-64645261D01*
X115500500Y-59735782D01*
X115520185Y-59668743D01*
X115536819Y-59648101D01*
X124289143Y-50895777D01*
X133206568Y-41978351D01*
X133267889Y-41944868D01*
X133337581Y-41949852D01*
G37*
G04 #@! TD.AperFunction*
G04 #@! TA.AperFunction,Conductor*
G36*
X158442539Y-67520185D02*
G01*
X158488294Y-67572989D01*
X158499500Y-67624500D01*
X158499500Y-74629588D01*
X158479815Y-74696627D01*
X158427011Y-74742382D01*
X158357853Y-74752326D01*
X158294297Y-74723301D01*
X158256523Y-74664523D01*
X158255725Y-74661681D01*
X158226741Y-74553511D01*
X158226738Y-74553502D01*
X158220221Y-74539526D01*
X158130568Y-74347266D01*
X158000047Y-74160861D01*
X158000045Y-74160858D01*
X157839141Y-73999954D01*
X157652734Y-73869432D01*
X157652732Y-73869431D01*
X157446497Y-73773261D01*
X157446488Y-73773258D01*
X157226697Y-73714366D01*
X157226688Y-73714364D01*
X157164902Y-73708958D01*
X157099834Y-73683504D01*
X157088031Y-73673111D01*
X156316479Y-72901559D01*
X156316459Y-72901537D01*
X156172785Y-72757863D01*
X156172781Y-72757860D01*
X156008920Y-72648371D01*
X156008911Y-72648366D01*
X155916805Y-72610215D01*
X155880165Y-72595038D01*
X155826836Y-72572949D01*
X155826832Y-72572948D01*
X155826828Y-72572946D01*
X155730188Y-72553724D01*
X155633544Y-72534500D01*
X155633541Y-72534500D01*
X151372855Y-72534500D01*
X151305816Y-72514815D01*
X151281626Y-72494483D01*
X151219747Y-72427265D01*
X151219744Y-72427262D01*
X151167130Y-72386311D01*
X151136991Y-72362852D01*
X151096179Y-72306143D01*
X151092504Y-72236370D01*
X151127136Y-72175687D01*
X151136985Y-72167151D01*
X151219744Y-72102738D01*
X151244194Y-72076177D01*
X151281626Y-72035517D01*
X151341513Y-71999526D01*
X151372855Y-71995500D01*
X154603543Y-71995500D01*
X154700175Y-71976278D01*
X154748493Y-71966667D01*
X154796836Y-71957051D01*
X154850165Y-71934961D01*
X154978914Y-71881632D01*
X155142782Y-71772139D01*
X155282139Y-71632782D01*
X155282139Y-71632780D01*
X155292347Y-71622573D01*
X155292349Y-71622570D01*
X155528101Y-71386818D01*
X155589424Y-71353333D01*
X155615782Y-71350499D01*
X156397871Y-71350499D01*
X156397872Y-71350499D01*
X156457483Y-71344091D01*
X156592331Y-71293796D01*
X156707546Y-71207546D01*
X156793796Y-71092331D01*
X156844091Y-70957483D01*
X156850500Y-70897873D01*
X156850499Y-69102128D01*
X156844091Y-69042517D01*
X156793796Y-68907669D01*
X156793795Y-68907668D01*
X156793793Y-68907664D01*
X156707547Y-68792455D01*
X156707544Y-68792452D01*
X156592335Y-68706206D01*
X156592328Y-68706202D01*
X156457482Y-68655908D01*
X156457483Y-68655908D01*
X156397883Y-68649501D01*
X156397881Y-68649500D01*
X156397873Y-68649500D01*
X156397864Y-68649500D01*
X154602129Y-68649500D01*
X154602123Y-68649501D01*
X154542516Y-68655908D01*
X154407671Y-68706202D01*
X154407664Y-68706206D01*
X154292455Y-68792452D01*
X154292452Y-68792455D01*
X154206206Y-68907664D01*
X154206202Y-68907671D01*
X154155908Y-69042517D01*
X154149501Y-69102116D01*
X154149501Y-69102123D01*
X154149500Y-69102135D01*
X154149500Y-69870500D01*
X154129815Y-69937539D01*
X154077011Y-69983294D01*
X154025500Y-69994500D01*
X151372855Y-69994500D01*
X151305816Y-69974815D01*
X151281626Y-69954483D01*
X151219747Y-69887265D01*
X151219744Y-69887262D01*
X151197396Y-69869868D01*
X151136991Y-69822852D01*
X151096179Y-69766143D01*
X151092504Y-69696370D01*
X151127136Y-69635687D01*
X151136985Y-69627151D01*
X151219744Y-69562738D01*
X151264977Y-69513602D01*
X151281626Y-69495517D01*
X151341513Y-69459526D01*
X151372855Y-69455500D01*
X151712756Y-69455500D01*
X151809388Y-69436278D01*
X151857706Y-69426667D01*
X151906049Y-69417051D01*
X151959378Y-69394961D01*
X152088127Y-69341632D01*
X152251995Y-69232139D01*
X152391352Y-69092782D01*
X152391352Y-69092780D01*
X152401560Y-69082573D01*
X152401561Y-69082570D01*
X153947315Y-67536819D01*
X154008638Y-67503334D01*
X154034996Y-67500500D01*
X158375500Y-67500500D01*
X158442539Y-67520185D01*
G37*
G04 #@! TD.AperFunction*
G04 #@! TA.AperFunction,NonConductor*
G36*
X115705703Y-66261024D02*
G01*
X115726071Y-66283610D01*
X115742076Y-66306467D01*
X115764403Y-66372672D01*
X115764500Y-66377588D01*
X115764500Y-75132757D01*
X115802947Y-75326046D01*
X115802949Y-75326050D01*
X115825038Y-75379377D01*
X115878366Y-75508124D01*
X115878371Y-75508133D01*
X115987860Y-75671994D01*
X115987863Y-75671998D01*
X116131537Y-75815672D01*
X116131559Y-75815692D01*
X122105522Y-81789655D01*
X122105551Y-81789686D01*
X122248001Y-81932136D01*
X122248005Y-81932139D01*
X122411866Y-82041628D01*
X122411879Y-82041635D01*
X122540620Y-82094961D01*
X122569785Y-82107041D01*
X122593951Y-82117051D01*
X122672468Y-82132669D01*
X122701162Y-82138376D01*
X122787243Y-82155500D01*
X122787246Y-82155500D01*
X122787247Y-82155500D01*
X122984327Y-82155500D01*
X123627145Y-82155500D01*
X123694184Y-82175185D01*
X123718374Y-82195517D01*
X123780252Y-82262734D01*
X123780256Y-82262738D01*
X123863008Y-82327147D01*
X123903821Y-82383857D01*
X123907496Y-82453630D01*
X123872864Y-82514313D01*
X123863014Y-82522848D01*
X123804400Y-82568469D01*
X123780257Y-82587261D01*
X123611833Y-82770217D01*
X123475826Y-82978393D01*
X123413577Y-83120310D01*
X123368621Y-83173796D01*
X123301885Y-83194486D01*
X123300021Y-83194500D01*
X120925783Y-83194500D01*
X120858744Y-83174815D01*
X120838102Y-83158181D01*
X118591887Y-80911966D01*
X118558402Y-80850643D01*
X118556040Y-80835092D01*
X118550635Y-80773313D01*
X118550635Y-80773308D01*
X118491739Y-80553504D01*
X118395568Y-80347266D01*
X118265047Y-80160861D01*
X118265045Y-80160858D01*
X118104141Y-79999954D01*
X117917734Y-79869432D01*
X117917732Y-79869431D01*
X117711497Y-79773261D01*
X117711488Y-79773258D01*
X117491697Y-79714366D01*
X117491693Y-79714365D01*
X117491692Y-79714365D01*
X117491691Y-79714364D01*
X117491686Y-79714364D01*
X117265002Y-79694532D01*
X117264998Y-79694532D01*
X117038313Y-79714364D01*
X117038302Y-79714366D01*
X116818511Y-79773258D01*
X116818502Y-79773261D01*
X116612267Y-79869431D01*
X116612265Y-79869432D01*
X116425858Y-79999954D01*
X116264954Y-80160858D01*
X116134432Y-80347265D01*
X116134431Y-80347267D01*
X116038261Y-80553502D01*
X116038258Y-80553511D01*
X115979366Y-80773302D01*
X115979364Y-80773313D01*
X115959532Y-80999998D01*
X115959532Y-81000001D01*
X115979364Y-81226686D01*
X115979366Y-81226697D01*
X116038258Y-81446488D01*
X116038261Y-81446497D01*
X116134431Y-81652732D01*
X116134432Y-81652734D01*
X116264954Y-81839141D01*
X116425858Y-82000045D01*
X116425861Y-82000047D01*
X116612266Y-82130568D01*
X116818504Y-82226739D01*
X117038308Y-82285635D01*
X117100093Y-82291040D01*
X117165161Y-82316492D01*
X117176966Y-82326887D01*
X119682860Y-84832781D01*
X119682861Y-84832782D01*
X119773936Y-84923857D01*
X119822219Y-84972140D01*
X119843918Y-84986639D01*
X119888723Y-85040252D01*
X119897430Y-85109577D01*
X119867275Y-85172604D01*
X119807832Y-85209323D01*
X119785836Y-85213268D01*
X119784792Y-85213360D01*
X119773312Y-85214364D01*
X119773302Y-85214366D01*
X119553511Y-85273258D01*
X119553502Y-85273261D01*
X119347267Y-85369431D01*
X119347265Y-85369432D01*
X119160858Y-85499954D01*
X118999954Y-85660858D01*
X118869432Y-85847265D01*
X118869431Y-85847267D01*
X118773261Y-86053502D01*
X118773258Y-86053511D01*
X118714366Y-86273302D01*
X118714364Y-86273313D01*
X118694532Y-86499998D01*
X118694532Y-86500001D01*
X118714364Y-86726686D01*
X118714366Y-86726697D01*
X118746922Y-86848200D01*
X118745259Y-86918050D01*
X118706096Y-86975912D01*
X118641867Y-87003416D01*
X118572965Y-86991829D01*
X118539466Y-86967974D01*
X115536819Y-83965327D01*
X115503334Y-83904004D01*
X115500500Y-83877646D01*
X115500500Y-66354737D01*
X115520185Y-66287698D01*
X115572989Y-66241943D01*
X115642147Y-66231999D01*
X115705703Y-66261024D01*
G37*
G04 #@! TD.AperFunction*
G04 #@! TA.AperFunction,NonConductor*
G36*
X151413995Y-99938753D02*
G01*
X151471611Y-99978277D01*
X151498713Y-100042676D01*
X151499500Y-100056626D01*
X151499500Y-100477690D01*
X151479815Y-100544729D01*
X151463181Y-100565371D01*
X150691127Y-101337424D01*
X150675245Y-101278147D01*
X150608102Y-101161853D01*
X150513147Y-101066898D01*
X150396853Y-100999755D01*
X150337574Y-100983871D01*
X151070055Y-100251389D01*
X151068654Y-100228825D01*
X151084146Y-100160694D01*
X151116249Y-100123290D01*
X151219744Y-100042738D01*
X151284272Y-99972641D01*
X151344157Y-99936653D01*
X151413995Y-99938753D01*
G37*
G04 #@! TD.AperFunction*
G04 #@! TA.AperFunction,NonConductor*
G36*
X155705703Y-86661856D02*
G01*
X155712181Y-86667888D01*
X155963181Y-86918888D01*
X155996666Y-86980211D01*
X155999500Y-87006569D01*
X155999500Y-115862245D01*
X155999500Y-115862247D01*
X155999499Y-115862247D01*
X156037117Y-116051358D01*
X156039500Y-116075550D01*
X156039500Y-117379140D01*
X156019815Y-117446179D01*
X155967011Y-117491934D01*
X155897853Y-117501878D01*
X155834297Y-117472853D01*
X155799318Y-117422473D01*
X155793797Y-117407671D01*
X155793793Y-117407664D01*
X155707547Y-117292455D01*
X155707544Y-117292452D01*
X155592335Y-117206206D01*
X155592332Y-117206205D01*
X155592331Y-117206204D01*
X155581161Y-117202038D01*
X155525231Y-117160166D01*
X155500816Y-117094701D01*
X155500500Y-117085858D01*
X155500500Y-86755569D01*
X155520185Y-86688530D01*
X155572989Y-86642775D01*
X155642147Y-86632831D01*
X155705703Y-86661856D01*
G37*
G04 #@! TD.AperFunction*
M02*
