%TF.GenerationSoftware,KiCad,Pcbnew,8.0.9-8.0.9-0~ubuntu24.04.1*%
%TF.CreationDate,2026-07-24T14:22:42-03:00*%
%TF.ProjectId,PCB,5043422e-6b69-4636-9164-5f7063625858,rev?*%
%TF.SameCoordinates,Original*%
%TF.FileFunction,Copper,L1,Top*%
%TF.FilePolarity,Positive*%
%FSLAX46Y46*%
G04 Gerber Fmt 4.6, Leading zero omitted, Abs format (unit mm)*
G04 Created by KiCad (PCBNEW 8.0.9-8.0.9-0~ubuntu24.04.1) date 2026-07-24 14:22:42*
%MOMM*%
%LPD*%
G01*
G04 APERTURE LIST*
G04 Aperture macros list*
%AMHorizOval*
0 Thick line with rounded ends*
0 $1 width*
0 $2 $3 position (X,Y) of the first rounded end (center of the circle)*
0 $4 $5 position (X,Y) of the second rounded end (center of the circle)*
0 Add line between two ends*
20,1,$1,$2,$3,$4,$5,0*
0 Add two circle primitives to create the rounded ends*
1,1,$1,$2,$3*
1,1,$1,$4,$5*%
G04 Aperture macros list end*
%TA.AperFunction,ComponentPad*%
%ADD10R,1.700000X1.700000*%
%TD*%
%TA.AperFunction,ComponentPad*%
%ADD11O,1.700000X1.700000*%
%TD*%
%TA.AperFunction,ComponentPad*%
%ADD12R,2.600000X2.600000*%
%TD*%
%TA.AperFunction,ComponentPad*%
%ADD13C,2.600000*%
%TD*%
%TA.AperFunction,ComponentPad*%
%ADD14C,1.600000*%
%TD*%
%TA.AperFunction,ComponentPad*%
%ADD15HorizOval,1.600000X0.000000X0.000000X0.000000X0.000000X0*%
%TD*%
%TA.AperFunction,ComponentPad*%
%ADD16R,1.524000X1.524000*%
%TD*%
%TA.AperFunction,ComponentPad*%
%ADD17O,3.048000X1.524000*%
%TD*%
%TA.AperFunction,ComponentPad*%
%ADD18O,1.600000X1.600000*%
%TD*%
%TA.AperFunction,ComponentPad*%
%ADD19R,2.000000X2.000000*%
%TD*%
%TA.AperFunction,ComponentPad*%
%ADD20C,2.000000*%
%TD*%
%TA.AperFunction,ComponentPad*%
%ADD21R,1.600000X1.600000*%
%TD*%
%TA.AperFunction,Conductor*%
%ADD22C,1.500000*%
%TD*%
%TA.AperFunction,Conductor*%
%ADD23C,1.000000*%
%TD*%
G04 APERTURE END LIST*
D10*
%TO.P,PN532,1,SCK*%
%TO.N,Net-(PN532-SCK)*%
X166260000Y-126500000D03*
D11*
%TO.P,PN532,2,MISO*%
%TO.N,Net-(PN532-MISO)*%
X168800000Y-126500000D03*
%TO.P,PN532,3,MOSI*%
%TO.N,Net-(PN532-MOSI)*%
X171340000Y-126500000D03*
%TO.P,PN532,4,SS*%
%TO.N,Net-(PN532-SS)*%
X173880000Y-126500000D03*
%TO.P,PN532,5,VCC*%
%TO.N,+5V*%
X176420000Y-126500000D03*
%TO.P,PN532,6,GND*%
%TO.N,GND*%
X178960000Y-126500000D03*
%TO.P,PN532,7,IRQ*%
%TO.N,Net-(J_IRQ_1-Pin_1)*%
X181500000Y-126500000D03*
%TD*%
D12*
%TO.P,INTERRUPTOR_TIMBRE1,1,Pin_1*%
%TO.N,GND*%
X98000000Y-123000000D03*
D13*
%TO.P,INTERRUPTOR_TIMBRE1,2,Pin_2*%
%TO.N,Net-(INTERRUPTOR_TIMBRE1-Pin_2)*%
X98000000Y-118000000D03*
%TD*%
D10*
%TO.P,CONSOLA_ESP32,1,Pin_1*%
%TO.N,Net-(CONSOLA_ESP32-Pin_1)*%
X183000000Y-90000000D03*
D11*
%TO.P,CONSOLA_ESP32,2,Pin_2*%
%TO.N,GND*%
X183000000Y-92540000D03*
%TD*%
D10*
%TO.P,MOD1,1,DI*%
%TO.N,Net-(MOD1-DI)*%
X135691700Y-41263700D03*
D11*
%TO.P,MOD1,2,DE*%
%TO.N,Net-(MOD1-DE)*%
X135691700Y-43803700D03*
%TO.P,MOD1,3,RE*%
X135691700Y-46343700D03*
%TO.P,MOD1,4,RO*%
%TO.N,Net-(MOD1-RO)*%
X135691700Y-48883700D03*
%TO.P,MOD1,5,VCC*%
%TO.N,+5V*%
X94491700Y-48883700D03*
%TO.P,MOD1,6,B*%
%TO.N,unconnected-(MOD1-B-Pad6)*%
X94491700Y-46343700D03*
%TO.P,MOD1,7,A*%
%TO.N,unconnected-(MOD1-A-Pad7)*%
X94491700Y-43803700D03*
D10*
%TO.P,MOD1,8,GND*%
%TO.N,GND*%
X94491700Y-41263700D03*
%TD*%
D14*
%TO.P,J_Interruptor1,1*%
%TO.N,Net-(INTERRUPTOR_TIMBRE1-Pin_2)*%
X115863048Y-96636953D03*
D15*
%TO.P,J_Interruptor1,2*%
%TO.N,Net-(U1-D25)*%
X119455150Y-93044851D03*
%TD*%
D16*
%TO.P,U2,P$1,GND@1*%
%TO.N,unconnected-(U2-GND@1-PadP$1)*%
X150570000Y-38380000D03*
D17*
%TO.P,U2,P$2,GPIO1*%
%TO.N,Net-(CONSOLA_ESPCAM1-Pin_1)*%
X150570000Y-40920000D03*
%TO.P,U2,P$3,GPIO3*%
%TO.N,unconnected-(U2-GPIO3-PadP$3)*%
X150570000Y-43460000D03*
%TO.P,U2,P$4,3V3/5V*%
%TO.N,unconnected-(U2-3V3{slash}5V-PadP$4)*%
X150570000Y-46000000D03*
D16*
%TO.P,U2,P$5,GND@2*%
%TO.N,unconnected-(U2-GND@2-PadP$5)*%
X150570000Y-48540000D03*
D17*
%TO.P,U2,P$6,GPIO0*%
%TO.N,unconnected-(U2-GPIO0-PadP$6)*%
X150570000Y-51080000D03*
%TO.P,U2,P$7,GPIO16*%
%TO.N,unconnected-(U2-GPIO16-PadP$7)*%
X150570000Y-53620000D03*
%TO.P,U2,P$8,3V3*%
%TO.N,unconnected-(U2-3V3-PadP$8)*%
X150570000Y-56160000D03*
%TO.P,U2,P$9,5V*%
%TO.N,+5V*%
X173430000Y-56160000D03*
D16*
%TO.P,U2,P$10,GND@3*%
%TO.N,GND*%
X173430000Y-53620000D03*
D17*
%TO.P,U2,P$11,GPIO12*%
%TO.N,unconnected-(U2-GPIO12-PadP$11)*%
X173430000Y-51080000D03*
%TO.P,U2,P$12,GPIO13*%
%TO.N,unconnected-(U2-GPIO13-PadP$12)*%
X173430000Y-48540000D03*
%TO.P,U2,P$13,GPIO15*%
%TO.N,/RX2*%
X173430000Y-46000000D03*
%TO.P,U2,P$14,GPIO14*%
%TO.N,/TX2*%
X173430000Y-43460000D03*
%TO.P,U2,P$15,GPIO2*%
%TO.N,unconnected-(U2-GPIO2-PadP$15)*%
X173430000Y-40920000D03*
%TO.P,U2,P$16,GPIO4*%
%TO.N,unconnected-(U2-GPIO4-PadP$16)*%
X173430000Y-38380000D03*
%TD*%
D14*
%TO.P,J_CONSOLA_ESP1,1*%
%TO.N,Net-(U1-TX0)*%
X162863048Y-86136953D03*
D15*
%TO.P,J_CONSOLA_ESP1,2*%
%TO.N,Net-(CONSOLA_ESP32-Pin_1)*%
X166455150Y-82544851D03*
%TD*%
D14*
%TO.P,J_RELE_PUERTA1,1*%
%TO.N,Net-(RELE_PUERTA1-Pin_1)*%
X113920000Y-86500000D03*
D18*
%TO.P,J_RELE_PUERTA1,2*%
%TO.N,Net-(U1-D33)*%
X119000000Y-86500000D03*
%TD*%
D10*
%TO.P,J_IRQ_1,1,Pin_1*%
%TO.N,Net-(J_IRQ_1-Pin_1)*%
X181500000Y-119500000D03*
%TD*%
%TO.P,RELE_PUERTA1,1,Pin_1*%
%TO.N,Net-(RELE_PUERTA1-Pin_1)*%
X94137500Y-96000000D03*
D11*
%TO.P,RELE_PUERTA1,2,Pin_2*%
%TO.N,+5V*%
X94137500Y-98540000D03*
%TO.P,RELE_PUERTA1,3,Pin_3*%
%TO.N,GND*%
X94137500Y-101080000D03*
%TD*%
D10*
%TO.P,RELE_TIMBRE1,1,Pin_1*%
%TO.N,Net-(RELE_TIMBRE1-Pin_1)*%
X94137500Y-68343700D03*
D11*
%TO.P,RELE_TIMBRE1,2,Pin_2*%
%TO.N,+5V*%
X94137500Y-70883700D03*
%TO.P,RELE_TIMBRE1,3,Pin_3*%
%TO.N,GND*%
X94137500Y-73423700D03*
%TD*%
D10*
%TO.P,USB1,1,Pin_1*%
%TO.N,+5V*%
X100950000Y-130975000D03*
D11*
%TO.P,USB1,2,Pin_2*%
%TO.N,unconnected-(USB1-Pin_2-Pad2)*%
X103490000Y-130975000D03*
%TO.P,USB1,3,Pin_3*%
%TO.N,unconnected-(USB1-Pin_3-Pad3)*%
X106030000Y-130975000D03*
%TO.P,USB1,4,Pin_4*%
%TO.N,unconnected-(USB1-Pin_4-Pad4)*%
X108570000Y-130975000D03*
%TO.P,USB1,5,Pin_5*%
%TO.N,GND*%
X111110000Y-130975000D03*
%TD*%
D19*
%TO.P,U1,1,3V3*%
%TO.N,unconnected-(U1-3V3-Pad1)*%
X152700000Y-109015000D03*
D20*
%TO.P,U1,2,GND*%
%TO.N,GND*%
X152700000Y-106475000D03*
%TO.P,U1,3,D15*%
%TO.N,unconnected-(U1-D15-Pad3)*%
X152700000Y-103935000D03*
%TO.P,U1,4,D2*%
%TO.N,unconnected-(U1-D2-Pad4)*%
X152700000Y-101395000D03*
%TO.P,U1,5,D4*%
%TO.N,unconnected-(U1-D4-Pad5)*%
X152700000Y-98855000D03*
%TO.P,U1,6,RX2*%
%TO.N,/TX2*%
X152700000Y-96315000D03*
%TO.P,U1,7,TX2*%
%TO.N,/RX2*%
X152700000Y-93775000D03*
%TO.P,U1,8,D5*%
%TO.N,Net-(PN532-SS)*%
X152700000Y-91235000D03*
%TO.P,U1,9,D18*%
%TO.N,Net-(PN532-SCK)*%
X152700000Y-88695000D03*
%TO.P,U1,10,D19*%
%TO.N,Net-(PN532-MISO)*%
X152700000Y-86155000D03*
%TO.P,U1,11,D21*%
%TO.N,Net-(J_IRQ_2-Pin_1)*%
X152700000Y-83615000D03*
%TO.P,U1,12,RX0*%
%TO.N,unconnected-(U1-RX0-Pad12)*%
X152700000Y-81075000D03*
%TO.P,U1,13,TX0*%
%TO.N,Net-(U1-TX0)*%
X152700000Y-78535000D03*
%TO.P,U1,14,D22*%
%TO.N,unconnected-(U1-D22-Pad14)*%
X152700000Y-75995000D03*
%TO.P,U1,15,D23*%
%TO.N,Net-(PN532-MOSI)*%
X152700000Y-73455000D03*
%TO.P,U1,16,EN*%
%TO.N,unconnected-(U1-EN-Pad16)*%
X127300000Y-73455000D03*
%TO.P,U1,17,VP*%
%TO.N,unconnected-(U1-VP-Pad17)*%
X127300000Y-75995000D03*
%TO.P,U1,18,VN*%
%TO.N,unconnected-(U1-VN-Pad18)*%
X127300000Y-78535000D03*
%TO.P,U1,19,D34*%
%TO.N,unconnected-(U1-D34-Pad19)*%
X127300000Y-81075000D03*
%TO.P,U1,20,D35*%
%TO.N,unconnected-(U1-D35-Pad20)*%
X127300000Y-83615000D03*
%TO.P,U1,21,D32*%
%TO.N,Net-(U1-D32)*%
X127300000Y-86155000D03*
%TO.P,U1,22,D33*%
%TO.N,Net-(U1-D33)*%
X127300000Y-88695000D03*
%TO.P,U1,23,D25*%
%TO.N,Net-(U1-D25)*%
X127300000Y-91235000D03*
%TO.P,U1,24,D26*%
%TO.N,unconnected-(U1-D26-Pad24)*%
X127300000Y-93775000D03*
%TO.P,U1,25,D27*%
%TO.N,Net-(MOD1-DE)*%
X127300000Y-96315000D03*
%TO.P,U1,26,D14*%
%TO.N,Net-(MOD1-DI)*%
X127300000Y-98855000D03*
%TO.P,U1,27,D12*%
%TO.N,unconnected-(U1-D12-Pad27)*%
X127300000Y-101395000D03*
%TO.P,U1,28,D13*%
%TO.N,Net-(MOD1-RO)*%
X127300000Y-103935000D03*
%TO.P,U1,29,GND*%
%TO.N,GND*%
X127300000Y-106475000D03*
%TO.P,U1,30,VIN*%
%TO.N,+5V*%
X127300000Y-109015000D03*
%TD*%
D21*
%TO.P,C1,1*%
%TO.N,+5V*%
X176000000Y-70500000D03*
D14*
%TO.P,C1,2*%
%TO.N,GND*%
X176000000Y-73000000D03*
%TD*%
D10*
%TO.P,CONSOLA_ESPCAM1,1,Pin_1*%
%TO.N,Net-(CONSOLA_ESPCAM1-Pin_1)*%
X185000000Y-41225000D03*
D11*
%TO.P,CONSOLA_ESPCAM1,2,Pin_2*%
%TO.N,GND*%
X185000000Y-43765000D03*
%TD*%
D14*
%TO.P,J_RELE_TIMBRE1,1*%
%TO.N,Net-(RELE_TIMBRE1-Pin_1)*%
X113920000Y-71000000D03*
D18*
%TO.P,J_RELE_TIMBRE1,2*%
%TO.N,Net-(U1-D32)*%
X119000000Y-71000000D03*
%TD*%
D10*
%TO.P,J_IRQ_2,1,Pin_1*%
%TO.N,Net-(J_IRQ_2-Pin_1)*%
X166500000Y-92000000D03*
%TD*%
D22*
%TO.N,+5V*%
X92975000Y-130975000D02*
X91000000Y-129000000D01*
X175562081Y-133600000D02*
X176460000Y-132702081D01*
X183000000Y-60000000D02*
X179160000Y-56160000D01*
X176000000Y-70500000D02*
X176000000Y-67000000D01*
X91000000Y-72819119D02*
X91000000Y-52375400D01*
X176460000Y-131500000D02*
X176460000Y-108540000D01*
X100950000Y-130975000D02*
X92975000Y-130975000D01*
X91000000Y-98000000D02*
X91000000Y-92000000D01*
X179160000Y-56160000D02*
X173430000Y-56160000D01*
X91000000Y-129000000D02*
X91000000Y-98000000D01*
X103145151Y-133600000D02*
X175562081Y-133600000D01*
X122385000Y-109015000D02*
X127300000Y-109015000D01*
X91000000Y-52375400D02*
X94491700Y-48883700D01*
X176460000Y-132702081D02*
X176460000Y-131500000D01*
X92935419Y-70883700D02*
X94137500Y-70883700D01*
X100950000Y-130975000D02*
X100950000Y-130450000D01*
X91000000Y-72819119D02*
X92935419Y-70883700D01*
X176000000Y-67000000D02*
X183000000Y-60000000D01*
X100950000Y-131404849D02*
X103145151Y-133600000D01*
X186500000Y-98500000D02*
X186500000Y-63500000D01*
X186500000Y-63500000D02*
X183000000Y-60000000D01*
D23*
X91540000Y-98540000D02*
X91000000Y-98000000D01*
D22*
X91000000Y-92000000D02*
X91000000Y-72819119D01*
X94137500Y-98540000D02*
X91540000Y-98540000D01*
X100950000Y-130450000D02*
X122385000Y-109015000D01*
X176460000Y-108540000D02*
X186500000Y-98500000D01*
X100950000Y-130975000D02*
X100950000Y-131404849D01*
D23*
%TO.N,Net-(CONSOLA_ESP32-Pin_1)*%
X175544851Y-82544851D02*
X183000000Y-90000000D01*
X166455150Y-82544851D02*
X175544851Y-82544851D01*
%TO.N,Net-(CONSOLA_ESPCAM1-Pin_1)*%
X150570000Y-40920000D02*
X151332000Y-40920000D01*
X155634000Y-36618000D02*
X180393000Y-36618000D01*
X151332000Y-40920000D02*
X155634000Y-36618000D01*
X180393000Y-36618000D02*
X185000000Y-41225000D01*
%TO.N,Net-(INTERRUPTOR_TIMBRE1-Pin_2)*%
X106254247Y-96636953D02*
X98000000Y-104891200D01*
X98000000Y-104891200D02*
X98000000Y-118000000D01*
X115863048Y-96636953D02*
X106254247Y-96636953D01*
%TO.N,Net-(MOD1-RO)*%
X128714213Y-103935000D02*
X127300000Y-103935000D01*
X135691700Y-96957513D02*
X128714213Y-103935000D01*
X135691700Y-48883700D02*
X135691700Y-96957513D01*
%TO.N,Net-(MOD1-DE)*%
X130020000Y-50813319D02*
X130020000Y-95480000D01*
X135691700Y-46343700D02*
X134489619Y-46343700D01*
X129185000Y-96315000D02*
X127300000Y-96315000D01*
X134489619Y-46343700D02*
X130020000Y-50813319D01*
X130020000Y-95480000D02*
X129185000Y-96315000D01*
X135691700Y-46343700D02*
X135691700Y-43803700D01*
%TO.N,Net-(MOD1-DI)*%
X116500000Y-93500000D02*
X116500000Y-59500000D01*
X121855000Y-98855000D02*
X116500000Y-93500000D01*
X134736300Y-41263700D02*
X135691700Y-41263700D01*
X116500000Y-59500000D02*
X134736300Y-41263700D01*
X127300000Y-98855000D02*
X121855000Y-98855000D01*
%TO.N,Net-(PN532-SCK)*%
X154114213Y-88695000D02*
X152700000Y-88695000D01*
X166260000Y-100840787D02*
X154114213Y-88695000D01*
X166260000Y-126500000D02*
X166260000Y-100840787D01*
%TO.N,Net-(PN532-MOSI)*%
X171340000Y-90680787D02*
X154114213Y-73455000D01*
X171340000Y-126500000D02*
X171340000Y-90680787D01*
X154114213Y-73455000D02*
X152700000Y-73455000D01*
%TO.N,Net-(PN532-MISO)*%
X169000000Y-101459467D02*
X153695533Y-86155000D01*
X168800000Y-126200000D02*
X169000000Y-126000000D01*
X168800000Y-126500000D02*
X168800000Y-126200000D01*
X153695533Y-86155000D02*
X152700000Y-86155000D01*
X169000000Y-126000000D02*
X169000000Y-101459467D01*
%TO.N,Net-(U1-TX0)*%
X152700000Y-78535000D02*
X155261095Y-78535000D01*
X155261095Y-78535000D02*
X162863048Y-86136953D01*
%TO.N,Net-(PN532-SS)*%
X158000000Y-131000000D02*
X158000000Y-95120787D01*
X170380000Y-131000000D02*
X158000000Y-131000000D01*
X173880000Y-126500000D02*
X173880000Y-127500000D01*
X173880000Y-126500000D02*
X173880000Y-127702081D01*
X158000000Y-95120787D02*
X154114213Y-91235000D01*
X173880000Y-127500000D02*
X170380000Y-131000000D01*
X154114213Y-91235000D02*
X152700000Y-91235000D01*
%TO.N,Net-(RELE_PUERTA1-Pin_1)*%
X103637500Y-86500000D02*
X94137500Y-96000000D01*
X113920000Y-86500000D02*
X103637500Y-86500000D01*
%TO.N,Net-(RELE_TIMBRE1-Pin_1)*%
X111263700Y-68343700D02*
X94137500Y-68343700D01*
X113920000Y-71000000D02*
X111263700Y-68343700D01*
%TO.N,/RX2*%
X172716156Y-46000000D02*
X173430000Y-46000000D01*
X150000000Y-92489213D02*
X150000000Y-68716156D01*
X152700000Y-93775000D02*
X151285787Y-93775000D01*
X151285787Y-93775000D02*
X150000000Y-92489213D01*
X150000000Y-68716156D02*
X172716156Y-46000000D01*
%TO.N,/TX2*%
X150815000Y-96315000D02*
X152700000Y-96315000D01*
X147500000Y-68628000D02*
X147500000Y-93000000D01*
X147500000Y-93000000D02*
X150815000Y-96315000D01*
X172668000Y-43460000D02*
X173430000Y-43460000D01*
X172668000Y-43460000D02*
X147500000Y-68628000D01*
%TO.N,Net-(U1-D25)*%
X127300000Y-91235000D02*
X121265001Y-91235000D01*
X121265001Y-91235000D02*
X119455150Y-93044851D01*
%TO.N,Net-(J_IRQ_1-Pin_1)*%
X181500000Y-126500000D02*
X181500000Y-119500000D01*
%TO.N,Net-(J_IRQ_2-Pin_1)*%
X153276853Y-83615000D02*
X152700000Y-83615000D01*
X166500000Y-92000000D02*
X161661853Y-92000000D01*
X161661853Y-92000000D02*
X153276853Y-83615000D01*
%TO.N,Net-(U1-D33)*%
X127300000Y-88695000D02*
X121195000Y-88695000D01*
X121195000Y-88695000D02*
X119000000Y-86500000D01*
%TO.N,Net-(U1-D32)*%
X125885787Y-86155000D02*
X119000000Y-79269213D01*
X119000000Y-79269213D02*
X119000000Y-71000000D01*
X127300000Y-86155000D02*
X125885787Y-86155000D01*
%TD*%
%TA.AperFunction,Conductor*%
%TO.N,GND*%
G36*
X154934368Y-35689206D02*
G01*
X154980389Y-35741779D01*
X154990681Y-35810886D01*
X154961978Y-35874587D01*
X154955537Y-35881540D01*
X152044180Y-38792898D01*
X151982857Y-38826383D01*
X151913165Y-38821399D01*
X151857232Y-38779527D01*
X151832815Y-38714063D01*
X151832499Y-38705217D01*
X151832499Y-37570129D01*
X151832498Y-37570123D01*
X151832497Y-37570116D01*
X151826091Y-37510517D01*
X151775796Y-37375669D01*
X151775795Y-37375668D01*
X151775793Y-37375664D01*
X151689547Y-37260455D01*
X151689544Y-37260452D01*
X151574335Y-37174206D01*
X151574328Y-37174202D01*
X151439482Y-37123908D01*
X151439483Y-37123908D01*
X151379883Y-37117501D01*
X151379881Y-37117500D01*
X151379873Y-37117500D01*
X151379864Y-37117500D01*
X149760129Y-37117500D01*
X149760123Y-37117501D01*
X149700516Y-37123908D01*
X149565671Y-37174202D01*
X149565664Y-37174206D01*
X149450455Y-37260452D01*
X149450452Y-37260455D01*
X149364206Y-37375664D01*
X149364202Y-37375671D01*
X149313908Y-37510517D01*
X149307501Y-37570116D01*
X149307501Y-37570123D01*
X149307500Y-37570135D01*
X149307500Y-39189870D01*
X149307501Y-39189876D01*
X149313908Y-39249483D01*
X149364202Y-39384328D01*
X149364206Y-39384335D01*
X149450452Y-39499544D01*
X149450453Y-39499544D01*
X149450454Y-39499546D01*
X149453858Y-39502094D01*
X149456406Y-39505498D01*
X149456725Y-39505817D01*
X149456679Y-39505862D01*
X149495729Y-39558029D01*
X149500712Y-39627720D01*
X149467226Y-39689043D01*
X149417864Y-39719291D01*
X149323370Y-39749993D01*
X149323367Y-39749994D01*
X149146305Y-39840213D01*
X148985533Y-39957021D01*
X148845021Y-40097533D01*
X148728213Y-40258305D01*
X148637994Y-40435367D01*
X148637993Y-40435370D01*
X148576587Y-40624362D01*
X148576587Y-40624364D01*
X148545500Y-40820639D01*
X148545500Y-41019361D01*
X148555485Y-41082405D01*
X148576587Y-41215637D01*
X148637993Y-41404629D01*
X148637994Y-41404632D01*
X148693568Y-41513700D01*
X148728213Y-41581694D01*
X148845019Y-41742464D01*
X148985536Y-41882981D01*
X149146306Y-41999787D01*
X149264832Y-42060179D01*
X149302780Y-42079515D01*
X149353576Y-42127490D01*
X149370371Y-42195311D01*
X149347833Y-42261446D01*
X149302780Y-42300485D01*
X149146305Y-42380213D01*
X148985533Y-42497021D01*
X148845021Y-42637533D01*
X148728213Y-42798305D01*
X148637994Y-42975367D01*
X148637993Y-42975370D01*
X148576587Y-43164362D01*
X148545500Y-43360639D01*
X148545500Y-43559360D01*
X148576587Y-43755637D01*
X148637993Y-43944629D01*
X148637994Y-43944632D01*
X148702896Y-44072007D01*
X148728213Y-44121694D01*
X148845019Y-44282464D01*
X148985536Y-44422981D01*
X149146306Y-44539787D01*
X149264832Y-44600179D01*
X149302780Y-44619515D01*
X149353576Y-44667490D01*
X149370371Y-44735311D01*
X149347833Y-44801446D01*
X149302780Y-44840485D01*
X149146305Y-44920213D01*
X148985533Y-45037021D01*
X148845021Y-45177533D01*
X148728213Y-45338305D01*
X148637994Y-45515367D01*
X148637993Y-45515370D01*
X148576587Y-45704362D01*
X148545500Y-45900639D01*
X148545500Y-46099360D01*
X148576587Y-46295637D01*
X148637993Y-46484629D01*
X148637994Y-46484632D01*
X148728213Y-46661694D01*
X148845019Y-46822464D01*
X148985536Y-46962981D01*
X149146306Y-47079787D01*
X149233149Y-47124035D01*
X149323367Y-47170005D01*
X149323373Y-47170007D01*
X149417863Y-47200708D01*
X149475539Y-47240145D01*
X149502738Y-47304503D01*
X149490824Y-47373349D01*
X149453864Y-47417900D01*
X149450457Y-47420450D01*
X149450452Y-47420455D01*
X149364206Y-47535664D01*
X149364202Y-47535671D01*
X149313908Y-47670517D01*
X149307501Y-47730116D01*
X149307501Y-47730123D01*
X149307500Y-47730135D01*
X149307500Y-49349870D01*
X149307501Y-49349876D01*
X149313908Y-49409483D01*
X149364202Y-49544328D01*
X149364206Y-49544335D01*
X149450452Y-49659544D01*
X149450453Y-49659544D01*
X149450454Y-49659546D01*
X149453854Y-49662091D01*
X149453858Y-49662094D01*
X149456406Y-49665498D01*
X149456725Y-49665817D01*
X149456679Y-49665862D01*
X149495729Y-49718029D01*
X149500712Y-49787720D01*
X149467226Y-49849043D01*
X149417864Y-49879291D01*
X149323370Y-49909993D01*
X149323367Y-49909994D01*
X149146305Y-50000213D01*
X148985533Y-50117021D01*
X148845021Y-50257533D01*
X148728213Y-50418305D01*
X148637994Y-50595367D01*
X148637993Y-50595370D01*
X148576587Y-50784362D01*
X148545500Y-50980639D01*
X148545500Y-51179360D01*
X148576587Y-51375637D01*
X148637993Y-51564629D01*
X148637994Y-51564632D01*
X148717156Y-51719994D01*
X148728213Y-51741694D01*
X148845019Y-51902464D01*
X148985536Y-52042981D01*
X149146306Y-52159787D01*
X149264832Y-52220179D01*
X149302780Y-52239515D01*
X149353576Y-52287490D01*
X149370371Y-52355311D01*
X149347833Y-52421446D01*
X149302780Y-52460485D01*
X149146305Y-52540213D01*
X148985533Y-52657021D01*
X148845021Y-52797533D01*
X148728213Y-52958305D01*
X148637994Y-53135367D01*
X148637993Y-53135370D01*
X148576587Y-53324362D01*
X148545500Y-53520639D01*
X148545500Y-53719360D01*
X148576587Y-53915637D01*
X148637993Y-54104629D01*
X148637994Y-54104632D01*
X148728213Y-54281694D01*
X148845019Y-54442464D01*
X148985536Y-54582981D01*
X149146306Y-54699787D01*
X149228971Y-54741907D01*
X149302780Y-54779515D01*
X149353576Y-54827490D01*
X149370371Y-54895311D01*
X149347833Y-54961446D01*
X149302780Y-55000485D01*
X149146305Y-55080213D01*
X148985533Y-55197021D01*
X148845021Y-55337533D01*
X148728213Y-55498305D01*
X148637994Y-55675367D01*
X148637993Y-55675370D01*
X148576587Y-55864362D01*
X148545500Y-56060639D01*
X148545500Y-56259360D01*
X148576587Y-56455637D01*
X148637993Y-56644629D01*
X148637994Y-56644632D01*
X148728213Y-56821694D01*
X148845019Y-56982464D01*
X148985536Y-57122981D01*
X149146306Y-57239787D01*
X149233149Y-57284035D01*
X149323367Y-57330005D01*
X149323370Y-57330006D01*
X149417866Y-57360709D01*
X149512364Y-57391413D01*
X149708639Y-57422500D01*
X149708640Y-57422500D01*
X151431360Y-57422500D01*
X151431361Y-57422500D01*
X151627636Y-57391413D01*
X151816632Y-57330005D01*
X151993694Y-57239787D01*
X152154464Y-57122981D01*
X152294981Y-56982464D01*
X152411787Y-56821694D01*
X152502005Y-56644632D01*
X152563413Y-56455636D01*
X152594500Y-56259361D01*
X152594500Y-56060639D01*
X152563413Y-55864364D01*
X152502005Y-55675368D01*
X152502005Y-55675367D01*
X152411786Y-55498305D01*
X152294981Y-55337536D01*
X152154464Y-55197019D01*
X151993694Y-55080213D01*
X151837218Y-55000484D01*
X151786423Y-54952510D01*
X151769628Y-54884689D01*
X151792165Y-54818554D01*
X151837218Y-54779515D01*
X151993694Y-54699787D01*
X152154464Y-54582981D01*
X152294981Y-54442464D01*
X152411787Y-54281694D01*
X152502005Y-54104632D01*
X152563413Y-53915636D01*
X152594500Y-53719361D01*
X152594500Y-53520639D01*
X152563413Y-53324364D01*
X152502005Y-53135368D01*
X152502005Y-53135367D01*
X152411786Y-52958305D01*
X152364611Y-52893374D01*
X152294981Y-52797536D01*
X152154464Y-52657019D01*
X151993694Y-52540213D01*
X151837218Y-52460484D01*
X151786423Y-52412510D01*
X151769628Y-52344689D01*
X151792165Y-52278554D01*
X151837218Y-52239515D01*
X151993694Y-52159787D01*
X152154464Y-52042981D01*
X152294981Y-51902464D01*
X152411787Y-51741694D01*
X152502005Y-51564632D01*
X152563413Y-51375636D01*
X152594500Y-51179361D01*
X152594500Y-50980639D01*
X152563413Y-50784364D01*
X152502005Y-50595368D01*
X152502005Y-50595367D01*
X152411786Y-50418305D01*
X152294981Y-50257536D01*
X152154464Y-50117019D01*
X151993694Y-50000213D01*
X151816632Y-49909994D01*
X151816629Y-49909993D01*
X151722135Y-49879291D01*
X151664460Y-49839854D01*
X151637261Y-49775495D01*
X151649175Y-49706649D01*
X151686142Y-49662093D01*
X151689546Y-49659546D01*
X151775796Y-49544331D01*
X151826091Y-49409483D01*
X151832500Y-49349873D01*
X151832499Y-47730128D01*
X151826091Y-47670517D01*
X151791219Y-47577021D01*
X151775797Y-47535671D01*
X151775793Y-47535664D01*
X151689547Y-47420456D01*
X151689548Y-47420456D01*
X151689546Y-47420454D01*
X151686138Y-47417902D01*
X151683588Y-47414496D01*
X151683275Y-47414183D01*
X151683320Y-47414137D01*
X151644270Y-47361969D01*
X151639288Y-47292277D01*
X151672775Y-47230955D01*
X151722134Y-47200708D01*
X151816632Y-47170005D01*
X151993694Y-47079787D01*
X152154464Y-46962981D01*
X152294981Y-46822464D01*
X152411787Y-46661694D01*
X152502005Y-46484632D01*
X152563413Y-46295636D01*
X152594500Y-46099361D01*
X152594500Y-45900639D01*
X152563413Y-45704364D01*
X152532709Y-45609866D01*
X152502006Y-45515370D01*
X152502005Y-45515367D01*
X152433870Y-45381647D01*
X152411787Y-45338306D01*
X152294981Y-45177536D01*
X152154464Y-45037019D01*
X151993694Y-44920213D01*
X151837218Y-44840484D01*
X151786423Y-44792510D01*
X151769628Y-44724689D01*
X151792165Y-44658554D01*
X151837218Y-44619515D01*
X151993694Y-44539787D01*
X152154464Y-44422981D01*
X152294981Y-44282464D01*
X152411787Y-44121694D01*
X152502005Y-43944632D01*
X152563413Y-43755636D01*
X152594500Y-43559361D01*
X152594500Y-43360639D01*
X152563413Y-43164364D01*
X152502005Y-42975368D01*
X152502005Y-42975367D01*
X152411786Y-42798305D01*
X152399743Y-42781729D01*
X152294981Y-42637536D01*
X152154464Y-42497019D01*
X151993694Y-42380213D01*
X151837218Y-42300484D01*
X151786423Y-42252510D01*
X151769628Y-42184689D01*
X151792165Y-42118554D01*
X151837218Y-42079515D01*
X151993694Y-41999787D01*
X152154464Y-41882981D01*
X152294981Y-41742464D01*
X152411787Y-41581694D01*
X152502005Y-41404632D01*
X152563413Y-41215636D01*
X152578212Y-41122194D01*
X152608139Y-41059064D01*
X152612985Y-41053933D01*
X156012102Y-37654819D01*
X156073425Y-37621334D01*
X156099783Y-37618500D01*
X171436717Y-37618500D01*
X171503756Y-37638185D01*
X171549511Y-37690989D01*
X171559455Y-37760147D01*
X171547201Y-37798795D01*
X171497999Y-37895357D01*
X171497993Y-37895370D01*
X171436587Y-38084362D01*
X171405500Y-38280639D01*
X171405500Y-38479360D01*
X171436587Y-38675637D01*
X171497993Y-38864629D01*
X171497994Y-38864632D01*
X171569302Y-39004579D01*
X171588213Y-39041694D01*
X171705019Y-39202464D01*
X171845536Y-39342981D01*
X172006306Y-39459787D01*
X172096645Y-39505817D01*
X172162780Y-39539515D01*
X172213576Y-39587490D01*
X172230371Y-39655311D01*
X172207833Y-39721446D01*
X172162780Y-39760485D01*
X172006305Y-39840213D01*
X171845533Y-39957021D01*
X171705021Y-40097533D01*
X171588213Y-40258305D01*
X171497994Y-40435367D01*
X171497993Y-40435370D01*
X171436587Y-40624362D01*
X171436587Y-40624364D01*
X171405500Y-40820639D01*
X171405500Y-41019361D01*
X171415485Y-41082405D01*
X171436587Y-41215637D01*
X171497993Y-41404629D01*
X171497994Y-41404632D01*
X171553568Y-41513700D01*
X171588213Y-41581694D01*
X171705019Y-41742464D01*
X171845536Y-41882981D01*
X172006306Y-41999787D01*
X172124832Y-42060179D01*
X172162780Y-42079515D01*
X172213576Y-42127490D01*
X172230371Y-42195311D01*
X172207833Y-42261446D01*
X172162780Y-42300485D01*
X172006305Y-42380213D01*
X171845533Y-42497021D01*
X171705021Y-42637533D01*
X171588213Y-42798305D01*
X171497994Y-42975367D01*
X171497993Y-42975370D01*
X171436587Y-43164362D01*
X171421787Y-43257801D01*
X171391857Y-43320936D01*
X171386995Y-43326083D01*
X159037712Y-55675367D01*
X146862221Y-67850858D01*
X146862218Y-67850861D01*
X146792538Y-67920540D01*
X146722859Y-67990219D01*
X146613371Y-68154079D01*
X146613366Y-68154088D01*
X146563491Y-68274500D01*
X146537950Y-68336159D01*
X146537949Y-68336163D01*
X146533595Y-68358051D01*
X146520414Y-68424320D01*
X146499500Y-68529456D01*
X146499500Y-93098542D01*
X146508421Y-93143390D01*
X146508421Y-93143391D01*
X146537947Y-93291828D01*
X146537949Y-93291836D01*
X146556527Y-93336687D01*
X146556527Y-93336688D01*
X146613364Y-93473907D01*
X146613371Y-93473920D01*
X146722860Y-93637781D01*
X146722862Y-93637784D01*
X146866537Y-93781459D01*
X146866559Y-93781479D01*
X150034735Y-96949655D01*
X150034764Y-96949686D01*
X150177214Y-97092136D01*
X150177218Y-97092139D01*
X150341079Y-97201628D01*
X150341092Y-97201635D01*
X150469833Y-97254961D01*
X150516602Y-97274333D01*
X150523164Y-97277051D01*
X150607347Y-97293796D01*
X150634625Y-97299222D01*
X150716456Y-97315500D01*
X150716459Y-97315500D01*
X150716460Y-97315500D01*
X150913540Y-97315500D01*
X151527145Y-97315500D01*
X151594184Y-97335185D01*
X151618374Y-97355517D01*
X151673739Y-97415659D01*
X151680256Y-97422738D01*
X151763008Y-97487147D01*
X151803821Y-97543857D01*
X151807496Y-97613630D01*
X151772864Y-97674313D01*
X151763014Y-97682848D01*
X151704400Y-97728469D01*
X151680257Y-97747261D01*
X151511833Y-97930217D01*
X151375826Y-98138393D01*
X151275936Y-98366118D01*
X151214892Y-98607175D01*
X151214890Y-98607187D01*
X151194357Y-98854994D01*
X151194357Y-98855005D01*
X151214890Y-99102812D01*
X151214892Y-99102824D01*
X151275936Y-99343881D01*
X151375826Y-99571606D01*
X151511833Y-99779782D01*
X151511836Y-99779785D01*
X151680256Y-99962738D01*
X151763008Y-100027147D01*
X151803821Y-100083857D01*
X151807496Y-100153630D01*
X151772864Y-100214313D01*
X151763014Y-100222848D01*
X151704400Y-100268469D01*
X151680257Y-100287261D01*
X151511833Y-100470217D01*
X151375826Y-100678393D01*
X151275936Y-100906118D01*
X151214892Y-101147175D01*
X151214890Y-101147187D01*
X151194357Y-101394994D01*
X151194357Y-101395005D01*
X151214890Y-101642812D01*
X151214892Y-101642824D01*
X151275936Y-101883881D01*
X151375826Y-102111606D01*
X151511833Y-102319782D01*
X151511836Y-102319785D01*
X151680256Y-102502738D01*
X151763008Y-102567147D01*
X151803821Y-102623857D01*
X151807496Y-102693630D01*
X151772864Y-102754313D01*
X151763014Y-102762848D01*
X151730656Y-102788034D01*
X151680257Y-102827261D01*
X151511833Y-103010217D01*
X151375826Y-103218393D01*
X151275936Y-103446118D01*
X151214892Y-103687175D01*
X151214890Y-103687187D01*
X151194357Y-103934994D01*
X151194357Y-103935005D01*
X151214890Y-104182812D01*
X151214892Y-104182824D01*
X151275936Y-104423881D01*
X151375826Y-104651606D01*
X151511833Y-104859782D01*
X151511836Y-104859785D01*
X151680256Y-105042738D01*
X151757502Y-105102861D01*
X151783745Y-105123287D01*
X151824558Y-105179997D01*
X151831344Y-105228823D01*
X151829943Y-105251389D01*
X152562425Y-105983871D01*
X152503147Y-105999755D01*
X152386853Y-106066898D01*
X152291898Y-106161853D01*
X152224755Y-106278147D01*
X152208871Y-106337425D01*
X151476563Y-105605117D01*
X151376267Y-105758633D01*
X151376265Y-105758637D01*
X151276412Y-105986282D01*
X151215387Y-106227261D01*
X151215385Y-106227270D01*
X151194859Y-106474994D01*
X151194859Y-106475000D01*
X151215385Y-106722729D01*
X151215387Y-106722738D01*
X151276412Y-106963717D01*
X151376267Y-107191367D01*
X151507182Y-107391748D01*
X151527369Y-107458637D01*
X151508189Y-107525823D01*
X151462806Y-107568398D01*
X151457667Y-107571204D01*
X151342455Y-107657452D01*
X151342452Y-107657455D01*
X151256206Y-107772664D01*
X151256202Y-107772671D01*
X151205908Y-107907517D01*
X151199501Y-107967116D01*
X151199501Y-107967123D01*
X151199500Y-107967135D01*
X151199500Y-110062870D01*
X151199501Y-110062876D01*
X151205908Y-110122483D01*
X151256202Y-110257328D01*
X151256206Y-110257335D01*
X151342452Y-110372544D01*
X151342455Y-110372547D01*
X151457664Y-110458793D01*
X151457671Y-110458797D01*
X151592517Y-110509091D01*
X151592516Y-110509091D01*
X151599444Y-110509835D01*
X151652127Y-110515500D01*
X153747872Y-110515499D01*
X153807483Y-110509091D01*
X153942331Y-110458796D01*
X154057546Y-110372546D01*
X154143796Y-110257331D01*
X154194091Y-110122483D01*
X154200500Y-110062873D01*
X154200499Y-107967128D01*
X154194091Y-107907517D01*
X154193995Y-107907260D01*
X154143797Y-107772671D01*
X154143793Y-107772664D01*
X154057547Y-107657455D01*
X154057544Y-107657452D01*
X153942333Y-107571204D01*
X153937197Y-107568400D01*
X153887793Y-107518994D01*
X153872942Y-107450721D01*
X153892817Y-107391747D01*
X154023733Y-107191364D01*
X154123587Y-106963717D01*
X154184612Y-106722738D01*
X154184614Y-106722729D01*
X154205141Y-106475000D01*
X154205141Y-106474994D01*
X154184614Y-106227270D01*
X154184612Y-106227261D01*
X154123587Y-105986282D01*
X154023732Y-105758632D01*
X153923435Y-105605116D01*
X153191127Y-106337423D01*
X153175245Y-106278147D01*
X153108102Y-106161853D01*
X153013147Y-106066898D01*
X152896853Y-105999755D01*
X152837574Y-105983871D01*
X153570055Y-105251389D01*
X153568654Y-105228825D01*
X153584146Y-105160694D01*
X153616249Y-105123290D01*
X153719744Y-105042738D01*
X153888164Y-104859785D01*
X154024173Y-104651607D01*
X154124063Y-104423881D01*
X154185108Y-104182821D01*
X154205643Y-103935000D01*
X154185108Y-103687179D01*
X154124063Y-103446119D01*
X154024173Y-103218393D01*
X153888166Y-103010217D01*
X153866557Y-102986744D01*
X153719744Y-102827262D01*
X153636991Y-102762852D01*
X153596179Y-102706143D01*
X153592504Y-102636370D01*
X153627136Y-102575687D01*
X153636985Y-102567151D01*
X153719744Y-102502738D01*
X153888164Y-102319785D01*
X154024173Y-102111607D01*
X154124063Y-101883881D01*
X154185108Y-101642821D01*
X154185109Y-101642812D01*
X154205643Y-101395005D01*
X154205643Y-101394994D01*
X154185109Y-101147187D01*
X154185107Y-101147175D01*
X154124063Y-100906118D01*
X154024173Y-100678393D01*
X153888166Y-100470217D01*
X153825754Y-100402420D01*
X153719744Y-100287262D01*
X153636991Y-100222852D01*
X153596179Y-100166143D01*
X153592504Y-100096370D01*
X153627136Y-100035687D01*
X153636985Y-100027151D01*
X153719744Y-99962738D01*
X153888164Y-99779785D01*
X154024173Y-99571607D01*
X154124063Y-99343881D01*
X154185108Y-99102821D01*
X154185109Y-99102812D01*
X154205643Y-98855005D01*
X154205643Y-98854994D01*
X154185109Y-98607187D01*
X154185107Y-98607175D01*
X154124063Y-98366118D01*
X154024173Y-98138393D01*
X153888166Y-97930217D01*
X153781625Y-97814483D01*
X153719744Y-97747262D01*
X153636991Y-97682852D01*
X153596179Y-97626143D01*
X153592504Y-97556370D01*
X153627136Y-97495687D01*
X153636985Y-97487151D01*
X153719744Y-97422738D01*
X153888164Y-97239785D01*
X154024173Y-97031607D01*
X154124063Y-96803881D01*
X154185108Y-96562821D01*
X154197749Y-96410266D01*
X154205643Y-96315005D01*
X154205643Y-96314994D01*
X154185109Y-96067187D01*
X154185107Y-96067175D01*
X154124063Y-95826118D01*
X154024173Y-95598393D01*
X153888166Y-95390217D01*
X153818463Y-95314500D01*
X153719744Y-95207262D01*
X153636991Y-95142852D01*
X153596179Y-95086143D01*
X153592504Y-95016370D01*
X153627136Y-94955687D01*
X153636985Y-94947151D01*
X153719744Y-94882738D01*
X153888164Y-94699785D01*
X154024173Y-94491607D01*
X154124063Y-94263881D01*
X154185108Y-94022821D01*
X154185250Y-94021105D01*
X154205643Y-93775005D01*
X154205643Y-93774994D01*
X154185109Y-93527187D01*
X154185107Y-93527175D01*
X154124063Y-93286118D01*
X154024173Y-93058393D01*
X153888166Y-92850217D01*
X153831728Y-92788909D01*
X153719744Y-92667262D01*
X153636991Y-92602852D01*
X153596179Y-92546143D01*
X153592504Y-92476370D01*
X153627136Y-92415687D01*
X153636985Y-92407151D01*
X153682415Y-92371791D01*
X153747409Y-92346150D01*
X153815949Y-92359717D01*
X153846258Y-92381965D01*
X156963181Y-95498888D01*
X156996666Y-95560211D01*
X156999500Y-95586569D01*
X156999500Y-130901459D01*
X156999500Y-131098541D01*
X156999500Y-131098543D01*
X156999499Y-131098543D01*
X157037947Y-131291829D01*
X157037950Y-131291839D01*
X157113364Y-131473907D01*
X157113371Y-131473920D01*
X157222860Y-131637781D01*
X157222863Y-131637785D01*
X157362214Y-131777136D01*
X157362218Y-131777139D01*
X157526079Y-131886628D01*
X157526092Y-131886635D01*
X157636788Y-131932486D01*
X157708165Y-131962051D01*
X157708169Y-131962051D01*
X157708170Y-131962052D01*
X157901456Y-132000500D01*
X157901459Y-132000500D01*
X170478543Y-132000500D01*
X170562329Y-131983833D01*
X170604223Y-131975500D01*
X170671836Y-131962051D01*
X170743219Y-131932483D01*
X170853914Y-131886632D01*
X171017782Y-131777139D01*
X171157139Y-131637782D01*
X171157139Y-131637780D01*
X171167347Y-131627573D01*
X171167348Y-131627570D01*
X174093999Y-128700920D01*
X174155320Y-128667437D01*
X174157449Y-128666993D01*
X174171835Y-128664132D01*
X174353914Y-128588713D01*
X174517782Y-128479220D01*
X174657139Y-128339863D01*
X174766632Y-128175995D01*
X174842051Y-127993916D01*
X174854632Y-127930663D01*
X174880500Y-127800624D01*
X174880500Y-127460758D01*
X174900185Y-127393719D01*
X174916819Y-127373077D01*
X174918495Y-127371401D01*
X174983925Y-127277956D01*
X175038502Y-127234332D01*
X175108000Y-127227138D01*
X175170355Y-127258661D01*
X175205769Y-127318890D01*
X175209500Y-127349080D01*
X175209500Y-132132745D01*
X175189815Y-132199784D01*
X175173181Y-132220426D01*
X175080426Y-132313181D01*
X175019103Y-132346666D01*
X174992745Y-132349500D01*
X111893942Y-132349500D01*
X111826903Y-132329815D01*
X111781148Y-132277011D01*
X111771204Y-132207853D01*
X111800229Y-132144297D01*
X111822818Y-132123926D01*
X111981078Y-132013109D01*
X112148105Y-131846082D01*
X112283600Y-131652578D01*
X112383429Y-131438492D01*
X112383432Y-131438486D01*
X112440636Y-131225000D01*
X111543012Y-131225000D01*
X111575925Y-131167993D01*
X111610000Y-131040826D01*
X111610000Y-130909174D01*
X111575925Y-130782007D01*
X111543012Y-130725000D01*
X112440636Y-130725000D01*
X112440635Y-130724999D01*
X112383432Y-130511513D01*
X112383429Y-130511507D01*
X112283600Y-130297422D01*
X112283599Y-130297420D01*
X112148113Y-130103926D01*
X112148108Y-130103920D01*
X111981082Y-129936894D01*
X111787578Y-129801399D01*
X111573492Y-129701570D01*
X111573486Y-129701567D01*
X111360000Y-129644364D01*
X111360000Y-130541988D01*
X111302993Y-130509075D01*
X111175826Y-130475000D01*
X111044174Y-130475000D01*
X110917007Y-130509075D01*
X110860000Y-130541988D01*
X110860000Y-129644364D01*
X110859999Y-129644364D01*
X110646513Y-129701567D01*
X110646507Y-129701570D01*
X110432422Y-129801399D01*
X110432420Y-129801400D01*
X110238926Y-129936886D01*
X110238920Y-129936891D01*
X110071891Y-130103920D01*
X110071890Y-130103922D01*
X109941880Y-130289595D01*
X109887303Y-130333219D01*
X109817804Y-130340412D01*
X109755450Y-130308890D01*
X109738730Y-130289594D01*
X109608494Y-130103597D01*
X109441402Y-129936506D01*
X109441395Y-129936501D01*
X109247834Y-129800967D01*
X109247830Y-129800965D01*
X109247828Y-129800964D01*
X109033663Y-129701097D01*
X109033659Y-129701096D01*
X109033655Y-129701094D01*
X108805413Y-129639938D01*
X108805403Y-129639936D01*
X108570001Y-129619341D01*
X108569999Y-129619341D01*
X108334596Y-129639936D01*
X108334586Y-129639938D01*
X108106344Y-129701094D01*
X108106335Y-129701098D01*
X107892171Y-129800964D01*
X107892169Y-129800965D01*
X107698597Y-129936505D01*
X107531505Y-130103597D01*
X107401575Y-130289158D01*
X107346998Y-130332783D01*
X107277500Y-130339977D01*
X107215145Y-130308454D01*
X107198425Y-130289158D01*
X107068494Y-130103597D01*
X106901402Y-129936506D01*
X106901395Y-129936501D01*
X106707834Y-129800967D01*
X106707830Y-129800965D01*
X106707828Y-129800964D01*
X106493663Y-129701097D01*
X106493659Y-129701096D01*
X106493655Y-129701094D01*
X106265413Y-129639938D01*
X106265403Y-129639936D01*
X106030001Y-129619341D01*
X106029999Y-129619341D01*
X105794596Y-129639936D01*
X105794586Y-129639938D01*
X105566344Y-129701094D01*
X105566335Y-129701098D01*
X105352171Y-129800964D01*
X105352169Y-129800965D01*
X105158597Y-129936505D01*
X104991505Y-130103597D01*
X104861575Y-130289158D01*
X104806998Y-130332783D01*
X104737500Y-130339977D01*
X104675145Y-130308454D01*
X104658425Y-130289158D01*
X104528494Y-130103597D01*
X104361402Y-129936506D01*
X104361395Y-129936501D01*
X104167834Y-129800967D01*
X104167830Y-129800965D01*
X104167828Y-129800964D01*
X103953663Y-129701097D01*
X103953659Y-129701096D01*
X103953655Y-129701094D01*
X103777596Y-129653920D01*
X103717935Y-129617555D01*
X103687406Y-129554708D01*
X103695701Y-129485333D01*
X103722005Y-129446467D01*
X116308215Y-116860258D01*
X126019500Y-116860258D01*
X126019500Y-117089741D01*
X126036203Y-117216603D01*
X126049452Y-117317238D01*
X126108842Y-117538887D01*
X126196650Y-117750876D01*
X126196657Y-117750890D01*
X126311392Y-117949617D01*
X126451081Y-118131661D01*
X126451089Y-118131670D01*
X126613330Y-118293911D01*
X126613338Y-118293918D01*
X126795382Y-118433607D01*
X126795385Y-118433608D01*
X126795388Y-118433611D01*
X126994112Y-118548344D01*
X126994117Y-118548346D01*
X126994123Y-118548349D01*
X127085480Y-118586190D01*
X127206113Y-118636158D01*
X127427762Y-118695548D01*
X127655266Y-118725500D01*
X127655273Y-118725500D01*
X127884727Y-118725500D01*
X127884734Y-118725500D01*
X128112238Y-118695548D01*
X128333887Y-118636158D01*
X128545888Y-118548344D01*
X128744612Y-118433611D01*
X128926661Y-118293919D01*
X128926665Y-118293914D01*
X128926670Y-118293911D01*
X129088911Y-118131670D01*
X129088914Y-118131665D01*
X129088919Y-118131661D01*
X129228611Y-117949612D01*
X129343344Y-117750888D01*
X129431158Y-117538887D01*
X129490548Y-117317238D01*
X129520500Y-117089734D01*
X129520500Y-116860266D01*
X129520499Y-116860258D01*
X150529500Y-116860258D01*
X150529500Y-117089741D01*
X150546203Y-117216603D01*
X150559452Y-117317238D01*
X150618842Y-117538887D01*
X150706650Y-117750876D01*
X150706657Y-117750890D01*
X150821392Y-117949617D01*
X150961081Y-118131661D01*
X150961089Y-118131670D01*
X151123330Y-118293911D01*
X151123338Y-118293918D01*
X151305382Y-118433607D01*
X151305385Y-118433608D01*
X151305388Y-118433611D01*
X151504112Y-118548344D01*
X151504117Y-118548346D01*
X151504123Y-118548349D01*
X151595480Y-118586190D01*
X151716113Y-118636158D01*
X151937762Y-118695548D01*
X152165266Y-118725500D01*
X152165273Y-118725500D01*
X152394727Y-118725500D01*
X152394734Y-118725500D01*
X152622238Y-118695548D01*
X152843887Y-118636158D01*
X153055888Y-118548344D01*
X153254612Y-118433611D01*
X153436661Y-118293919D01*
X153436665Y-118293914D01*
X153436670Y-118293911D01*
X153598911Y-118131670D01*
X153598914Y-118131665D01*
X153598919Y-118131661D01*
X153738611Y-117949612D01*
X153853344Y-117750888D01*
X153941158Y-117538887D01*
X154000548Y-117317238D01*
X154030500Y-117089734D01*
X154030500Y-116860266D01*
X154000548Y-116632762D01*
X153941158Y-116411113D01*
X153853344Y-116199112D01*
X153738611Y-116000388D01*
X153738608Y-116000385D01*
X153738607Y-116000382D01*
X153598918Y-115818338D01*
X153598911Y-115818330D01*
X153436670Y-115656089D01*
X153436661Y-115656081D01*
X153254617Y-115516392D01*
X153055890Y-115401657D01*
X153055876Y-115401650D01*
X152843887Y-115313842D01*
X152622238Y-115254452D01*
X152584215Y-115249446D01*
X152394741Y-115224500D01*
X152394734Y-115224500D01*
X152165266Y-115224500D01*
X152165258Y-115224500D01*
X151948715Y-115253009D01*
X151937762Y-115254452D01*
X151844076Y-115279554D01*
X151716112Y-115313842D01*
X151504123Y-115401650D01*
X151504109Y-115401657D01*
X151305382Y-115516392D01*
X151123338Y-115656081D01*
X150961081Y-115818338D01*
X150821392Y-116000382D01*
X150706657Y-116199109D01*
X150706650Y-116199123D01*
X150618842Y-116411112D01*
X150618842Y-116411113D01*
X150571351Y-116588356D01*
X150559453Y-116632759D01*
X150559451Y-116632770D01*
X150529500Y-116860258D01*
X129520499Y-116860258D01*
X129490548Y-116632762D01*
X129431158Y-116411113D01*
X129343344Y-116199112D01*
X129228611Y-116000388D01*
X129228608Y-116000385D01*
X129228607Y-116000382D01*
X129088918Y-115818338D01*
X129088911Y-115818330D01*
X128926670Y-115656089D01*
X128926661Y-115656081D01*
X128744617Y-115516392D01*
X128545890Y-115401657D01*
X128545876Y-115401650D01*
X128333887Y-115313842D01*
X128112238Y-115254452D01*
X128074215Y-115249446D01*
X127884741Y-115224500D01*
X127884734Y-115224500D01*
X127655266Y-115224500D01*
X127655258Y-115224500D01*
X127438715Y-115253009D01*
X127427762Y-115254452D01*
X127334076Y-115279554D01*
X127206112Y-115313842D01*
X126994123Y-115401650D01*
X126994109Y-115401657D01*
X126795382Y-115516392D01*
X126613338Y-115656081D01*
X126451081Y-115818338D01*
X126311392Y-116000382D01*
X126196657Y-116199109D01*
X126196650Y-116199123D01*
X126108842Y-116411112D01*
X126108842Y-116411113D01*
X126061351Y-116588356D01*
X126049453Y-116632759D01*
X126049451Y-116632770D01*
X126019500Y-116860258D01*
X116308215Y-116860258D01*
X122866655Y-110301819D01*
X122927978Y-110268334D01*
X122954336Y-110265500D01*
X126426659Y-110265500D01*
X126485676Y-110280445D01*
X126525172Y-110301819D01*
X126695190Y-110393828D01*
X126930386Y-110474571D01*
X127175665Y-110515500D01*
X127424335Y-110515500D01*
X127669614Y-110474571D01*
X127904810Y-110393828D01*
X128123509Y-110275474D01*
X128319744Y-110122738D01*
X128488164Y-109939785D01*
X128624173Y-109731607D01*
X128724063Y-109503881D01*
X128785108Y-109262821D01*
X128802082Y-109057974D01*
X128805643Y-109015005D01*
X128805643Y-109014994D01*
X128785109Y-108767187D01*
X128785107Y-108767175D01*
X128724063Y-108526118D01*
X128624173Y-108298393D01*
X128488166Y-108090217D01*
X128461427Y-108061171D01*
X128319744Y-107907262D01*
X128254032Y-107856116D01*
X128216254Y-107826712D01*
X128175441Y-107770002D01*
X128168655Y-107721176D01*
X128170055Y-107698608D01*
X127437574Y-106966128D01*
X127496853Y-106950245D01*
X127613147Y-106883102D01*
X127708102Y-106788147D01*
X127775245Y-106671853D01*
X127791128Y-106612575D01*
X128523435Y-107344882D01*
X128623733Y-107191364D01*
X128723587Y-106963717D01*
X128784612Y-106722738D01*
X128784614Y-106722729D01*
X128805141Y-106475000D01*
X128805141Y-106474994D01*
X128784614Y-106227270D01*
X128784612Y-106227261D01*
X128723587Y-105986282D01*
X128623732Y-105758632D01*
X128523435Y-105605116D01*
X127791128Y-106337424D01*
X127775245Y-106278147D01*
X127708102Y-106161853D01*
X127613147Y-106066898D01*
X127496853Y-105999755D01*
X127437574Y-105983871D01*
X128170055Y-105251389D01*
X128168654Y-105228825D01*
X128184146Y-105160694D01*
X128216249Y-105123290D01*
X128319744Y-105042738D01*
X128344194Y-105016177D01*
X128381626Y-104975517D01*
X128441513Y-104939526D01*
X128472855Y-104935500D01*
X128812756Y-104935500D01*
X128909388Y-104916278D01*
X128957706Y-104906667D01*
X129006049Y-104897051D01*
X129059378Y-104874961D01*
X129188127Y-104821632D01*
X129351995Y-104712139D01*
X129491352Y-104572782D01*
X129491352Y-104572780D01*
X129501560Y-104562573D01*
X129501561Y-104562570D01*
X136468840Y-97595294D01*
X136519166Y-97519975D01*
X136578332Y-97431427D01*
X136642276Y-97277051D01*
X136653751Y-97249349D01*
X136692200Y-97056053D01*
X136692200Y-96858973D01*
X136692200Y-49844458D01*
X136711885Y-49777419D01*
X136728519Y-49756777D01*
X136730195Y-49755101D01*
X136865735Y-49561530D01*
X136965603Y-49347363D01*
X137026763Y-49119108D01*
X137047359Y-48883700D01*
X137026763Y-48648292D01*
X136965603Y-48420037D01*
X136865735Y-48205871D01*
X136760353Y-48055368D01*
X136730194Y-48012297D01*
X136563102Y-47845206D01*
X136563096Y-47845201D01*
X136377542Y-47715275D01*
X136333917Y-47660698D01*
X136326723Y-47591200D01*
X136358246Y-47528845D01*
X136377542Y-47512125D01*
X136451680Y-47460213D01*
X136563101Y-47382195D01*
X136730195Y-47215101D01*
X136865735Y-47021530D01*
X136965603Y-46807363D01*
X137026763Y-46579108D01*
X137047359Y-46343700D01*
X137026763Y-46108292D01*
X136965603Y-45880037D01*
X136865735Y-45665871D01*
X136796197Y-45566559D01*
X136730194Y-45472297D01*
X136728519Y-45470622D01*
X136728015Y-45469700D01*
X136726714Y-45468149D01*
X136727025Y-45467887D01*
X136695034Y-45409299D01*
X136692200Y-45382941D01*
X136692200Y-44764458D01*
X136711885Y-44697419D01*
X136728519Y-44676777D01*
X136730195Y-44675101D01*
X136865735Y-44481530D01*
X136965603Y-44267363D01*
X137026763Y-44039108D01*
X137047359Y-43803700D01*
X137026763Y-43568292D01*
X136965603Y-43340037D01*
X136865735Y-43125871D01*
X136838811Y-43087420D01*
X136730196Y-42932300D01*
X136691816Y-42893920D01*
X136608267Y-42810371D01*
X136574784Y-42749051D01*
X136579768Y-42679359D01*
X136621639Y-42623425D01*
X136652615Y-42606510D01*
X136784031Y-42557496D01*
X136899246Y-42471246D01*
X136985496Y-42356031D01*
X137035791Y-42221183D01*
X137042200Y-42161573D01*
X137042199Y-40365828D01*
X137035791Y-40306217D01*
X137021356Y-40267516D01*
X136985497Y-40171371D01*
X136985493Y-40171364D01*
X136899247Y-40056155D01*
X136899244Y-40056152D01*
X136784035Y-39969906D01*
X136784028Y-39969902D01*
X136649182Y-39919608D01*
X136649183Y-39919608D01*
X136589583Y-39913201D01*
X136589581Y-39913200D01*
X136589573Y-39913200D01*
X136589564Y-39913200D01*
X134793829Y-39913200D01*
X134793823Y-39913201D01*
X134734216Y-39919608D01*
X134599371Y-39969902D01*
X134599364Y-39969906D01*
X134484155Y-40056152D01*
X134484152Y-40056155D01*
X134397906Y-40171364D01*
X134397902Y-40171371D01*
X134350789Y-40297690D01*
X134308918Y-40353624D01*
X134282062Y-40368917D01*
X134262389Y-40377066D01*
X134262383Y-40377069D01*
X134098522Y-40486557D01*
X134098519Y-40486559D01*
X134028840Y-40556238D01*
X133959161Y-40625918D01*
X133959158Y-40625921D01*
X115862221Y-58722858D01*
X115862218Y-58722861D01*
X115792538Y-58792540D01*
X115722859Y-58862219D01*
X115613371Y-59026079D01*
X115613366Y-59026089D01*
X115560039Y-59154829D01*
X115560038Y-59154834D01*
X115547398Y-59185354D01*
X115547397Y-59185357D01*
X115537950Y-59208160D01*
X115537947Y-59208169D01*
X115499500Y-59401456D01*
X115499500Y-93598541D01*
X115507306Y-93637781D01*
X115507306Y-93637784D01*
X115537947Y-93791828D01*
X115537949Y-93791836D01*
X115559086Y-93842865D01*
X115613364Y-93973906D01*
X115613371Y-93973919D01*
X115660797Y-94044896D01*
X115722861Y-94137782D01*
X115862218Y-94277139D01*
X115862220Y-94277140D01*
X115869286Y-94284206D01*
X115869285Y-94284206D01*
X115869289Y-94284209D01*
X121217215Y-99632137D01*
X121217219Y-99632140D01*
X121381079Y-99741628D01*
X121381085Y-99741631D01*
X121381086Y-99741632D01*
X121563165Y-99817052D01*
X121724389Y-99849121D01*
X121756457Y-99855499D01*
X121756458Y-99855500D01*
X121756459Y-99855500D01*
X121756460Y-99855500D01*
X121953541Y-99855500D01*
X126127145Y-99855500D01*
X126194184Y-99875185D01*
X126218374Y-99895517D01*
X126252095Y-99932147D01*
X126280256Y-99962738D01*
X126363008Y-100027147D01*
X126403821Y-100083857D01*
X126407496Y-100153630D01*
X126372864Y-100214313D01*
X126363014Y-100222848D01*
X126304400Y-100268469D01*
X126280257Y-100287261D01*
X126111833Y-100470217D01*
X125975826Y-100678393D01*
X125875936Y-100906118D01*
X125814892Y-101147175D01*
X125814890Y-101147187D01*
X125794357Y-101394994D01*
X125794357Y-101395005D01*
X125814890Y-101642812D01*
X125814892Y-101642824D01*
X125875936Y-101883881D01*
X125975826Y-102111606D01*
X126111833Y-102319782D01*
X126111836Y-102319785D01*
X126280256Y-102502738D01*
X126363008Y-102567147D01*
X126403821Y-102623857D01*
X126407496Y-102693630D01*
X126372864Y-102754313D01*
X126363014Y-102762848D01*
X126330656Y-102788034D01*
X126280257Y-102827261D01*
X126111833Y-103010217D01*
X125975826Y-103218393D01*
X125875936Y-103446118D01*
X125814892Y-103687175D01*
X125814890Y-103687187D01*
X125794357Y-103934994D01*
X125794357Y-103935005D01*
X125814890Y-104182812D01*
X125814892Y-104182824D01*
X125875936Y-104423881D01*
X125975826Y-104651606D01*
X126111833Y-104859782D01*
X126111836Y-104859785D01*
X126280256Y-105042738D01*
X126357502Y-105102861D01*
X126383745Y-105123287D01*
X126424558Y-105179997D01*
X126431344Y-105228823D01*
X126429943Y-105251389D01*
X127162425Y-105983871D01*
X127103147Y-105999755D01*
X126986853Y-106066898D01*
X126891898Y-106161853D01*
X126824755Y-106278147D01*
X126808871Y-106337425D01*
X126076563Y-105605117D01*
X125976267Y-105758633D01*
X125976265Y-105758637D01*
X125876412Y-105986282D01*
X125815387Y-106227261D01*
X125815385Y-106227270D01*
X125794859Y-106474994D01*
X125794859Y-106475000D01*
X125815385Y-106722729D01*
X125815387Y-106722738D01*
X125876412Y-106963717D01*
X125976267Y-107191367D01*
X126076562Y-107344881D01*
X126808871Y-106612573D01*
X126824755Y-106671853D01*
X126891898Y-106788147D01*
X126986853Y-106883102D01*
X127103147Y-106950245D01*
X127162425Y-106966128D01*
X126400372Y-107728181D01*
X126339049Y-107761666D01*
X126312691Y-107764500D01*
X122286578Y-107764500D01*
X122092173Y-107795290D01*
X121904969Y-107856117D01*
X121729594Y-107945476D01*
X121638742Y-108011484D01*
X121570355Y-108061171D01*
X121570353Y-108061173D01*
X121570352Y-108061173D01*
X100024507Y-129607017D01*
X99980159Y-129635518D01*
X99857671Y-129681202D01*
X99857668Y-129681204D01*
X99832872Y-129699767D01*
X99767408Y-129724184D01*
X99758561Y-129724500D01*
X93544337Y-129724500D01*
X93477298Y-129704815D01*
X93456656Y-129688181D01*
X92286819Y-128518344D01*
X92253334Y-128457021D01*
X92250500Y-128430663D01*
X92250500Y-121652155D01*
X96200000Y-121652155D01*
X96200000Y-122750000D01*
X97399999Y-122750000D01*
X97374979Y-122810402D01*
X97350000Y-122935981D01*
X97350000Y-123064019D01*
X97374979Y-123189598D01*
X97399999Y-123250000D01*
X96200000Y-123250000D01*
X96200000Y-124347844D01*
X96206401Y-124407372D01*
X96206403Y-124407379D01*
X96256645Y-124542086D01*
X96256649Y-124542093D01*
X96342809Y-124657187D01*
X96342812Y-124657190D01*
X96457906Y-124743350D01*
X96457913Y-124743354D01*
X96592620Y-124793596D01*
X96592627Y-124793598D01*
X96652155Y-124799999D01*
X96652172Y-124800000D01*
X97750000Y-124800000D01*
X97750000Y-123600001D01*
X97810402Y-123625021D01*
X97935981Y-123650000D01*
X98064019Y-123650000D01*
X98189598Y-123625021D01*
X98250000Y-123600001D01*
X98250000Y-124800000D01*
X99347828Y-124800000D01*
X99347844Y-124799999D01*
X99407372Y-124793598D01*
X99407379Y-124793596D01*
X99542086Y-124743354D01*
X99542093Y-124743350D01*
X99657187Y-124657190D01*
X99657190Y-124657187D01*
X99743350Y-124542093D01*
X99743354Y-124542086D01*
X99793596Y-124407379D01*
X99793598Y-124407372D01*
X99799999Y-124347844D01*
X99800000Y-124347827D01*
X99800000Y-123250000D01*
X98600001Y-123250000D01*
X98625021Y-123189598D01*
X98650000Y-123064019D01*
X98650000Y-122935981D01*
X98625021Y-122810402D01*
X98600001Y-122750000D01*
X99800000Y-122750000D01*
X99800000Y-121652172D01*
X99799999Y-121652155D01*
X99793598Y-121592627D01*
X99793596Y-121592620D01*
X99743354Y-121457913D01*
X99743350Y-121457906D01*
X99657190Y-121342812D01*
X99657187Y-121342809D01*
X99542093Y-121256649D01*
X99542086Y-121256645D01*
X99407379Y-121206403D01*
X99407372Y-121206401D01*
X99347844Y-121200000D01*
X98250000Y-121200000D01*
X98250000Y-122399998D01*
X98189598Y-122374979D01*
X98064019Y-122350000D01*
X97935981Y-122350000D01*
X97810402Y-122374979D01*
X97750000Y-122399998D01*
X97750000Y-121200000D01*
X96652155Y-121200000D01*
X96592627Y-121206401D01*
X96592620Y-121206403D01*
X96457913Y-121256645D01*
X96457906Y-121256649D01*
X96342812Y-121342809D01*
X96342809Y-121342812D01*
X96256649Y-121457906D01*
X96256645Y-121457913D01*
X96206403Y-121592620D01*
X96206401Y-121592627D01*
X96200000Y-121652155D01*
X92250500Y-121652155D01*
X92250500Y-117999995D01*
X96194451Y-117999995D01*
X96194451Y-118000004D01*
X96214616Y-118269101D01*
X96274664Y-118532188D01*
X96274666Y-118532195D01*
X96315468Y-118636157D01*
X96373257Y-118783398D01*
X96508185Y-119017102D01*
X96644080Y-119187509D01*
X96676442Y-119228089D01*
X96863183Y-119401358D01*
X96874259Y-119411635D01*
X97097226Y-119563651D01*
X97340359Y-119680738D01*
X97598228Y-119760280D01*
X97598229Y-119760280D01*
X97598232Y-119760281D01*
X97865063Y-119800499D01*
X97865068Y-119800499D01*
X97865071Y-119800500D01*
X97865072Y-119800500D01*
X98134928Y-119800500D01*
X98134929Y-119800500D01*
X98134936Y-119800499D01*
X98401767Y-119760281D01*
X98401768Y-119760280D01*
X98401772Y-119760280D01*
X98659641Y-119680738D01*
X98902775Y-119563651D01*
X99125741Y-119411635D01*
X99323561Y-119228085D01*
X99491815Y-119017102D01*
X99626743Y-118783398D01*
X99725334Y-118532195D01*
X99785383Y-118269103D01*
X99805549Y-118000000D01*
X99801773Y-117949617D01*
X99785383Y-117730898D01*
X99725335Y-117467811D01*
X99725334Y-117467805D01*
X99626743Y-117216602D01*
X99491815Y-116982898D01*
X99323561Y-116771915D01*
X99323560Y-116771914D01*
X99323557Y-116771910D01*
X99173598Y-116632770D01*
X99125741Y-116588365D01*
X99125737Y-116588362D01*
X99125730Y-116588356D01*
X99054648Y-116539893D01*
X99010346Y-116485864D01*
X99000500Y-116437440D01*
X99000500Y-105356982D01*
X99020185Y-105289943D01*
X99036819Y-105269301D01*
X106632348Y-97673772D01*
X106693671Y-97640287D01*
X106720029Y-97637453D01*
X114985460Y-97637453D01*
X115052499Y-97657138D01*
X115056571Y-97659870D01*
X115210314Y-97767521D01*
X115416552Y-97863692D01*
X115636356Y-97922588D01*
X115798278Y-97936754D01*
X115863046Y-97942421D01*
X115863048Y-97942421D01*
X115863050Y-97942421D01*
X115919721Y-97937462D01*
X116089740Y-97922588D01*
X116309544Y-97863692D01*
X116515782Y-97767521D01*
X116702187Y-97637000D01*
X116863095Y-97476092D01*
X116993616Y-97289687D01*
X117089787Y-97083449D01*
X117148683Y-96863645D01*
X117168516Y-96636953D01*
X117148683Y-96410261D01*
X117089787Y-96190457D01*
X116993616Y-95984219D01*
X116882914Y-95826119D01*
X116863093Y-95797811D01*
X116702189Y-95636907D01*
X116515782Y-95506385D01*
X116515780Y-95506384D01*
X116309545Y-95410214D01*
X116309536Y-95410211D01*
X116089745Y-95351319D01*
X116089741Y-95351318D01*
X116089740Y-95351318D01*
X116089739Y-95351317D01*
X116089734Y-95351317D01*
X115863050Y-95331485D01*
X115863046Y-95331485D01*
X115636361Y-95351317D01*
X115636350Y-95351319D01*
X115416559Y-95410211D01*
X115416550Y-95410214D01*
X115210315Y-95506384D01*
X115210313Y-95506385D01*
X115056583Y-95614028D01*
X114990377Y-95636355D01*
X114985460Y-95636453D01*
X106155702Y-95636453D01*
X106059059Y-95655677D01*
X105962414Y-95674900D01*
X105962408Y-95674902D01*
X105909081Y-95696990D01*
X105909081Y-95696991D01*
X105863562Y-95715845D01*
X105780336Y-95750319D01*
X105780326Y-95750324D01*
X105616466Y-95859812D01*
X105546787Y-95929491D01*
X105477108Y-95999171D01*
X105477105Y-95999174D01*
X97362221Y-104114058D01*
X97362218Y-104114061D01*
X97293467Y-104182812D01*
X97222859Y-104253419D01*
X97113371Y-104417279D01*
X97113364Y-104417292D01*
X97037950Y-104599360D01*
X97037947Y-104599370D01*
X96999500Y-104792656D01*
X96999500Y-116437440D01*
X96979815Y-116504479D01*
X96945353Y-116539893D01*
X96874260Y-116588364D01*
X96676442Y-116771910D01*
X96508185Y-116982898D01*
X96373258Y-117216599D01*
X96373256Y-117216603D01*
X96274666Y-117467804D01*
X96274664Y-117467811D01*
X96214616Y-117730898D01*
X96194451Y-117999995D01*
X92250500Y-117999995D01*
X92250500Y-99914500D01*
X92270185Y-99847461D01*
X92322989Y-99801706D01*
X92374500Y-99790500D01*
X93232166Y-99790500D01*
X93299205Y-99810185D01*
X93344960Y-99862989D01*
X93354904Y-99932147D01*
X93325879Y-99995703D01*
X93303290Y-100016075D01*
X93266421Y-100041890D01*
X93099391Y-100208920D01*
X93099386Y-100208926D01*
X92963900Y-100402420D01*
X92963899Y-100402422D01*
X92864070Y-100616507D01*
X92864067Y-100616513D01*
X92806864Y-100829999D01*
X92806864Y-100830000D01*
X93704488Y-100830000D01*
X93671575Y-100887007D01*
X93637500Y-101014174D01*
X93637500Y-101145826D01*
X93671575Y-101272993D01*
X93704488Y-101330000D01*
X92806864Y-101330000D01*
X92864067Y-101543486D01*
X92864070Y-101543492D01*
X92963899Y-101757578D01*
X93099394Y-101951082D01*
X93266417Y-102118105D01*
X93459921Y-102253600D01*
X93674007Y-102353429D01*
X93674016Y-102353433D01*
X93887500Y-102410634D01*
X93887500Y-101513012D01*
X93944507Y-101545925D01*
X94071674Y-101580000D01*
X94203326Y-101580000D01*
X94330493Y-101545925D01*
X94387500Y-101513012D01*
X94387500Y-102410633D01*
X94600983Y-102353433D01*
X94600992Y-102353429D01*
X94815078Y-102253600D01*
X95008582Y-102118105D01*
X95175605Y-101951082D01*
X95311100Y-101757578D01*
X95410929Y-101543492D01*
X95410932Y-101543486D01*
X95468136Y-101330000D01*
X94570512Y-101330000D01*
X94603425Y-101272993D01*
X94637500Y-101145826D01*
X94637500Y-101014174D01*
X94603425Y-100887007D01*
X94570512Y-100830000D01*
X95468136Y-100830000D01*
X95468135Y-100829999D01*
X95410932Y-100616513D01*
X95410929Y-100616507D01*
X95311100Y-100402422D01*
X95311099Y-100402420D01*
X95175613Y-100208926D01*
X95175608Y-100208920D01*
X95008578Y-100041890D01*
X94822905Y-99911879D01*
X94779280Y-99857302D01*
X94772088Y-99787804D01*
X94803610Y-99725449D01*
X94822906Y-99708730D01*
X94932292Y-99632137D01*
X95008901Y-99578495D01*
X95175995Y-99411401D01*
X95311535Y-99217830D01*
X95411403Y-99003663D01*
X95472563Y-98775408D01*
X95493159Y-98540000D01*
X95472563Y-98304592D01*
X95411403Y-98076337D01*
X95311535Y-97862171D01*
X95292380Y-97834815D01*
X95175996Y-97668600D01*
X95121026Y-97613630D01*
X95054067Y-97546671D01*
X95020584Y-97485351D01*
X95025568Y-97415659D01*
X95067439Y-97359725D01*
X95098415Y-97342810D01*
X95229831Y-97293796D01*
X95345046Y-97207546D01*
X95431296Y-97092331D01*
X95481591Y-96957483D01*
X95488000Y-96897873D01*
X95487999Y-96115780D01*
X95507683Y-96048742D01*
X95524313Y-96028105D01*
X104015601Y-87536819D01*
X104076924Y-87503334D01*
X104103282Y-87500500D01*
X113042412Y-87500500D01*
X113109451Y-87520185D01*
X113113523Y-87522917D01*
X113267266Y-87630568D01*
X113473504Y-87726739D01*
X113693308Y-87785635D01*
X113855230Y-87799801D01*
X113919998Y-87805468D01*
X113920000Y-87805468D01*
X113920002Y-87805468D01*
X113976673Y-87800509D01*
X114146692Y-87785635D01*
X114366496Y-87726739D01*
X114572734Y-87630568D01*
X114759139Y-87500047D01*
X114920047Y-87339139D01*
X115050568Y-87152734D01*
X115146739Y-86946496D01*
X115205635Y-86726692D01*
X115225468Y-86500000D01*
X115221730Y-86457280D01*
X115216816Y-86401105D01*
X115205635Y-86273308D01*
X115146739Y-86053504D01*
X115050568Y-85847266D01*
X114920047Y-85660861D01*
X114920045Y-85660858D01*
X114759141Y-85499954D01*
X114572734Y-85369432D01*
X114572732Y-85369431D01*
X114366497Y-85273261D01*
X114366488Y-85273258D01*
X114146697Y-85214366D01*
X114146693Y-85214365D01*
X114146692Y-85214365D01*
X114146691Y-85214364D01*
X114146686Y-85214364D01*
X113920002Y-85194532D01*
X113919998Y-85194532D01*
X113693313Y-85214364D01*
X113693302Y-85214366D01*
X113473511Y-85273258D01*
X113473502Y-85273261D01*
X113267267Y-85369431D01*
X113267265Y-85369432D01*
X113113535Y-85477075D01*
X113047329Y-85499402D01*
X113042412Y-85499500D01*
X103538958Y-85499500D01*
X103510444Y-85505172D01*
X103481930Y-85510844D01*
X103481929Y-85510844D01*
X103345667Y-85537947D01*
X103345659Y-85537950D01*
X103292334Y-85560037D01*
X103292334Y-85560038D01*
X103246815Y-85578892D01*
X103163589Y-85613366D01*
X103163579Y-85613371D01*
X102999719Y-85722859D01*
X102963573Y-85759006D01*
X102860361Y-85862218D01*
X102860358Y-85862221D01*
X94109397Y-94613181D01*
X94048074Y-94646666D01*
X94021716Y-94649500D01*
X93239629Y-94649500D01*
X93239623Y-94649501D01*
X93180016Y-94655908D01*
X93045171Y-94706202D01*
X93045164Y-94706206D01*
X92929955Y-94792452D01*
X92929952Y-94792455D01*
X92843706Y-94907664D01*
X92843702Y-94907671D01*
X92793408Y-95042517D01*
X92787001Y-95102116D01*
X92787000Y-95102135D01*
X92787000Y-96897870D01*
X92787001Y-96897876D01*
X92793408Y-96957483D01*
X92843702Y-97092328D01*
X92847954Y-97100114D01*
X92846478Y-97100919D01*
X92867266Y-97156655D01*
X92852414Y-97224928D01*
X92803008Y-97274333D01*
X92743582Y-97289500D01*
X92374500Y-97289500D01*
X92307461Y-97269815D01*
X92261706Y-97217011D01*
X92250500Y-97165500D01*
X92250500Y-73388455D01*
X92270185Y-73321416D01*
X92286819Y-73300774D01*
X92449610Y-73137983D01*
X92623472Y-72964120D01*
X92684793Y-72930637D01*
X92754484Y-72935621D01*
X92810418Y-72977492D01*
X92834835Y-73042957D01*
X92830926Y-73083896D01*
X92806863Y-73173699D01*
X92806864Y-73173700D01*
X93704488Y-73173700D01*
X93671575Y-73230707D01*
X93637500Y-73357874D01*
X93637500Y-73489526D01*
X93671575Y-73616693D01*
X93704488Y-73673700D01*
X92806864Y-73673700D01*
X92864067Y-73887186D01*
X92864070Y-73887192D01*
X92963899Y-74101278D01*
X93099394Y-74294782D01*
X93266417Y-74461805D01*
X93459921Y-74597300D01*
X93674007Y-74697129D01*
X93674016Y-74697133D01*
X93887500Y-74754334D01*
X93887500Y-73856712D01*
X93944507Y-73889625D01*
X94071674Y-73923700D01*
X94203326Y-73923700D01*
X94330493Y-73889625D01*
X94387500Y-73856712D01*
X94387500Y-74754333D01*
X94600983Y-74697133D01*
X94600992Y-74697129D01*
X94815078Y-74597300D01*
X95008582Y-74461805D01*
X95175605Y-74294782D01*
X95311100Y-74101278D01*
X95410929Y-73887192D01*
X95410932Y-73887186D01*
X95468136Y-73673700D01*
X94570512Y-73673700D01*
X94603425Y-73616693D01*
X94637500Y-73489526D01*
X94637500Y-73357874D01*
X94603425Y-73230707D01*
X94570512Y-73173700D01*
X95468136Y-73173700D01*
X95468135Y-73173699D01*
X95410932Y-72960213D01*
X95410929Y-72960207D01*
X95311100Y-72746122D01*
X95311099Y-72746120D01*
X95175613Y-72552626D01*
X95175608Y-72552620D01*
X95008578Y-72385590D01*
X94822905Y-72255579D01*
X94779280Y-72201002D01*
X94772088Y-72131504D01*
X94803610Y-72069149D01*
X94822906Y-72052430D01*
X94873818Y-72016781D01*
X95008901Y-71922195D01*
X95175995Y-71755101D01*
X95311535Y-71561530D01*
X95411403Y-71347363D01*
X95472563Y-71119108D01*
X95493159Y-70883700D01*
X95472563Y-70648292D01*
X95411403Y-70420037D01*
X95311535Y-70205871D01*
X95265230Y-70139741D01*
X95175996Y-70012300D01*
X95163649Y-69999953D01*
X95054067Y-69890371D01*
X95020584Y-69829051D01*
X95025568Y-69759359D01*
X95067439Y-69703425D01*
X95098415Y-69686510D01*
X95229831Y-69637496D01*
X95345046Y-69551246D01*
X95431296Y-69436031D01*
X95435460Y-69424865D01*
X95477329Y-69368934D01*
X95542793Y-69344516D01*
X95551641Y-69344200D01*
X110797918Y-69344200D01*
X110864957Y-69363885D01*
X110885599Y-69380519D01*
X112593111Y-71088032D01*
X112626596Y-71149355D01*
X112628958Y-71164903D01*
X112634364Y-71226688D01*
X112634366Y-71226697D01*
X112693258Y-71446488D01*
X112693261Y-71446497D01*
X112789431Y-71652732D01*
X112789432Y-71652734D01*
X112919954Y-71839141D01*
X113080858Y-72000045D01*
X113080861Y-72000047D01*
X113267266Y-72130568D01*
X113473504Y-72226739D01*
X113693308Y-72285635D01*
X113855230Y-72299801D01*
X113919998Y-72305468D01*
X113920000Y-72305468D01*
X113920002Y-72305468D01*
X113976673Y-72300509D01*
X114146692Y-72285635D01*
X114366496Y-72226739D01*
X114572734Y-72130568D01*
X114759139Y-72000047D01*
X114920047Y-71839139D01*
X115050568Y-71652734D01*
X115146739Y-71446496D01*
X115205635Y-71226692D01*
X115225468Y-71000000D01*
X115225434Y-70999617D01*
X115205635Y-70773313D01*
X115205635Y-70773308D01*
X115146739Y-70553504D01*
X115050568Y-70347266D01*
X114920047Y-70160861D01*
X114920045Y-70160858D01*
X114759141Y-69999954D01*
X114572734Y-69869432D01*
X114572732Y-69869431D01*
X114366497Y-69773261D01*
X114366488Y-69773258D01*
X114146697Y-69714366D01*
X114146688Y-69714364D01*
X114084903Y-69708958D01*
X114019835Y-69683504D01*
X114008032Y-69673111D01*
X112047909Y-67712989D01*
X112047906Y-67712985D01*
X112047906Y-67712986D01*
X112040839Y-67705919D01*
X112040839Y-67705918D01*
X111901482Y-67566561D01*
X111901481Y-67566560D01*
X111901480Y-67566559D01*
X111737620Y-67457071D01*
X111737611Y-67457066D01*
X111665015Y-67426996D01*
X111608865Y-67403738D01*
X111555536Y-67381649D01*
X111555532Y-67381648D01*
X111555528Y-67381646D01*
X111458888Y-67362424D01*
X111362244Y-67343200D01*
X111362241Y-67343200D01*
X95551641Y-67343200D01*
X95484602Y-67323515D01*
X95438847Y-67270711D01*
X95435469Y-67262559D01*
X95431296Y-67251369D01*
X95431293Y-67251365D01*
X95431293Y-67251364D01*
X95345047Y-67136155D01*
X95345044Y-67136152D01*
X95229835Y-67049906D01*
X95229828Y-67049902D01*
X95094982Y-66999608D01*
X95094983Y-66999608D01*
X95035383Y-66993201D01*
X95035381Y-66993200D01*
X95035373Y-66993200D01*
X95035364Y-66993200D01*
X93239629Y-66993200D01*
X93239623Y-66993201D01*
X93180016Y-66999608D01*
X93045171Y-67049902D01*
X93045164Y-67049906D01*
X92929955Y-67136152D01*
X92929952Y-67136155D01*
X92843706Y-67251364D01*
X92843702Y-67251371D01*
X92793408Y-67386217D01*
X92787001Y-67445816D01*
X92787000Y-67445835D01*
X92787000Y-69241570D01*
X92787001Y-69241576D01*
X92793408Y-69301183D01*
X92843702Y-69436028D01*
X92843704Y-69436032D01*
X92851715Y-69446732D01*
X92876134Y-69512195D01*
X92861284Y-69580469D01*
X92811880Y-69629875D01*
X92771850Y-69643518D01*
X92731089Y-69649974D01*
X92717494Y-69652128D01*
X92717493Y-69652128D01*
X92642593Y-69663990D01*
X92642592Y-69663990D01*
X92455385Y-69724818D01*
X92430794Y-69737349D01*
X92362125Y-69750245D01*
X92297385Y-69723968D01*
X92257128Y-69666862D01*
X92250500Y-69626864D01*
X92250500Y-52944735D01*
X92270185Y-52877696D01*
X92286814Y-52857059D01*
X94997818Y-50146054D01*
X95033084Y-50121360D01*
X95169530Y-50057735D01*
X95363101Y-49922195D01*
X95530195Y-49755101D01*
X95665735Y-49561530D01*
X95765603Y-49347363D01*
X95826763Y-49119108D01*
X95847359Y-48883700D01*
X95826763Y-48648292D01*
X95765603Y-48420037D01*
X95665735Y-48205871D01*
X95560353Y-48055368D01*
X95530194Y-48012297D01*
X95363102Y-47845206D01*
X95363096Y-47845201D01*
X95177542Y-47715275D01*
X95133917Y-47660698D01*
X95126723Y-47591200D01*
X95158246Y-47528845D01*
X95177542Y-47512125D01*
X95251680Y-47460213D01*
X95363101Y-47382195D01*
X95530195Y-47215101D01*
X95665735Y-47021530D01*
X95765603Y-46807363D01*
X95826763Y-46579108D01*
X95847359Y-46343700D01*
X95826763Y-46108292D01*
X95765603Y-45880037D01*
X95665735Y-45665871D01*
X95596197Y-45566559D01*
X95530194Y-45472297D01*
X95363102Y-45305206D01*
X95363096Y-45305201D01*
X95177542Y-45175275D01*
X95133917Y-45120698D01*
X95126723Y-45051200D01*
X95158246Y-44988845D01*
X95177542Y-44972125D01*
X95199726Y-44956591D01*
X95363101Y-44842195D01*
X95530195Y-44675101D01*
X95665735Y-44481530D01*
X95765603Y-44267363D01*
X95826763Y-44039108D01*
X95847359Y-43803700D01*
X95826763Y-43568292D01*
X95765603Y-43340037D01*
X95665735Y-43125871D01*
X95638811Y-43087420D01*
X95530196Y-42932300D01*
X95491816Y-42893920D01*
X95407879Y-42809983D01*
X95374396Y-42748663D01*
X95379380Y-42678971D01*
X95421251Y-42623037D01*
X95452229Y-42606122D01*
X95583786Y-42557054D01*
X95583793Y-42557050D01*
X95698887Y-42470890D01*
X95698890Y-42470887D01*
X95785050Y-42355793D01*
X95785054Y-42355786D01*
X95835296Y-42221079D01*
X95835298Y-42221072D01*
X95841699Y-42161544D01*
X95841700Y-42161527D01*
X95841700Y-41513700D01*
X94924712Y-41513700D01*
X94957625Y-41456693D01*
X94991700Y-41329526D01*
X94991700Y-41197874D01*
X94957625Y-41070707D01*
X94924712Y-41013700D01*
X95841700Y-41013700D01*
X95841700Y-40365872D01*
X95841699Y-40365855D01*
X95835298Y-40306327D01*
X95835296Y-40306320D01*
X95785054Y-40171613D01*
X95785050Y-40171606D01*
X95698890Y-40056512D01*
X95698887Y-40056509D01*
X95583793Y-39970349D01*
X95583786Y-39970345D01*
X95449079Y-39920103D01*
X95449072Y-39920101D01*
X95389544Y-39913700D01*
X94741700Y-39913700D01*
X94741700Y-40830688D01*
X94684693Y-40797775D01*
X94557526Y-40763700D01*
X94425874Y-40763700D01*
X94298707Y-40797775D01*
X94241700Y-40830688D01*
X94241700Y-39913700D01*
X93593855Y-39913700D01*
X93534327Y-39920101D01*
X93534320Y-39920103D01*
X93399613Y-39970345D01*
X93399606Y-39970349D01*
X93284512Y-40056509D01*
X93284509Y-40056512D01*
X93198349Y-40171606D01*
X93198345Y-40171613D01*
X93148103Y-40306320D01*
X93148101Y-40306327D01*
X93141700Y-40365855D01*
X93141700Y-41013700D01*
X94058688Y-41013700D01*
X94025775Y-41070707D01*
X93991700Y-41197874D01*
X93991700Y-41329526D01*
X94025775Y-41456693D01*
X94058688Y-41513700D01*
X93141700Y-41513700D01*
X93141700Y-42161544D01*
X93148101Y-42221072D01*
X93148103Y-42221079D01*
X93198345Y-42355786D01*
X93198349Y-42355793D01*
X93284509Y-42470887D01*
X93284512Y-42470890D01*
X93399606Y-42557050D01*
X93399613Y-42557054D01*
X93531170Y-42606121D01*
X93587103Y-42647992D01*
X93611521Y-42713456D01*
X93596670Y-42781729D01*
X93575519Y-42809984D01*
X93453203Y-42932300D01*
X93317665Y-43125869D01*
X93317664Y-43125871D01*
X93217798Y-43340035D01*
X93217794Y-43340044D01*
X93156638Y-43568286D01*
X93156636Y-43568296D01*
X93136041Y-43803699D01*
X93136041Y-43803700D01*
X93156636Y-44039103D01*
X93156638Y-44039113D01*
X93217794Y-44267355D01*
X93217796Y-44267359D01*
X93217797Y-44267363D01*
X93224839Y-44282464D01*
X93317665Y-44481530D01*
X93317667Y-44481534D01*
X93453201Y-44675095D01*
X93453206Y-44675102D01*
X93620297Y-44842193D01*
X93620303Y-44842198D01*
X93805858Y-44972125D01*
X93849483Y-45026702D01*
X93856677Y-45096200D01*
X93825154Y-45158555D01*
X93805858Y-45175275D01*
X93620297Y-45305205D01*
X93453205Y-45472297D01*
X93317665Y-45665869D01*
X93317664Y-45665871D01*
X93217798Y-45880035D01*
X93217794Y-45880044D01*
X93156638Y-46108286D01*
X93156636Y-46108296D01*
X93136041Y-46343699D01*
X93136041Y-46343700D01*
X93156636Y-46579103D01*
X93156638Y-46579113D01*
X93217794Y-46807355D01*
X93217796Y-46807359D01*
X93217797Y-46807363D01*
X93224839Y-46822464D01*
X93317665Y-47021530D01*
X93317667Y-47021534D01*
X93453201Y-47215095D01*
X93453206Y-47215102D01*
X93620297Y-47382193D01*
X93620303Y-47382198D01*
X93805858Y-47512125D01*
X93849483Y-47566702D01*
X93856677Y-47636200D01*
X93825154Y-47698555D01*
X93805858Y-47715275D01*
X93620297Y-47845205D01*
X93453205Y-48012297D01*
X93317665Y-48205869D01*
X93317661Y-48205876D01*
X93254040Y-48342309D01*
X93229340Y-48377584D01*
X90046174Y-51560751D01*
X90046172Y-51560754D01*
X89996485Y-51629141D01*
X89930476Y-51719994D01*
X89841115Y-51895373D01*
X89841113Y-51895379D01*
X89815660Y-51973719D01*
X89815660Y-51973720D01*
X89780290Y-52082576D01*
X89780290Y-52082577D01*
X89749500Y-52276977D01*
X89749500Y-129098422D01*
X89780290Y-129292826D01*
X89841117Y-129480030D01*
X89879168Y-129554708D01*
X89930476Y-129655405D01*
X90046172Y-129814646D01*
X90046174Y-129814648D01*
X92160355Y-131928830D01*
X92160360Y-131928834D01*
X92224591Y-131975500D01*
X92319595Y-132044524D01*
X92492739Y-132132745D01*
X92494978Y-132133886D01*
X92561208Y-132155405D01*
X92561209Y-132155405D01*
X92621691Y-132175057D01*
X92682173Y-132194709D01*
X92876578Y-132225500D01*
X92876583Y-132225500D01*
X92876584Y-132225500D01*
X93073417Y-132225500D01*
X99758561Y-132225500D01*
X99825600Y-132245185D01*
X99832872Y-132250233D01*
X99857668Y-132268795D01*
X99857671Y-132268797D01*
X99992516Y-132319091D01*
X100052114Y-132325499D01*
X100052121Y-132325499D01*
X100052127Y-132325500D01*
X100052132Y-132325499D01*
X100055434Y-132325677D01*
X100055424Y-132325855D01*
X100055431Y-132325856D01*
X100055417Y-132325977D01*
X100055371Y-132326852D01*
X100117801Y-132345150D01*
X100138495Y-132361818D01*
X102191322Y-134414645D01*
X102191323Y-134414646D01*
X102330505Y-134553828D01*
X102489746Y-134669524D01*
X102665126Y-134758884D01*
X102665128Y-134758884D01*
X102665131Y-134758886D01*
X102669629Y-134760750D01*
X102668945Y-134762398D01*
X102720287Y-134797501D01*
X102747489Y-134861858D01*
X102735578Y-134930705D01*
X102688337Y-134982184D01*
X102624298Y-135000000D01*
X89624000Y-135000000D01*
X89556961Y-134980315D01*
X89511206Y-134927511D01*
X89500000Y-134876000D01*
X89500000Y-36123374D01*
X89519685Y-36056335D01*
X89572489Y-36010580D01*
X89623369Y-35999376D01*
X154867235Y-35669862D01*
X154934368Y-35689206D01*
G37*
%TD.AperFunction*%
%TA.AperFunction,Conductor*%
G36*
X188443137Y-35519971D02*
G01*
X188489158Y-35572544D01*
X188500623Y-35624001D01*
X188654198Y-66185351D01*
X188998982Y-134797501D01*
X188999374Y-134875377D01*
X188980027Y-134942514D01*
X188927454Y-134988534D01*
X188875376Y-135000000D01*
X176082932Y-135000000D01*
X176015893Y-134980315D01*
X175970138Y-134927511D01*
X175960194Y-134858353D01*
X175989219Y-134794797D01*
X176038252Y-134762287D01*
X176037614Y-134760745D01*
X176042105Y-134758885D01*
X176042107Y-134758884D01*
X176217486Y-134669524D01*
X176376727Y-134553828D01*
X177413828Y-133516727D01*
X177529524Y-133357486D01*
X177618884Y-133182107D01*
X177679709Y-132994908D01*
X177710500Y-132800503D01*
X177710500Y-127459050D01*
X177730185Y-127392011D01*
X177782989Y-127346256D01*
X177852147Y-127336312D01*
X177915703Y-127365337D01*
X177922181Y-127371369D01*
X178088917Y-127538105D01*
X178282421Y-127673600D01*
X178496507Y-127773429D01*
X178496516Y-127773433D01*
X178710000Y-127830634D01*
X178710000Y-126933012D01*
X178767007Y-126965925D01*
X178894174Y-127000000D01*
X179025826Y-127000000D01*
X179152993Y-126965925D01*
X179210000Y-126933012D01*
X179210000Y-127830633D01*
X179423483Y-127773433D01*
X179423492Y-127773429D01*
X179637578Y-127673600D01*
X179831082Y-127538105D01*
X179998105Y-127371082D01*
X180128119Y-127185405D01*
X180182696Y-127141781D01*
X180252195Y-127134588D01*
X180314549Y-127166110D01*
X180331269Y-127185405D01*
X180461505Y-127371401D01*
X180628599Y-127538495D01*
X180725384Y-127606265D01*
X180822165Y-127674032D01*
X180822167Y-127674033D01*
X180822170Y-127674035D01*
X181036337Y-127773903D01*
X181264592Y-127835063D01*
X181441034Y-127850500D01*
X181499999Y-127855659D01*
X181500000Y-127855659D01*
X181500001Y-127855659D01*
X181558966Y-127850500D01*
X181735408Y-127835063D01*
X181963663Y-127773903D01*
X182177830Y-127674035D01*
X182371401Y-127538495D01*
X182538495Y-127371401D01*
X182674035Y-127177830D01*
X182773903Y-126963663D01*
X182835063Y-126735408D01*
X182855659Y-126500000D01*
X182835063Y-126264592D01*
X182773903Y-126036337D01*
X182674035Y-125822171D01*
X182668731Y-125814595D01*
X182538494Y-125628597D01*
X182536819Y-125626922D01*
X182536315Y-125626000D01*
X182535014Y-125624449D01*
X182535325Y-125624187D01*
X182503334Y-125565599D01*
X182500500Y-125539241D01*
X182500500Y-120914141D01*
X182520185Y-120847102D01*
X182572989Y-120801347D01*
X182581149Y-120797966D01*
X182592331Y-120793796D01*
X182707546Y-120707546D01*
X182793796Y-120592331D01*
X182844091Y-120457483D01*
X182850500Y-120397873D01*
X182850499Y-118602128D01*
X182844091Y-118542517D01*
X182840241Y-118532195D01*
X182793797Y-118407671D01*
X182793793Y-118407664D01*
X182707547Y-118292455D01*
X182707544Y-118292452D01*
X182592335Y-118206206D01*
X182592328Y-118206202D01*
X182457482Y-118155908D01*
X182457483Y-118155908D01*
X182397883Y-118149501D01*
X182397881Y-118149500D01*
X182397873Y-118149500D01*
X182397864Y-118149500D01*
X180602129Y-118149500D01*
X180602123Y-118149501D01*
X180542516Y-118155908D01*
X180407671Y-118206202D01*
X180407664Y-118206206D01*
X180292455Y-118292452D01*
X180292452Y-118292455D01*
X180206206Y-118407664D01*
X180206202Y-118407671D01*
X180155908Y-118542517D01*
X180149501Y-118602116D01*
X180149501Y-118602123D01*
X180149500Y-118602135D01*
X180149500Y-120397870D01*
X180149501Y-120397876D01*
X180155908Y-120457483D01*
X180206202Y-120592328D01*
X180206206Y-120592335D01*
X180292452Y-120707544D01*
X180292455Y-120707547D01*
X180407665Y-120793794D01*
X180407667Y-120793794D01*
X180407669Y-120793796D01*
X180418830Y-120797958D01*
X180474764Y-120839826D01*
X180499184Y-120905289D01*
X180499500Y-120914141D01*
X180499500Y-125539241D01*
X180479815Y-125606280D01*
X180463181Y-125626922D01*
X180461508Y-125628594D01*
X180331269Y-125814595D01*
X180276692Y-125858219D01*
X180207193Y-125865412D01*
X180144839Y-125833890D01*
X180128119Y-125814594D01*
X179998113Y-125628926D01*
X179998108Y-125628920D01*
X179831082Y-125461894D01*
X179637578Y-125326399D01*
X179423492Y-125226570D01*
X179423486Y-125226567D01*
X179210000Y-125169364D01*
X179210000Y-126066988D01*
X179152993Y-126034075D01*
X179025826Y-126000000D01*
X178894174Y-126000000D01*
X178767007Y-126034075D01*
X178710000Y-126066988D01*
X178710000Y-125169364D01*
X178709999Y-125169364D01*
X178496513Y-125226567D01*
X178496507Y-125226570D01*
X178282422Y-125326399D01*
X178282420Y-125326400D01*
X178088926Y-125461886D01*
X178088920Y-125461891D01*
X177922181Y-125628631D01*
X177860858Y-125662116D01*
X177791166Y-125657132D01*
X177735233Y-125615260D01*
X177710816Y-125549796D01*
X177710500Y-125540950D01*
X177710500Y-109109336D01*
X177730185Y-109042297D01*
X177746819Y-109021655D01*
X182585662Y-104182812D01*
X187453828Y-99314646D01*
X187569524Y-99155405D01*
X187658884Y-98980026D01*
X187719709Y-98792826D01*
X187722468Y-98775408D01*
X187750500Y-98598422D01*
X187750500Y-63401577D01*
X187719709Y-63207173D01*
X187658882Y-63019970D01*
X187569523Y-62844594D01*
X187453828Y-62685354D01*
X187314646Y-62546172D01*
X183814646Y-59046172D01*
X179974646Y-55206172D01*
X179815405Y-55090476D01*
X179795263Y-55080213D01*
X179640030Y-55001117D01*
X179452826Y-54940290D01*
X179258422Y-54909500D01*
X179258417Y-54909500D01*
X174669416Y-54909500D01*
X174602377Y-54889815D01*
X174556622Y-54837011D01*
X174546678Y-54767853D01*
X174570150Y-54711188D01*
X174635352Y-54624089D01*
X174635354Y-54624086D01*
X174685596Y-54489379D01*
X174685598Y-54489372D01*
X174691999Y-54429844D01*
X174692000Y-54429827D01*
X174692000Y-53870000D01*
X173872251Y-53870000D01*
X173903381Y-53816081D01*
X173938000Y-53686880D01*
X173938000Y-53553120D01*
X173903381Y-53423919D01*
X173872251Y-53370000D01*
X174692000Y-53370000D01*
X174692000Y-52810172D01*
X174691999Y-52810155D01*
X174685598Y-52750627D01*
X174685596Y-52750620D01*
X174635354Y-52615913D01*
X174635350Y-52615906D01*
X174549190Y-52500812D01*
X174549188Y-52500810D01*
X174545556Y-52498091D01*
X174503688Y-52442156D01*
X174498707Y-52372464D01*
X174532195Y-52311142D01*
X174581555Y-52280897D01*
X174593602Y-52276983D01*
X174676632Y-52250005D01*
X174853694Y-52159787D01*
X175014464Y-52042981D01*
X175154981Y-51902464D01*
X175271787Y-51741694D01*
X175362005Y-51564632D01*
X175423413Y-51375636D01*
X175454500Y-51179361D01*
X175454500Y-50980639D01*
X175423413Y-50784364D01*
X175362005Y-50595368D01*
X175362005Y-50595367D01*
X175271786Y-50418305D01*
X175154981Y-50257536D01*
X175014464Y-50117019D01*
X174853694Y-50000213D01*
X174697218Y-49920484D01*
X174646423Y-49872510D01*
X174629628Y-49804689D01*
X174652165Y-49738554D01*
X174697218Y-49699515D01*
X174853694Y-49619787D01*
X175014464Y-49502981D01*
X175154981Y-49362464D01*
X175271787Y-49201694D01*
X175362005Y-49024632D01*
X175423413Y-48835636D01*
X175454500Y-48639361D01*
X175454500Y-48440639D01*
X175423413Y-48244364D01*
X175362005Y-48055368D01*
X175362005Y-48055367D01*
X175271786Y-47878305D01*
X175247738Y-47845206D01*
X175154981Y-47717536D01*
X175014464Y-47577019D01*
X174853694Y-47460213D01*
X174697218Y-47380484D01*
X174646423Y-47332510D01*
X174629628Y-47264689D01*
X174652165Y-47198554D01*
X174697218Y-47159515D01*
X174853694Y-47079787D01*
X175014464Y-46962981D01*
X175154981Y-46822464D01*
X175271787Y-46661694D01*
X175362005Y-46484632D01*
X175423413Y-46295636D01*
X175454500Y-46099361D01*
X175454500Y-45900639D01*
X175423413Y-45704364D01*
X175392709Y-45609866D01*
X175362006Y-45515370D01*
X175362005Y-45515367D01*
X175293870Y-45381647D01*
X175271787Y-45338306D01*
X175154981Y-45177536D01*
X175014464Y-45037019D01*
X174853694Y-44920213D01*
X174697218Y-44840484D01*
X174646423Y-44792510D01*
X174629628Y-44724689D01*
X174652165Y-44658554D01*
X174697218Y-44619515D01*
X174853694Y-44539787D01*
X175014464Y-44422981D01*
X175154981Y-44282464D01*
X175271787Y-44121694D01*
X175362005Y-43944632D01*
X175423413Y-43755636D01*
X175454500Y-43559361D01*
X175454500Y-43360639D01*
X175423413Y-43164364D01*
X175362005Y-42975368D01*
X175362005Y-42975367D01*
X175271786Y-42798305D01*
X175259743Y-42781729D01*
X175154981Y-42637536D01*
X175014464Y-42497019D01*
X174853694Y-42380213D01*
X174697218Y-42300484D01*
X174646423Y-42252510D01*
X174629628Y-42184689D01*
X174652165Y-42118554D01*
X174697218Y-42079515D01*
X174853694Y-41999787D01*
X175014464Y-41882981D01*
X175154981Y-41742464D01*
X175271787Y-41581694D01*
X175362005Y-41404632D01*
X175423413Y-41215636D01*
X175454500Y-41019361D01*
X175454500Y-40820639D01*
X175423413Y-40624364D01*
X175392709Y-40529866D01*
X175362006Y-40435370D01*
X175362005Y-40435367D01*
X175276480Y-40267517D01*
X175271787Y-40258306D01*
X175154981Y-40097536D01*
X175014464Y-39957019D01*
X174853694Y-39840213D01*
X174697218Y-39760484D01*
X174646423Y-39712510D01*
X174629628Y-39644689D01*
X174652165Y-39578554D01*
X174697218Y-39539515D01*
X174853694Y-39459787D01*
X175014464Y-39342981D01*
X175154981Y-39202464D01*
X175271787Y-39041694D01*
X175362005Y-38864632D01*
X175423413Y-38675636D01*
X175454500Y-38479361D01*
X175454500Y-38280639D01*
X175423413Y-38084364D01*
X175362005Y-37895368D01*
X175362000Y-37895357D01*
X175312799Y-37798795D01*
X175299902Y-37730126D01*
X175326178Y-37665386D01*
X175383284Y-37625128D01*
X175423283Y-37618500D01*
X179927218Y-37618500D01*
X179994257Y-37638185D01*
X180014899Y-37654819D01*
X183613181Y-41253101D01*
X183646666Y-41314424D01*
X183649500Y-41340782D01*
X183649500Y-42122870D01*
X183649501Y-42122876D01*
X183655908Y-42182483D01*
X183706202Y-42317328D01*
X183706206Y-42317335D01*
X183792452Y-42432544D01*
X183792455Y-42432547D01*
X183907664Y-42518793D01*
X183907671Y-42518797D01*
X183907674Y-42518798D01*
X184039598Y-42568002D01*
X184095531Y-42609873D01*
X184119949Y-42675337D01*
X184105098Y-42743610D01*
X184083947Y-42771865D01*
X183961886Y-42893926D01*
X183826400Y-43087420D01*
X183826399Y-43087422D01*
X183726570Y-43301507D01*
X183726567Y-43301513D01*
X183669364Y-43514999D01*
X183669364Y-43515000D01*
X184566988Y-43515000D01*
X184534075Y-43572007D01*
X184500000Y-43699174D01*
X184500000Y-43830826D01*
X184534075Y-43957993D01*
X184566988Y-44015000D01*
X183669364Y-44015000D01*
X183726567Y-44228486D01*
X183726570Y-44228492D01*
X183826399Y-44442578D01*
X183961894Y-44636082D01*
X184128917Y-44803105D01*
X184322421Y-44938600D01*
X184536507Y-45038429D01*
X184536516Y-45038433D01*
X184750000Y-45095634D01*
X184750000Y-44198012D01*
X184807007Y-44230925D01*
X184934174Y-44265000D01*
X185065826Y-44265000D01*
X185192993Y-44230925D01*
X185250000Y-44198012D01*
X185250000Y-45095633D01*
X185463483Y-45038433D01*
X185463492Y-45038429D01*
X185677578Y-44938600D01*
X185871082Y-44803105D01*
X186038105Y-44636082D01*
X186173600Y-44442578D01*
X186273429Y-44228492D01*
X186273432Y-44228486D01*
X186330636Y-44015000D01*
X185433012Y-44015000D01*
X185465925Y-43957993D01*
X185500000Y-43830826D01*
X185500000Y-43699174D01*
X185465925Y-43572007D01*
X185433012Y-43515000D01*
X186330636Y-43515000D01*
X186330635Y-43514999D01*
X186273432Y-43301513D01*
X186273429Y-43301507D01*
X186173600Y-43087422D01*
X186173599Y-43087420D01*
X186038113Y-42893926D01*
X186038108Y-42893920D01*
X185916053Y-42771865D01*
X185882568Y-42710542D01*
X185887552Y-42640850D01*
X185929424Y-42584917D01*
X185960400Y-42568002D01*
X186092331Y-42518796D01*
X186207546Y-42432546D01*
X186293796Y-42317331D01*
X186344091Y-42182483D01*
X186350500Y-42122873D01*
X186350499Y-40327128D01*
X186344091Y-40267517D01*
X186340655Y-40258305D01*
X186293797Y-40132671D01*
X186293793Y-40132664D01*
X186207547Y-40017455D01*
X186207544Y-40017452D01*
X186092335Y-39931206D01*
X186092328Y-39931202D01*
X185957482Y-39880908D01*
X185957483Y-39880908D01*
X185897883Y-39874501D01*
X185897881Y-39874500D01*
X185897873Y-39874500D01*
X185897865Y-39874500D01*
X185115782Y-39874500D01*
X185048743Y-39854815D01*
X185028101Y-39838181D01*
X181174479Y-35984559D01*
X181174459Y-35984537D01*
X181030785Y-35840863D01*
X181030781Y-35840860D01*
X180917325Y-35765051D01*
X180872520Y-35711439D01*
X180863813Y-35642114D01*
X180893967Y-35579086D01*
X180953410Y-35542367D01*
X180985585Y-35537951D01*
X188375999Y-35500626D01*
X188443137Y-35519971D01*
G37*
%TD.AperFunction*%
%TA.AperFunction,Conductor*%
G36*
X171389904Y-48843684D02*
G01*
X171445837Y-48885556D01*
X171464501Y-48921548D01*
X171497993Y-49024629D01*
X171497994Y-49024632D01*
X171588213Y-49201694D01*
X171705019Y-49362464D01*
X171845536Y-49502981D01*
X172006306Y-49619787D01*
X172096645Y-49665817D01*
X172162780Y-49699515D01*
X172213576Y-49747490D01*
X172230371Y-49815311D01*
X172207833Y-49881446D01*
X172162780Y-49920485D01*
X172006305Y-50000213D01*
X171845533Y-50117021D01*
X171705021Y-50257533D01*
X171588213Y-50418305D01*
X171497994Y-50595367D01*
X171497993Y-50595370D01*
X171436587Y-50784362D01*
X171405500Y-50980639D01*
X171405500Y-51179360D01*
X171436587Y-51375637D01*
X171497993Y-51564629D01*
X171497994Y-51564632D01*
X171577156Y-51719994D01*
X171588213Y-51741694D01*
X171705019Y-51902464D01*
X171845536Y-52042981D01*
X172006306Y-52159787D01*
X172093149Y-52204035D01*
X172183367Y-52250005D01*
X172183373Y-52250007D01*
X172278444Y-52280897D01*
X172336120Y-52320334D01*
X172363319Y-52384692D01*
X172351405Y-52453539D01*
X172314447Y-52498088D01*
X172310813Y-52500808D01*
X172310809Y-52500812D01*
X172224649Y-52615906D01*
X172224645Y-52615913D01*
X172174403Y-52750620D01*
X172174401Y-52750627D01*
X172168000Y-52810155D01*
X172168000Y-53370000D01*
X172987749Y-53370000D01*
X172956619Y-53423919D01*
X172922000Y-53553120D01*
X172922000Y-53686880D01*
X172956619Y-53816081D01*
X172987749Y-53870000D01*
X172168000Y-53870000D01*
X172168000Y-54429844D01*
X172174401Y-54489372D01*
X172174403Y-54489379D01*
X172224645Y-54624086D01*
X172224649Y-54624093D01*
X172310809Y-54739187D01*
X172310812Y-54739190D01*
X172314441Y-54741907D01*
X172356310Y-54797842D01*
X172361292Y-54867534D01*
X172327805Y-54928855D01*
X172278445Y-54959102D01*
X172183370Y-54989993D01*
X172183367Y-54989994D01*
X172006305Y-55080213D01*
X171845533Y-55197021D01*
X171705021Y-55337533D01*
X171588213Y-55498305D01*
X171497994Y-55675367D01*
X171497993Y-55675370D01*
X171436587Y-55864362D01*
X171405500Y-56060639D01*
X171405500Y-56259360D01*
X171436587Y-56455637D01*
X171497993Y-56644629D01*
X171497994Y-56644632D01*
X171588213Y-56821694D01*
X171705019Y-56982464D01*
X171845536Y-57122981D01*
X172006306Y-57239787D01*
X172093149Y-57284035D01*
X172183367Y-57330005D01*
X172183370Y-57330006D01*
X172277866Y-57360709D01*
X172372364Y-57391413D01*
X172568639Y-57422500D01*
X172568640Y-57422500D01*
X174291360Y-57422500D01*
X174291361Y-57422500D01*
X174357485Y-57412027D01*
X174376883Y-57410500D01*
X178590664Y-57410500D01*
X178657703Y-57430185D01*
X178678345Y-57446819D01*
X181143845Y-59912319D01*
X181177330Y-59973642D01*
X181172346Y-60043334D01*
X181143845Y-60087681D01*
X175046174Y-66185351D01*
X175046174Y-66185352D01*
X175046172Y-66185354D01*
X174996485Y-66253741D01*
X174930476Y-66344594D01*
X174840669Y-66520851D01*
X174839608Y-66524612D01*
X174780291Y-66707169D01*
X174780291Y-66707172D01*
X174749500Y-66901577D01*
X174749500Y-69453271D01*
X174741682Y-69496604D01*
X174705908Y-69592517D01*
X174699501Y-69652116D01*
X174699500Y-69652128D01*
X174699500Y-71347870D01*
X174699501Y-71347876D01*
X174705908Y-71407483D01*
X174756202Y-71542328D01*
X174756206Y-71542335D01*
X174842452Y-71657544D01*
X174842455Y-71657547D01*
X174957664Y-71743793D01*
X174957671Y-71743797D01*
X174972418Y-71749297D01*
X175092517Y-71794091D01*
X175152127Y-71800500D01*
X175152153Y-71800499D01*
X175155453Y-71800678D01*
X175155372Y-71802183D01*
X175216672Y-71820112D01*
X175262483Y-71872867D01*
X175270016Y-71916464D01*
X175953553Y-72600000D01*
X175947339Y-72600000D01*
X175845606Y-72627259D01*
X175754394Y-72679920D01*
X175679920Y-72754394D01*
X175627259Y-72845606D01*
X175600000Y-72947339D01*
X175600000Y-72953552D01*
X174920974Y-72274526D01*
X174920973Y-72274526D01*
X174869868Y-72347512D01*
X174869866Y-72347516D01*
X174773734Y-72553673D01*
X174773730Y-72553682D01*
X174714860Y-72773389D01*
X174714858Y-72773400D01*
X174695034Y-72999997D01*
X174695034Y-73000002D01*
X174714858Y-73226599D01*
X174714860Y-73226610D01*
X174773730Y-73446317D01*
X174773735Y-73446331D01*
X174869863Y-73652478D01*
X174920974Y-73725472D01*
X175600000Y-73046446D01*
X175600000Y-73052661D01*
X175627259Y-73154394D01*
X175679920Y-73245606D01*
X175754394Y-73320080D01*
X175845606Y-73372741D01*
X175947339Y-73400000D01*
X175953553Y-73400000D01*
X175274526Y-74079025D01*
X175347513Y-74130132D01*
X175347521Y-74130136D01*
X175553668Y-74226264D01*
X175553682Y-74226269D01*
X175773389Y-74285139D01*
X175773400Y-74285141D01*
X175999998Y-74304966D01*
X176000002Y-74304966D01*
X176226599Y-74285141D01*
X176226610Y-74285139D01*
X176446317Y-74226269D01*
X176446331Y-74226264D01*
X176652478Y-74130136D01*
X176725471Y-74079024D01*
X176046447Y-73400000D01*
X176052661Y-73400000D01*
X176154394Y-73372741D01*
X176245606Y-73320080D01*
X176320080Y-73245606D01*
X176372741Y-73154394D01*
X176400000Y-73052661D01*
X176400000Y-73046447D01*
X177079024Y-73725471D01*
X177130136Y-73652478D01*
X177226264Y-73446331D01*
X177226269Y-73446317D01*
X177285139Y-73226610D01*
X177285141Y-73226599D01*
X177304966Y-73000002D01*
X177304966Y-72999997D01*
X177285141Y-72773400D01*
X177285139Y-72773389D01*
X177226269Y-72553682D01*
X177226264Y-72553668D01*
X177130136Y-72347521D01*
X177130132Y-72347513D01*
X177079025Y-72274526D01*
X176400000Y-72953551D01*
X176400000Y-72947339D01*
X176372741Y-72845606D01*
X176320080Y-72754394D01*
X176245606Y-72679920D01*
X176154394Y-72627259D01*
X176052661Y-72600000D01*
X176046445Y-72600000D01*
X176730646Y-71915800D01*
X176740492Y-71866807D01*
X176789107Y-71816624D01*
X176844633Y-71801981D01*
X176844576Y-71800900D01*
X176844571Y-71800854D01*
X176844573Y-71800853D01*
X176844564Y-71800676D01*
X176847857Y-71800499D01*
X176847872Y-71800499D01*
X176907483Y-71794091D01*
X177042331Y-71743796D01*
X177157546Y-71657546D01*
X177243796Y-71542331D01*
X177294091Y-71407483D01*
X177300500Y-71347873D01*
X177300499Y-69652128D01*
X177294091Y-69592517D01*
X177289597Y-69580469D01*
X177258318Y-69496604D01*
X177250500Y-69453271D01*
X177250500Y-67569336D01*
X177270185Y-67502297D01*
X177286819Y-67481655D01*
X182912319Y-61856155D01*
X182973642Y-61822670D01*
X183043334Y-61827654D01*
X183087681Y-61856155D01*
X185213181Y-63981655D01*
X185246666Y-64042978D01*
X185249500Y-64069336D01*
X185249500Y-97930664D01*
X185229815Y-97997703D01*
X185213181Y-98018345D01*
X175506174Y-107725351D01*
X175506174Y-107725352D01*
X175506172Y-107725354D01*
X175471794Y-107772671D01*
X175390476Y-107884594D01*
X175300669Y-108060851D01*
X175299608Y-108064612D01*
X175240291Y-108247169D01*
X175240291Y-108247172D01*
X175209500Y-108441577D01*
X175209500Y-125650919D01*
X175189815Y-125717958D01*
X175137011Y-125763713D01*
X175067853Y-125773657D01*
X175004297Y-125744632D01*
X174983925Y-125722043D01*
X174944124Y-125665201D01*
X174918495Y-125628599D01*
X174918493Y-125628597D01*
X174918491Y-125628594D01*
X174751402Y-125461506D01*
X174751395Y-125461501D01*
X174557834Y-125325967D01*
X174557830Y-125325965D01*
X174557828Y-125325964D01*
X174343663Y-125226097D01*
X174343659Y-125226096D01*
X174343655Y-125226094D01*
X174115413Y-125164938D01*
X174115403Y-125164936D01*
X173880001Y-125144341D01*
X173879999Y-125144341D01*
X173644596Y-125164936D01*
X173644586Y-125164938D01*
X173416344Y-125226094D01*
X173416335Y-125226098D01*
X173202171Y-125325964D01*
X173202169Y-125325965D01*
X173008597Y-125461505D01*
X172841505Y-125628597D01*
X172711575Y-125814158D01*
X172656998Y-125857783D01*
X172587500Y-125864977D01*
X172525145Y-125833454D01*
X172508425Y-125814158D01*
X172378494Y-125628597D01*
X172376819Y-125626922D01*
X172376315Y-125626000D01*
X172375014Y-125624449D01*
X172375325Y-125624187D01*
X172343334Y-125565599D01*
X172340500Y-125539241D01*
X172340500Y-90785462D01*
X172340501Y-90785441D01*
X172340501Y-90582244D01*
X172340500Y-90582242D01*
X172302052Y-90388952D01*
X172226632Y-90206873D01*
X172226631Y-90206872D01*
X172226628Y-90206866D01*
X172117140Y-90043006D01*
X172117137Y-90043002D01*
X166113317Y-84039183D01*
X166079832Y-83977860D01*
X166084816Y-83908168D01*
X166126688Y-83852235D01*
X166192152Y-83827818D01*
X166222909Y-83830761D01*
X166223124Y-83829545D01*
X166228448Y-83830483D01*
X166228458Y-83830486D01*
X166390380Y-83844652D01*
X166455148Y-83850319D01*
X166455150Y-83850319D01*
X166455152Y-83850319D01*
X166511823Y-83845360D01*
X166681842Y-83830486D01*
X166901646Y-83771590D01*
X167107884Y-83675419D01*
X167261615Y-83567775D01*
X167327821Y-83545449D01*
X167332738Y-83545351D01*
X175079069Y-83545351D01*
X175146108Y-83565036D01*
X175166750Y-83581670D01*
X181613181Y-90028101D01*
X181646666Y-90089424D01*
X181649500Y-90115782D01*
X181649500Y-90897870D01*
X181649501Y-90897876D01*
X181655908Y-90957483D01*
X181706202Y-91092328D01*
X181706206Y-91092335D01*
X181792452Y-91207544D01*
X181792455Y-91207547D01*
X181907664Y-91293793D01*
X181907671Y-91293797D01*
X181907674Y-91293798D01*
X182039598Y-91343002D01*
X182095531Y-91384873D01*
X182119949Y-91450337D01*
X182105098Y-91518610D01*
X182083947Y-91546865D01*
X181961886Y-91668926D01*
X181826400Y-91862420D01*
X181826399Y-91862422D01*
X181726570Y-92076507D01*
X181726567Y-92076513D01*
X181669364Y-92289999D01*
X181669364Y-92290000D01*
X182566988Y-92290000D01*
X182534075Y-92347007D01*
X182500000Y-92474174D01*
X182500000Y-92605826D01*
X182534075Y-92732993D01*
X182566988Y-92790000D01*
X181669364Y-92790000D01*
X181726567Y-93003486D01*
X181726570Y-93003492D01*
X181826399Y-93217578D01*
X181961894Y-93411082D01*
X182128917Y-93578105D01*
X182322421Y-93713600D01*
X182536507Y-93813429D01*
X182536516Y-93813433D01*
X182750000Y-93870634D01*
X182750000Y-92973012D01*
X182807007Y-93005925D01*
X182934174Y-93040000D01*
X183065826Y-93040000D01*
X183192993Y-93005925D01*
X183250000Y-92973012D01*
X183250000Y-93870633D01*
X183463483Y-93813433D01*
X183463492Y-93813429D01*
X183677578Y-93713600D01*
X183871082Y-93578105D01*
X184038105Y-93411082D01*
X184173600Y-93217578D01*
X184273429Y-93003492D01*
X184273432Y-93003486D01*
X184330636Y-92790000D01*
X183433012Y-92790000D01*
X183465925Y-92732993D01*
X183500000Y-92605826D01*
X183500000Y-92474174D01*
X183465925Y-92347007D01*
X183433012Y-92290000D01*
X184330636Y-92290000D01*
X184330635Y-92289999D01*
X184273432Y-92076513D01*
X184273429Y-92076507D01*
X184173600Y-91862422D01*
X184173599Y-91862420D01*
X184038113Y-91668926D01*
X184038108Y-91668920D01*
X183916053Y-91546865D01*
X183882568Y-91485542D01*
X183887552Y-91415850D01*
X183929424Y-91359917D01*
X183960400Y-91343002D01*
X184092331Y-91293796D01*
X184207546Y-91207546D01*
X184293796Y-91092331D01*
X184344091Y-90957483D01*
X184350500Y-90897873D01*
X184350499Y-89102128D01*
X184344091Y-89042517D01*
X184337167Y-89023954D01*
X184293797Y-88907671D01*
X184293793Y-88907664D01*
X184207547Y-88792455D01*
X184207544Y-88792452D01*
X184092335Y-88706206D01*
X184092328Y-88706202D01*
X183957482Y-88655908D01*
X183957483Y-88655908D01*
X183897883Y-88649501D01*
X183897881Y-88649500D01*
X183897873Y-88649500D01*
X183897865Y-88649500D01*
X183115782Y-88649500D01*
X183048743Y-88629815D01*
X183028101Y-88613181D01*
X176326330Y-81911410D01*
X176326310Y-81911388D01*
X176182636Y-81767714D01*
X176182632Y-81767711D01*
X176018771Y-81658222D01*
X176018762Y-81658217D01*
X175946166Y-81628147D01*
X175890016Y-81604889D01*
X175836687Y-81582800D01*
X175836683Y-81582799D01*
X175836679Y-81582797D01*
X175740039Y-81563575D01*
X175643395Y-81544351D01*
X175643392Y-81544351D01*
X167332738Y-81544351D01*
X167265699Y-81524666D01*
X167261615Y-81521926D01*
X167107884Y-81414283D01*
X167107882Y-81414282D01*
X166901647Y-81318112D01*
X166901638Y-81318109D01*
X166681847Y-81259217D01*
X166681843Y-81259216D01*
X166681842Y-81259216D01*
X166681841Y-81259215D01*
X166681836Y-81259215D01*
X166455152Y-81239383D01*
X166455148Y-81239383D01*
X166228463Y-81259215D01*
X166228452Y-81259217D01*
X166008661Y-81318109D01*
X166008652Y-81318112D01*
X165802417Y-81414282D01*
X165802415Y-81414283D01*
X165616008Y-81544805D01*
X165455104Y-81705709D01*
X165324582Y-81892116D01*
X165324581Y-81892118D01*
X165228411Y-82098353D01*
X165228408Y-82098362D01*
X165169516Y-82318153D01*
X165169514Y-82318164D01*
X165149682Y-82544849D01*
X165149682Y-82544852D01*
X165169514Y-82771537D01*
X165170456Y-82776877D01*
X165168041Y-82777302D01*
X165166585Y-82836838D01*
X165127383Y-82894674D01*
X165063136Y-82922135D01*
X164994242Y-82910502D01*
X164960817Y-82886683D01*
X154898422Y-72824289D01*
X154898419Y-72824285D01*
X154898419Y-72824286D01*
X154891352Y-72817219D01*
X154891352Y-72817218D01*
X154751995Y-72677861D01*
X154751994Y-72677860D01*
X154751993Y-72677859D01*
X154588133Y-72568371D01*
X154588124Y-72568366D01*
X154496018Y-72530215D01*
X154459378Y-72515038D01*
X154406049Y-72492949D01*
X154406045Y-72492948D01*
X154406041Y-72492946D01*
X154309401Y-72473724D01*
X154212757Y-72454500D01*
X154212754Y-72454500D01*
X153872855Y-72454500D01*
X153805816Y-72434815D01*
X153781626Y-72414483D01*
X153719747Y-72347265D01*
X153719744Y-72347262D01*
X153581110Y-72239359D01*
X153523509Y-72194526D01*
X153523507Y-72194525D01*
X153523506Y-72194524D01*
X153304811Y-72076172D01*
X153304802Y-72076169D01*
X153069616Y-71995429D01*
X152824335Y-71954500D01*
X152784292Y-71954500D01*
X152717253Y-71934815D01*
X152671498Y-71882011D01*
X152661554Y-71812853D01*
X152690579Y-71749297D01*
X152749357Y-71711523D01*
X152752164Y-71710734D01*
X152843887Y-71686158D01*
X153055888Y-71598344D01*
X153254612Y-71483611D01*
X153436661Y-71343919D01*
X153436665Y-71343914D01*
X153436670Y-71343911D01*
X153598911Y-71181670D01*
X153598914Y-71181665D01*
X153598919Y-71181661D01*
X153738611Y-70999612D01*
X153853344Y-70800888D01*
X153941158Y-70588887D01*
X154000548Y-70367238D01*
X154030500Y-70139734D01*
X154030500Y-69910266D01*
X154000548Y-69682762D01*
X153941158Y-69461113D01*
X153853344Y-69249112D01*
X153738611Y-69050388D01*
X153738608Y-69050385D01*
X153738607Y-69050382D01*
X153598918Y-68868338D01*
X153598911Y-68868330D01*
X153436670Y-68706089D01*
X153436661Y-68706081D01*
X153254617Y-68566392D01*
X153055890Y-68451657D01*
X153055876Y-68451650D01*
X152843887Y-68363842D01*
X152774052Y-68345130D01*
X152622238Y-68304452D01*
X152584215Y-68299446D01*
X152394741Y-68274500D01*
X152394734Y-68274500D01*
X152165266Y-68274500D01*
X152165252Y-68274500D01*
X152163662Y-68274604D01*
X152163197Y-68274500D01*
X152161207Y-68274500D01*
X152161207Y-68274054D01*
X152095481Y-68259339D01*
X152046376Y-68209634D01*
X152031939Y-68141273D01*
X152056753Y-68075958D01*
X152067879Y-68063195D01*
X171258891Y-48872183D01*
X171320212Y-48838700D01*
X171389904Y-48843684D01*
G37*
%TD.AperFunction*%
%TD*%
M02*
